<svg id="logo-atlassian" viewBox="0 0 540 67" width="100%" height="100%">
      <path fill="url(#logo-atlassian-g)" d="M19.64 30.56a1.88 1.88 0 0 0-3.2.35L.21 63.36a1.94 1.94 0 0 0 1.74 2.81h22.6a1.87 1.87 0 0 0 1.74-1.07c4.86-10.1 1.91-25.4-6.65-34.54z"></path>
      <path d="M31.55 1A42.81 42.81 0 0 0 29 43.3l10.95 21.8a1.94 1.94 0 0 0 1.74 1.07h22.6A1.94 1.94 0 0 0 66 63.36L34.85 1a1.83 1.83 0 0 0-3.3 0z"></path>
      <path d="M296.64 27.06c0 8 3.73 14.42 18.31 17.23 8.7 1.82 10.52 3.23 10.52 6.13s-1.82 4.64-8 4.64a44.89 44.89 0 0 1-21.13-5.72v13.1c4.39 2.15 10.19 4.56 21 4.56 15.25 0 21.3-6.79 21.3-16.9m0 0c0-9.53-5.05-14-19.31-17.07-7.87-1.74-9.78-3.48-9.78-6 0-3.15 2.82-4.47 8-4.47 6.3 0 12.51 1.91 18.4 4.56V14.63a41.58 41.58 0 0 0-18-3.73c-14.09 0-21.38 6.13-21.38 16.16M492.52 11.73v54.44h11.6V24.66l4.89 11.02 16.41 30.49H540V11.73h-11.6v35.14l-4.39-10.2-13.18-24.94h-18.31zM406.06 11.73h12.68v54.44h-12.68zM391.43 50.1c0-9.53-5.05-14-19.31-17.07-7.87-1.74-9.78-3.48-9.78-6 0-3.15 2.82-4.47 8-4.47 6.3 0 12.51 1.91 18.4 4.56V14.63a41.58 41.58 0 0 0-18-3.73c-14.09 0-21.38 6.13-21.38 16.16 0 8 3.73 14.42 18.31 17.23 8.7 1.82 10.52 3.23 10.52 6.13s-1.82 4.64-8 4.64a44.89 44.89 0 0 1-21.13-5.72v13.1c4.39 2.15 10.19 4.56 21 4.56 15.25 0 21.3-6.79 21.3-16.9M198.16 11.73v54.44h26.06l4.1-11.76h-17.4V11.73h-12.76zM146.67 11.73V23.5h14.09v42.67h12.76V23.5h15.08V11.73h-41.93zM128.17 11.73h-16.72l-19 54.44H107l2.66-9.17A36 36 0 0 0 130 57l2.69 9.17h14.5zm-8.36 35.46a24.76 24.76 0 0 1-7-1l7-23.77 7 23.77a24.76 24.76 0 0 1-7 1zM269.14 11.73h-16.72l-19 54.44h14.5l2.71-9.17a36 36 0 0 0 20.3 0l2.69 9.17h14.5zm-8.36 35.46a24.76 24.76 0 0 1-7-1l7-23.77 7 23.77a24.76 24.76 0 0 1-7 1zM464.42 11.73H447.7l-19 54.44h14.5l2.71-9.17a36 36 0 0 0 20.3 0l2.69 9.17h14.5zm-8.36 35.46a24.76 24.76 0 0 1-7-1l7-23.77 7 23.77a24.76 24.76 0 0 1-7 1z"></path>
    </svg>