<?xml version="1.0" encoding="utf-8"?>
<!-- Generator: Adobe Illustrator 21.0.2, SVG Export Plug-In . SVG Version: 6.00 Build 0)  -->
<svg version="1.1" id="Layer_1" xmlns="http://www.w3.org/2000/svg" xmlns:xlink="http://www.w3.org/1999/xlink" x="0px" y="0px"
	 viewBox="0 0 612 792" style="enable-background:new 0 0 612 792;" xml:space="preserve">
<style type="text/css">
	.st0{fill:#6B6B6B;}
</style>
<title>Atlassian-horizontal-neutral-rgb</title>
<g id="Layer_2">
	<g id="Blue">
		<path class="st0" d="M19.6,30.6c-0.6-0.8-1.8-1-2.6-0.4c-0.2,0.2-0.4,0.4-0.6,0.7L0.2,63.4c-0.5,1-0.1,2.1,0.9,2.6
			c0.3,0.1,0.6,0.2,0.9,0.2h22.6c0.7,0,1.4-0.4,1.7-1.1C31.1,55,28.2,39.7,19.6,30.6z"/>
		<path class="st0" d="M31.5,1c-8.3,12.7-9.2,28.7-2.5,42.3l11,21.8c0.3,0.7,1,1.1,1.7,1.1h22.6c1.1,0,1.9-0.9,1.9-2
			c0-0.3-0.1-0.6-0.2-0.8L34.8,1c-0.4-0.9-1.5-1.3-2.4-0.9C32,0.3,31.7,0.6,31.5,1z"/>
		<path class="st0" d="M296.6,27.1c0,8,3.7,14.4,18.3,17.2c8.7,1.8,10.5,3.2,10.5,6.1s-1.8,4.6-8,4.6c-7.4-0.1-14.7-2.1-21.1-5.7
			v13.1c4.4,2.1,10.2,4.6,21,4.6c15.2,0,21.3-6.8,21.3-16.9 M338.6,50.1c0-9.5-5-14-19.3-17.1c-7.9-1.7-9.8-3.5-9.8-6
			c0-3.1,2.8-4.5,8-4.5c6.3,0,12.5,1.9,18.4,4.6V14.6c-5.6-2.6-11.8-3.8-18-3.7c-14.1,0-21.4,6.1-21.4,16.2"/>
		<polygon class="st0" points="492.5,11.7 492.5,66.2 504.1,66.2 504.1,24.7 509,35.7 525.4,66.2 540,66.2 540,11.7 528.4,11.7 
			528.4,46.9 524,36.7 510.8,11.7 		"/>
		<rect x="406.1" y="11.7" class="st0" width="12.7" height="54.4"/>
		<path class="st0" d="M391.4,50.1c0-9.5-5-14-19.3-17.1c-7.9-1.7-9.8-3.5-9.8-6c0-3.1,2.8-4.5,8-4.5c6.3,0,12.5,1.9,18.4,4.6V14.6
			c-5.6-2.6-11.8-3.8-18-3.7c-14.1,0-21.4,6.1-21.4,16.2c0,8,3.7,14.4,18.3,17.2c8.7,1.8,10.5,3.2,10.5,6.1s-1.8,4.6-8,4.6
			c-7.4-0.1-14.7-2.1-21.1-5.7v13.1c4.4,2.1,10.2,4.6,21,4.6C385.3,67,391.4,60.2,391.4,50.1"/>
		<polygon class="st0" points="198.2,11.7 198.2,66.2 224.2,66.2 228.3,54.4 210.9,54.4 210.9,11.7 		"/>
		<polygon class="st0" points="146.7,11.7 146.7,23.5 160.8,23.5 160.8,66.2 173.5,66.2 173.5,23.5 188.6,23.5 188.6,11.7 		"/>
		<path class="st0" d="M128.2,11.7h-16.7l-19,54.4H107l2.7-9.2c6.6,2,13.7,2,20.3,0l2.7,9.2h14.5L128.2,11.7z M119.8,47.2
			c-2.4,0-4.7-0.3-7-1l7-23.8l7,23.8C124.5,46.9,122.2,47.2,119.8,47.2z"/>
		<path class="st0" d="M269.1,11.7h-16.7l-19,54.4h14.5l2.7-9.2c6.6,1.9,13.7,1.9,20.3,0l2.7,9.2h14.5L269.1,11.7z M260.8,47.2
			c-2.4,0-4.7-0.3-7-1l7-23.8l7,23.8C265.5,46.9,263.1,47.2,260.8,47.2L260.8,47.2z"/>
		<path class="st0" d="M464.4,11.7h-16.7l-19,54.4h14.5l2.7-9.2c6.6,1.9,13.7,1.9,20.3,0l2.7,9.2h14.5L464.4,11.7z M456.1,47.2
			c-2.4,0-4.7-0.3-7-1l7-23.8l7,23.8C460.8,46.9,458.4,47.2,456.1,47.2L456.1,47.2z"/>
	</g>
</g>
</svg>
