<svg version="1.1" xmlns="http://www.w3.org/2000/svg" xmlns:xlink="http://www.w3.org/1999/xlink">
      <path d="M63.203118 32.25057h.321357l.442952 1.207887h.008685l.425581-1.207886h.312672v1.46672h-.208448v-1.19926h-.008685l-.442952 1.19926h-.199762l-.434266-1.19926h-.008686v1.19926h-.208448v-1.46672zm-.104224 0v.172556h-.503749v1.294164h-.208447v-1.294164h-.50375v-.172555h1.215947zm1.615471-21.681563c0-.76787-.625343-1.38907-1.398337-1.38907s-1.407023.6212-1.407023 1.38907v2.93344c0 .76787.634029 1.397696 1.407023 1.397696s1.398337-.629826 1.398337-1.397697v-2.933439zm-7.71257-3.839353c0-.772185-.625343-1.396835-1.424393-1.396835-.772994 0-1.398337.62465-1.398337 1.396835v6.772792c0 .76787.625343 1.397697 1.398337 1.397697.79905 0 1.424394-.629826 1.424394-1.397697V6.729654zM49.26317 1.466719c0-.768733-.625344-1.393383-1.398338-1.393383-.772994 0-1.407022.62465-1.407022 1.393383v14.813866c0 .776499.634028 1.397697 1.407022 1.397697s1.398338-.621198 1.398338-1.397697V1.46672zm-7.72994 5.262935c0-.772185-.625344-1.396835-1.407023-1.396835-.772994 0-1.398338.62465-1.398338 1.396835v6.772792c0 .76787.625344 1.397697 1.398338 1.397697.78168 0 1.407023-.629826 1.407023-1.397697V6.729654zm-7.72994 3.839353c0-.76787-.63403-1.38907-1.407023-1.38907-.772995 0-1.407023.6212-1.407023 1.38907v2.93344c0 .76787.634028 1.397696 1.407023 1.397696.772994 0 1.407022-.629826 1.407022-1.397697v-2.933439zm-7.721256-3.839353c0-.772185-.634028-1.396835-1.407022-1.396835-.78168 0-1.415709.62465-1.415709 1.396835v6.772792c0 .76787.63403 1.397697 1.415709 1.397697.772994 0 1.407022-.629826 1.407022-1.397697V6.729654zm-7.72994-5.262935c0-.768733-.634029-1.393383-1.407023-1.393383-.781679 0-1.407022.62465-1.407022 1.393383v14.813866c0 .776499.625343 1.397697 1.407022 1.397697.772994 0 1.407023-.621198 1.407023-1.397697V1.46672zm-7.72994 5.262935c0-.772185-.634029-1.396835-1.407023-1.396835-.78168 0-1.407023.62465-1.407023 1.396835v6.772792c0 .76787.625344 1.397697 1.407023 1.397697.772994 0 1.407023-.629826 1.407023-1.397697V6.729654zm-7.733415 3.839353c0-.76787-.631423-1.38907-1.406154-1.38907-.7756 0-1.407891.6212-1.407891 1.38907v2.93344c0 .76787.632292 1.397696 1.407891 1.397696.774731 0 1.406154-.629826 1.406154-1.397697v-2.933439zm29.05589 14.52915c-.043426-.008628-1.242001-.336483-2.223443-.336483-1.129092 0-1.74575.370994-1.74575.914543 0 .672965.83379.914543 1.294113 1.061214l.78168.241578c1.841289.586688 2.683765 1.837713 2.683765 3.192271 0 2.804023-2.484003 3.744449-4.655335 3.744449-1.502561 0-2.91827-.26746-3.057234-.301972v-2.571073c.251874.069022 1.441764.42276 2.67508.42276 1.407023 0 2.058422-.414132 2.058422-1.043959 0-.569432-.55586-.897287-1.259372-1.11298-.173706-.060395-.434266-.138045-.607973-.19844-1.58073-.491782-2.892213-1.414952-2.892213-3.261293 0-2.087918 1.572044-3.485615 4.186327-3.485615 1.372281 0 2.67508.327855 2.761934.353738v2.381262zm21.01849.11216c-1.684953 0-2.926955 1.31142-2.926955 2.93344 0 1.622019 1.242002 2.933438 2.926955 2.933438s2.93564-1.31142 2.93564-2.933438c0-1.62202-1.250687-2.93344-2.93564-2.93344zm5.932078 2.93344c0 3.192271-2.475318 5.771972-5.932078 5.771972-3.45676 0-5.932078-2.5797-5.932078-5.771972s2.475318-5.7806 5.932078-5.7806c3.45676 0 5.932078 2.588328 5.932078 5.7806zm-44.434129-2.381263c-.11291-.060394-1.024868-.595315-2.37978-.595315-1.841289 0-3.109346 1.26828-3.109346 2.976578 0 1.65653 1.215946 2.976577 3.109347 2.976577 1.328855 0 2.258185-.526293 2.379779-.595315v2.993833c-.356098.103533-1.32017.396877-2.588227.396877-3.187515 0-5.97811-2.182824-5.97811-5.771972 0-3.338944 2.530035-5.7806 5.97811-5.7806 1.33754 0 2.318982.319227 2.588227.405504v2.993833zm29.58222 0c-.112908-.060394-1.024868-.595315-2.379778-.595315-1.832604 0-3.100662 1.26828-3.100662 2.976578 0 1.65653 1.215946 2.976577 3.100662 2.976577 1.328854 0 2.258184-.526293 2.379779-.595315v2.993833c-.347413.103533-1.32017.396877-2.579542.396877-3.187515 0-5.98419-2.182824-5.98419-5.771972 0-3.338944 2.52743-5.7806 5.98419-5.7806 1.328855 0 2.318982.319227 2.579542.405504v2.993833zM21.192197 33.71729H18.36078V22.561595h2.831416V33.71729z"></path>
    </svg>