<?xml version="1.0" encoding="utf-8"?>
<!-- Generator: Adobe Illustrator 21.0.2, SVG Export Plug-In . SVG Version: 6.00 Build 0)  -->
<svg version="1.1" id="svg3358" xmlns:svg="http://www.w3.org/2000/svg"
	 xmlns="http://www.w3.org/2000/svg" xmlns:xlink="http://www.w3.org/1999/xlink" x="0px" y="0px" viewBox="0 0 72 38"
	 style="enable-background:new 0 0 72 38;" xml:space="preserve">
<style type="text/css">
	.st0{fill:#939B9E;}
	.st1{fill:#8A9296;}
</style>
<path id="path268" class="st0" d="M23.5,25.2h-3.2v12.5h3.2V25.2z"/>
<g id="use360" transform="translate(32.9532)">
	<path id="path284" class="st0" d="M49,28.8c-0.1-0.1-1.1-0.7-2.7-0.7c-2,0-3.5,1.4-3.5,3.3c0,1.9,1.4,3.3,3.5,3.3
		c1.5,0,2.5-0.6,2.7-0.7v3.4c-0.4,0.1-1.5,0.4-2.9,0.4c-3.5,0-6.7-2.4-6.7-6.5c0-3.7,2.8-6.5,6.7-6.5c1.5,0,2.6,0.4,2.9,0.4V28.8z"
		/>
</g>
<path id="path284_1_" class="st0" d="M16,28.8c-0.1-0.1-1.1-0.7-2.7-0.7c-2,0-3.5,1.4-3.5,3.3c0,1.9,1.4,3.3,3.5,3.3
	c1.5,0,2.5-0.6,2.7-0.7v3.4c-0.4,0.1-1.5,0.4-2.9,0.4c-3.5,0-6.7-2.4-6.7-6.5c0-3.7,2.8-6.5,6.7-6.5c1.5,0,2.6,0.4,2.9,0.4V28.8z"/>
<path id="path288" class="st0" d="M58.9,28.2c-1.9,0-3.3,1.5-3.3,3.3c0,1.8,1.4,3.3,3.3,3.3c1.9,0,3.3-1.5,3.3-3.3
	C62.2,29.7,60.8,28.2,58.9,28.2 M65.5,31.5c0,3.6-2.8,6.5-6.6,6.5s-6.6-2.9-6.6-6.5c0-3.6,2.8-6.5,6.6-6.5S65.5,27.9,65.5,31.5"/>
<path id="path292" class="st0" d="M35.5,28.1c0,0-1.4-0.4-2.5-0.4c-1.3,0-2,0.4-2,1c0,0.8,0.9,1,1.4,1.2l0.9,0.3c2,0.7,3,2.1,3,3.6
	c0,3.1-2.8,4.2-5.2,4.2c-1.7,0-3.3-0.3-3.4-0.3v-2.9c0.3,0.1,1.6,0.5,3,0.5c1.6,0,2.3-0.5,2.3-1.2c0-0.6-0.6-1-1.4-1.2
	c-0.2-0.1-0.5-0.2-0.7-0.2c-1.8-0.6-3.2-1.6-3.2-3.7c0-2.3,1.8-3.9,4.7-3.9c1.5,0,3,0.4,3.1,0.4V28.1z"/>
<g id="g383">
	<path id="path296" class="st1" d="M3.1,11.8c0-0.9-0.7-1.6-1.6-1.6S0,10.9,0,11.8v3.3c0,0.9,0.7,1.6,1.6,1.6s1.6-0.7,1.6-1.6V11.8z
		"/>
	<path id="path300" class="st1" d="M11.7,7.5c0-0.9-0.7-1.6-1.6-1.6c-0.9,0-1.6,0.7-1.6,1.6v7.6c0,0.9,0.7,1.6,1.6,1.6
		c0.9,0,1.6-0.7,1.6-1.6V7.5z"/>
	<path id="path304" class="st1" d="M20.4,1.6c0-0.9-0.7-1.6-1.6-1.6c-0.9,0-1.6,0.7-1.6,1.6v16.6c0,0.9,0.7,1.6,1.6,1.6
		c0.9,0,1.6-0.7,1.6-1.6V1.6z"/>
	<path id="path308" class="st1" d="M29,7.5c0-0.9-0.7-1.6-1.6-1.6c-0.9,0-1.6,0.7-1.6,1.6v7.6c0,0.9,0.7,1.6,1.6,1.6
		c0.9,0,1.6-0.7,1.6-1.6V7.5z"/>
	<path id="path312" class="st1" d="M37.6,11.8c0-0.9-0.7-1.6-1.6-1.6c-0.9,0-1.6,0.7-1.6,1.6v3.3c0,0.9,0.7,1.6,1.6,1.6
		c0.9,0,1.6-0.7,1.6-1.6V11.8z"/>
</g>
<g id="use385" transform="translate(34.4317)">
	<g id="g383_1_">
		<path id="path296_1_" class="st1" d="M37.6,11.8c0-0.9-0.7-1.6-1.6-1.6s-1.6,0.7-1.6,1.6v3.3c0,0.9,0.7,1.6,1.6,1.6
			s1.6-0.7,1.6-1.6V11.8z"/>
		<path id="path300_1_" class="st1" d="M46.2,7.5c0-0.9-0.7-1.6-1.6-1.6c-0.9,0-1.6,0.7-1.6,1.6v7.6c0,0.9,0.7,1.6,1.6,1.6
			c0.9,0,1.6-0.7,1.6-1.6V7.5z"/>
		<path id="path304_1_" class="st1" d="M54.8,1.6c0-0.9-0.7-1.6-1.6-1.6c-0.9,0-1.6,0.7-1.6,1.6v16.6c0,0.9,0.7,1.6,1.6,1.6
			c0.9,0,1.6-0.7,1.6-1.6V1.6z"/>
		<path id="path308_1_" class="st1" d="M63.4,7.5c0-0.9-0.7-1.6-1.6-1.6c-0.9,0-1.6,0.7-1.6,1.6v7.6c0,0.9,0.7,1.6,1.6,1.6
			c0.9,0,1.6-0.7,1.6-1.6V7.5z"/>
		<path id="path312_1_" class="st1" d="M72,11.8c0-0.9-0.7-1.6-1.6-1.6c-0.9,0-1.6,0.7-1.6,1.6v3.3c0,0.9,0.7,1.6,1.6,1.6
			c0.9,0,1.6-0.7,1.6-1.6V11.8z"/>
	</g>
</g>
<path id="path332" class="st0" d="M70.2,36.1v0.2h-0.6v1.5h-0.2v-1.5h-0.6v-0.2H70.2z"/>
<path id="path336" class="st0" d="M70.3,36.1h0.4l0.5,1.4h0l0.5-1.4H72v1.6h-0.2v-1.3h0l-0.5,1.3H71l-0.5-1.3h0v1.3h-0.2L70.3,36.1z
	"/>
</svg>
