<?xml version="1.0" encoding="utf-8"?>
<!-- Generator: Adobe Illustrator 21.0.2, SVG Export Plug-In . SVG Version: 6.00 Build 0)  -->
<svg version="1.1" id="svg38898" xmlns:svg="http://www.w3.org/2000/svg"
	 xmlns="http://www.w3.org/2000/svg" xmlns:xlink="http://www.w3.org/1999/xlink" x="0px" y="0px" viewBox="0 0 112 44.8"
	 style="enable-background:new 0 0 112 44.8;" xml:space="preserve">
<style type="text/css">
	.st0{fill:#8A9296;}
</style>
<g id="g38907" transform="matrix(1.25,0,0,-1.25,-539.88561,154.39707)">
	<g id="XMLID_1_">
		<g>
			<path class="st0" d="M518.5,114.6c1.2,0,2.2-1,2.2-2.2s-1-2.2-2.2-2.2c-1.2,0-2.2,1-2.2,2.2C516.3,113.7,517.3,114.6,518.5,114.6
				z M520.4,112.5c0,1-0.8,1.9-1.9,1.9s-1.9-0.9-1.9-1.9c0-1,0.8-1.9,1.9-1.9C519.6,110.6,520.4,111.4,520.4,112.5z"/>
			<path class="st0" d="M519.5,111.3h-0.4c0,0.1,0,0.2,0,0.3c0,0.5-0.2,0.6-0.6,0.6H518v-1h-0.4v2.4h0.8c0.5,0,1-0.1,1-0.7
				c0-0.4-0.3-0.5-0.6-0.6c0.4-0.1,0.5-0.3,0.5-0.7C519.5,111.5,519.5,111.3,519.5,111.3z M519.1,113c0,0.3-0.2,0.4-0.6,0.4H518
				v-0.9h0.4C518.9,112.5,519.1,112.7,519.1,113z"/>
			<polygon class="st0" points="509.4,106.3 515.6,96.6 509.1,96.6 506.1,101.9 502.3,96.6 495.8,96.6 503,106.3 497.5,114.6 
				504.1,114.6 506.2,110.8 508.7,114.6 515.3,114.6 			"/>
			<polygon class="st0" points="489.4,114.6 494.8,114.6 494.8,114.6 			"/>
			<path class="st0" d="M492.1,95c1.9,0,3.4-1.5,3.4-3.4s-1.5-3.4-3.4-3.4c-1.9,0-3.4,1.5-3.4,3.4C488.7,93.5,490.3,95,492.1,95z"/>
			<path class="st0" d="M482.7,103.7l5.5-7.2h-6.8l-3.4,5.4v-5.4h-5.4v18h7.1c2.1,0,3.8-0.6,4.9-1.7c1-1,1.5-2.4,1.5-4
				C486.1,106.4,484.8,104.4,482.7,103.7z M481.2,108.6c0,0.6-0.2,1.1-0.5,1.4c-0.6,0.6-1.9,0.7-2.8,0.7v-4.2
				C480.3,106.5,481.2,107.1,481.2,108.6z"/>
			<polygon class="st0" points="471.1,114.6 471.1,109.9 467,109.9 467,96.6 461.6,96.6 461.6,109.9 457.5,109.9 457.5,114.6 			"/>
			<polygon class="st0" points="456,114.6 456,96.6 450.6,96.6 450.6,99 450.6,112.1 450.6,114.6 			"/>
			<path class="st0" d="M453.3,122.9c1.9,0,3.4-1.5,3.4-3.4c0-1.9-1.5-3.4-3.4-3.4c-1.9,0-3.4,1.5-3.4,3.4
				C449.9,121.3,451.5,122.9,453.3,122.9z"/>
			<path class="st0" d="M449,112.1l-2.8-4.6c-0.8,1.3-2.4,2.2-4,2.2c-2.3,0-3.9-1.8-3.9-4.1s1.7-4.1,3.9-4.1c1.6,0,3.2,0.9,4,2.2
				L449,99c-1.7-1.8-4.1-2.9-6.8-2.9c-5.2,0-9.4,4.2-9.4,9.4c0,5.2,4.2,9.5,9.4,9.5C444.8,115,447.3,113.9,449,112.1z"/>
		</g>
	</g>
</g>
<polygon class="st0" points="78.7,11.2 78.7,33.7 71.9,33.7 71.9,30.6 71.9,14.3 71.9,11.2 "/>
</svg>
