<svg version="1.1" xmlns="http://www.w3.org/2000/svg" xmlns:xlink="http://www.w3.org/1999/xlink" x="0px" y="0px" viewBox="0 0 658.2 146">
      <path d="M141.28 75.33V53h-19.64v22.33h-10V22.38h10v21.78h19.64V22.38h10v52.95zM187.94 75.33H180l-.72-2.62a21.17 21.17 0 0 1-11.53 3.42c-7.08 0-10.1-4.85-10.1-11.53 0-7.87 3.42-10.89 11.29-10.89h9.3v-4.06c0-4.29-1.19-5.8-7.39-5.8A54.14 54.14 0 0 0 160.12 45l-1.19-7.39a50.51 50.51 0 0 1 13.28-1.83c12.16 0 15.74 4.29 15.74 14zm-9.7-14.63h-7.15c-3.18 0-4.05.87-4.05 3.82 0 2.7.87 3.9 3.9 3.9a15.26 15.26 0 0 0 7.31-2zM206.71 76.12a45.63 45.63 0 0 1-13.36-2.23l1.35-7.39a43.34 43.34 0 0 0 11.53 1.67c4.29 0 4.93-1 4.93-3.9 0-2.38-.48-3.58-6.76-5.09-9.46-2.31-10.57-4.69-10.57-12.16 0-7.79 3.42-11.21 14.47-11.21a51 51 0 0 1 11.61 1.35l-1 7.71a68.16 68.16 0 0 0-10.65-1.11c-4.21 0-4.93 1-4.93 3.34 0 3.1.24 3.34 5.49 4.69 10.84 2.87 11.88 4.3 11.88 12.21 0 7.51-2.31 12.12-13.99 12.12zM249.56 75.33v-27c0-2.07-.87-3.1-3.1-3.1-2.38 0-6.6 1.43-10.1 3.26v26.84h-9.7V20.79l9.7-1.35v20.11a34.17 34.17 0 0 1 14.15-3.74c6.44 0 8.74 4.53 8.74 11.45v28.07zM266.41 31.13V19.92h9.7v11.21zm0 44.2V36.61h9.7v38.72zM282.87 36.93c0-9.7 5.64-15.34 18.84-15.34a59.93 59.93 0 0 1 14.39 1.75L315 32a78.08 78.08 0 0 0-13-1.35c-6.92 0-9.14 2.39-9.14 8V59c0 5.64 2.23 8 9.14 8a78.08 78.08 0 0 0 13-1.35l1.11 8.67a59.93 59.93 0 0 1-14.39 1.75c-13.2 0-18.84-5.64-18.84-15.34zM336 76.12c-13.28 0-16.85-7.31-16.85-15.26v-9.78c0-7.95 3.58-15.26 16.85-15.26s16.85 7.31 16.85 15.26v9.78c-.03 7.95-3.6 15.26-16.85 15.26zm0-32c-5.17 0-7.15 2.31-7.15 6.68v10.38c0 4.37 2 6.68 7.15 6.68s7.15-2.31 7.15-6.68V50.76c-.02-4.37-2.01-6.68-7.15-6.68zM378.58 44.72a75.92 75.92 0 0 0-10.26 5.64v25h-9.7V36.61h8.19l.64 4.29a43.38 43.38 0 0 1 10.18-5.09zM415.36 62.45c0 8.59-3.82 13.67-12.8 13.67A53.48 53.48 0 0 1 392.22 75v16l-9.7 1.35V36.61h7.71l1 3.26a20.38 20.38 0 0 1 12.24-4.05c7.79 0 11.92 4.61 11.92 13.44zm-23.13 4.37a43 43 0 0 0 8.59 1c3.5 0 4.85-1.67 4.85-5.17V49c0-3.18-1.19-4.93-4.77-4.93a13.72 13.72 0 0 0-8.67 3.5zM38.22 0L0 22.05V75l14.36 8.29V30.34l23.86-13.78V0z"></path>
      <path d="M53.47 0v42.17H38.22V26.43l-14.36 8.29v54.03l14.36 8.31V55.01h15.25v15.63l14.36-8.28V8.29L53.47 0z"></path>
      <path d="M53.47 97.08l38.22-22.05V22.08l-14.36-8.29v52.95L53.47 80.52v16.56z"></path>
    </svg>