<?xml version="1.0" encoding="utf-8"?>
<!-- Generator: Adobe Illustrator 21.0.2, SVG Export Plug-In . SVG Version: 6.00 Build 0)  -->
<svg version="1.1" id="Layer_1" xmlns="http://www.w3.org/2000/svg" xmlns:xlink="http://www.w3.org/1999/xlink" x="0px" y="0px"
	 viewBox="0 0 612 792" style="enable-background:new 0 0 612 792;" xml:space="preserve">
<style type="text/css">
	.st0{fill:#8A9296;}
</style>
<path class="st0" d="M50.8,20.7L57,9.9c1.8-3.1,0.7-7.2-2.4-9c-3.1-1.8-7.2-0.7-9,2.4l-6.2,10.8C26.2,9.9,11.3,15.3,4.1,27.9
	c-4.6,8-5.2,17.1-2.4,25.2l11.5-19.9c2.6-4.6,6.9-7.8,12-9.2c5.1-1.4,10.4-0.7,15,2c9.4,5.4,12.7,17.6,7.2,27
	c-5.4,9.4-17.5,12.7-27,7.2L27,48.7c3.1,1.8,7.2,0.7,9-2.4c1.8-3.2,0.7-7.2-2.4-9s-7.2-0.7-9,2.4l-21,36.4c-1.8,3.2-0.7,7.2,2.4,9
	s7.2,0.7,9-2.4l6.2-10.8c13.2,4.2,28.1-1.2,35.3-13.8C63.8,45.6,61,30.1,50.8,20.7z M78.7,28.5h10.2c5.9,0,10.8,2.9,10.8,9.7
	S94.8,48,88.9,48h-4.2v9.5h-6V28.5z M88.7,42.7c2.9,0,4.8-1.3,4.8-4.5s-2-4.5-4.8-4.5h-4.1v9H88.7z M108.4,28.5h19.2v5.3h-13.2v6.7
	H126v5.1h-11.6v6.7h13.8v5.2h-19.8L108.4,28.5z M138.2,28.5h6v23.8h13.1v5.2h-19.1V28.5z M164,43c0-8.6,6.7-14.9,15-14.9
	c8.4,0,15,6.3,15,14.9s-6.6,14.9-15,14.9C170.7,57.9,164,51.6,164,43z M187.9,43c0-5.4-3.6-9.6-8.9-9.6c-5.3,0-8.9,4.1-8.9,9.6
	c0,5.4,3.6,9.6,8.9,9.6C184.3,52.6,187.9,48.4,187.9,43z M208.7,33.7h-8.3v-5.3H223v5.3h-8.3v23.8h-6V33.7z M229.4,43
	c0-8.6,6.7-14.9,15-14.9c8.4,0,15,6.3,15,14.9s-6.7,14.9-15,14.9C236,57.9,229.4,51.6,229.4,43z M253.2,43c0-5.4-3.6-9.6-8.9-9.6
	c-5.3,0-8.9,4.1-8.9,9.6c0,5.4,3.6,9.6,8.9,9.6C249.7,52.6,253.2,48.4,253.2,43z M277.6,44c-1.4-1.4-3.5-4-3.5-4s0.4,3.2,0.4,5.3
	v12.2H269V28.2h0.6L284.2,42c1.4,1.3,3.4,4,3.4,4s-0.4-3.3-0.4-5.3V28.5h5.6v29.3h-0.6L277.6,44z"/>
</svg>
