<svg id="logo-peloton" viewBox="0 0 293 86" width="100%" height="100%">
      <path d="M50.8 20.7L57 9.9c1.8-3.1.7-7.2-2.4-9-3.1-1.8-7.2-.7-9 2.4l-6.2 10.8C26.2 9.9 11.3 15.3 4.1 27.9c-4.6 8-5.2 17.1-2.4 25.2l11.5-19.9c2.6-4.6 6.9-7.8 12-9.2 5.1-1.4 10.4-.7 15 2 9.4 5.4 12.7 17.6 7.2 27-5.4 9.4-17.5 12.7-27 7.2L27 48.7c3.1 1.8 7.2.7 9-2.4 1.8-3.2.7-7.2-2.4-9-3.1-1.8-7.2-.7-9 2.4l-21 36.4c-1.8 3.2-.7 7.2 2.4 9 3.1 1.8 7.2.7 9-2.4l6.2-10.8c13.2 4.2 28.1-1.2 35.3-13.8 7.3-12.5 4.5-28-5.7-37.4zM78.7 28.5h10.2c5.9 0 10.8 2.9 10.8 9.7 0 6.8-4.9 9.8-10.8 9.8h-4.2v9.5h-6v-29zm10 14.2c2.9 0 4.8-1.3 4.8-4.5s-2-4.5-4.8-4.5h-4.1v9h4.1zM108.4 28.5h19.2v5.3h-13.2v6.7H126v5.1h-11.6v6.7h13.8v5.2h-19.8zM138.2 28.5h6v23.8h13.1v5.2h-19.1zM164 43c0-8.6 6.7-14.9 15-14.9 8.4 0 15 6.3 15 14.9 0 8.6-6.6 14.9-15 14.9-8.3 0-15-6.3-15-14.9zm23.9 0c0-5.4-3.6-9.6-8.9-9.6-5.3 0-8.9 4.1-8.9 9.6 0 5.4 3.6 9.6 8.9 9.6 5.3 0 8.9-4.2 8.9-9.6zM208.7 33.7h-8.3v-5.3H223v5.3h-8.3v23.8h-6zM229.4 43c0-8.6 6.7-14.9 15-14.9 8.4 0 15 6.3 15 14.9 0 8.6-6.7 14.9-15 14.9-8.4 0-15-6.3-15-14.9zm23.8 0c0-5.4-3.6-9.6-8.9-9.6-5.3 0-8.9 4.1-8.9 9.6 0 5.4 3.6 9.6 8.9 9.6 5.4 0 8.9-4.2 8.9-9.6zM277.6 44c-1.4-1.4-3.5-4-3.5-4s.4 3.2.4 5.3v12.2H269V28.2h.6L284.2 42c1.4 1.3 3.4 4 3.4 4s-.4-3.3-.4-5.3V28.5h5.6v29.3h-.6L277.6 44z"></path>
    </svg>