<svg xmlns="http://www.w3.org/2000/svg" viewBox="0 0 413 263">
  <g fill="none" fill-rule="evenodd">
    <path stroke="#F1F1F1" stroke-width="9.817" d="M221.31 64.644h69.98c8.426 0 15.255 6.837 15.255 15.27v19.6m-197.639-.054V79.906c0-8.434 6.83-15.27 15.255-15.27h64.888M205.41.842v47.25c0 12.53 7.398 16.545 16.525 16.545h14.133"/>
    <path stroke="#F1F1F1" stroke-width="9.817" d="M205.41 35.84v12.252c0 12.532-7.4 16.545-16.527 16.545h-5.93"/>
    <path stroke="#D8DBDC" stroke-linecap="round" stroke-width=".654" d="M175.585 262.405H45.495A6.359 6.359 0 0 1 39.139 256l1.185-150.778a6.359 6.359 0 0 1 6.414-6.32l128.902 1.16a6.357 6.357 0 0 1 6.3 6.36v149.62a6.36 6.36 0 0 1-6.357 6.363zm-174.582-.009H412.04M40.69 114.742h141.256m-25.159 9.468h8.602m-21.144 0h8.666m-22.974 0h10.328m-23.993 0h8.542m-68.574 0h9.342"/>
    <path fill="#E7655B" fill-rule="nonzero" d="M51.064 106.777a2.855 2.855 0 0 1-2.853 2.857 2.854 2.854 0 0 1-2.85-2.857 2.853 2.853 0 0 1 2.85-2.856 2.856 2.856 0 0 1 2.854 2.857"/>
    <path fill="#F4BF12" fill-rule="nonzero" d="M61.95 106.777a2.856 2.856 0 0 1-2.854 2.857 2.857 2.857 0 0 1 0-5.713 2.856 2.856 0 0 1 2.854 2.857"/>
    <path fill="#00C6B6" fill-rule="nonzero" d="M72.836 106.777a2.855 2.855 0 0 1-2.853 2.857 2.855 2.855 0 0 1-2.852-2.857 2.855 2.855 0 0 1 2.853-2.856 2.855 2.855 0 0 1 2.853 2.857"/>
    <path fill="#D8DBDC" fill-rule="nonzero" d="M167.707 110.03h-82.95a2.721 2.721 0 0 1-2.708-2.49 2.72 2.72 0 0 1 2.726-2.954l82.95.574a2.431 2.431 0 0 1 2.412 2.435 2.432 2.432 0 0 1-2.43 2.435"/>
    <path fill="#F1F1F1" fill-rule="nonzero" d="M163.535 179.686L56.963 178.66l-1.1-45.54 108.292 1.453"/>
    <path fill="#F4BF12" fill-rule="nonzero" d="M124.914 153.3a3.42 3.42 0 0 0 2.046-4.375 3.414 3.414 0 0 0-4.37-2.05 4.037 4.037 0 0 0-.19.083c-3.758-4.005-10.038-5.53-15.97-3.38-5.93 2.15-9.78 7.346-10.104 12.83-.066.02-.133.037-.198.06a3.417 3.417 0 0 0-2.047 4.375 3.412 3.412 0 0 0 4.672 1.923c3.778 3.84 9.938 5.27 15.762 3.16 5.824-2.11 9.642-7.157 10.087-12.53.107-.028.21-.06.314-.096"/>
    <path stroke="#FFF" stroke-linecap="round" stroke-width=".654" d="M101.29 153.49c2.285-4.885 7.387-6.885 13.487-5.584"/>
    <path fill="#4B4C4B" fill-rule="nonzero" d="M59.28 137.702a.892.892 0 0 1 0-1.787c.492 0 .89.4.89.893s-.398.892-.89.892m100.95 1.296a.9.9 0 1 1 .002-.001m-.48 38.265a.85.85 0 1 1-.001-1.699.85.85 0 0 1 .001 1.699"/>
    <path stroke="#4B4C4B" stroke-linecap="round" stroke-width=".654" d="M59.182 136.81h.983"/>
    <path fill="#4B4C4B" fill-rule="nonzero" d="M59.705 176.694a.944.944 0 1 1 .001.002"/>
    <path stroke="#4B4C4B" stroke-linecap="round" stroke-width=".654" d="M59.9 175.558l1.796-.497m98.054 1.347l-.763-.373m1.133-37.851l-.763.907"/>
    <path fill="#7E9CF1" fill-rule="nonzero" d="M97.48 262.4H57.878v-68.753H98.74"/>
    <path fill="#F1F1F1" d="M166.835 200.432H108.91v34.996h57.925z"/>
    <path fill="#F1F1F1" fill-rule="nonzero" d="M92.675 230.676H63.31l-.107-29.544 29.366-.23"/>
    <path fill="#F8DE70" fill-rule="nonzero" d="M168.61 193.214l-61.653-.003c0 1.358.19 6.62.303 9.58a4.143 4.143 0 0 0 1.954 3.372c1.173.727 2.69 1.484 3.907 1.484a7.379 7.379 0 0 0 6.167-3.325 7.379 7.379 0 0 0 12.331.001 7.378 7.378 0 0 0 6.166 3.326 7.38 7.38 0 0 0 6.165-3.325 7.375 7.375 0 0 0 12.33.001 7.38 7.38 0 0 0 9.718 2.414c1.67-.922 2.612-2.774 2.612-4.684v-8.836"/>
    <path stroke="#F4BF12" stroke-linecap="round" stroke-width=".654" d="M131.625 204.324v-11.098m-12.335-.001v11.098m36.996-.001v-11.095m-11.728-.007l-.605 11.098"/>
    <path stroke="#4B4C4B" stroke-linecap="round" stroke-width=".654" d="M106.955 193.212l62.78.002"/>
    <path fill="#4B4C4B" fill-rule="nonzero" d="M94.107 235.43a1.07 1.07 0 1 1-2.142 0 1.072 1.072 0 1 1 2.142-.001"/>
    <path stroke="#4B4C4B" stroke-linecap="round" stroke-width=".654" d="M93.658 235.43h-2.613"/>
    <path fill="#D8DBDC" fill-rule="nonzero" d="M111.674 235.43c-.236-2.428-.33-4.872-.375-7.31-.017-.934-.016-1.89.306-2.766.45-1.22 1.46-2.124 2.36-3.06.167-.173.335-.356.41-.584.082-.24.05-.5.02-.75l-.313-2.48c-.072-.574-.145-1.162-.027-1.728.256-1.25 1.35-2.125 2.37-2.89l.267.78c.754.01 1.507.016 2.26.023.008.2.013.4.02.602.39.082.765.235 1.1.45-.44.1-.515.692-.49 1.145.06 1.15.12 2.3.182 3.45.014.285.035.587.198.82.176.25.474.37.745.506a4.534 4.534 0 0 1 2.368 3.144c.105.543.106 1.1.107 1.654l.022 8.994h-11.53zm52.926-7.31c-.04 2.438.224 4.88.003 7.307H153.79l.02-7.98c0-.775.205-1.6.684-2.21.478-.607 1.126-1.06 1.782-1.47.13-.08.27-.17.328-.313.05-.118.033-.253.018-.38-.05-.388-.1-.778-.205-1.156-.172-.624-.49-1.2-.66-1.825a4.146 4.146 0 0 1 .624-3.452c.297-.408.675-.768 1.133-.978.457-.21 1-.26 1.468-.074.35.138.65.4 1.014.495.347.09.718.018 1.07.08.834.14 1.384.985 1.523 1.818.14.835-.025 1.685-.068 2.527-.01.148-.014.3-.07.436-.05.128-.143.236-.23.344-.3.373-.556.783-.758 1.218-.11.24-.207.505-.147.763.07.304.343.514.597.697.705.508 1.426 1.02 1.957 1.707.53.688.746 1.58.73 2.447m-94.837-10.849c-.15.3-.408.444-.64.61-1.046.736-2.532 2.177-2.75 3.785-.09.655-.093 1.326-.094 1.992-.006 3.69-.013 3.322-.02 7.014h9.93c.204-2.924.285-2.05.324-4.987.014-1.123.014-2.277-.265-3.332-.388-1.468-1.818-2.558-2.593-3.683-.143-.21-.288-.43-.355-.705-.068-.288-.042-.6-.015-.902.365-.182.742-.582.888-.962.23-.596.15-1.376.665-1.754.064-.047.134-.085.188-.143.14-.143.142-.376.07-.562-.074-.186-.208-.34-.324-.502-.488-.676-.68-1.516-1.026-2.274-.346-.76-.944-1.507-1.77-1.61-.243-.03-.51.005-.694.165-.06.052-.11.116-.18.155a.542.542 0 0 1-.282.05c-.587-.006-1.27-.16-1.69.253-.108.106-.184.242-.28.36-.258.323-.66.532-.843.904-.375.767.393 1.658.238 2.5-.084.453-.432.837-.456 1.298-.023.458.275.863.56 1.222.244.308.546.643.936.63.163-.004.453.314.475.475m18.507 2.356c.456-1.05 1.175-1.537.778-2.53-.108-.27-.237-.53-.315-.81-.317-1.11.145-2.477-.53-3.384-2.965-4.002-2.41-2.38-3.587-2.41-.198-.006-.323-.23-.493-.343-.525-.353-.972.253-1.478.526-.462.25-.798.385-.687 1.124.047.32.218.663.366.946-.81 1.112-1.053 2.62-.776 4.004.16.798.28 2.024.584 2.867-.673.822-1.434 1.683-1.693 2.744-.258 1.054-.26 2.207-.245 3.33.035 2.938.11 2.064.298 4.988h9.2c-.016-9.035.703-9.435-1.42-11.05m37.767 15.807c-.217-2.395.705-5.293.977-7.682.265-2.312 1.79-2.247.206-6.407-.313-.82.763-1.517 1.292-2.214.118-.156.227-.326.256-.52.06-.42-.273-.796-.34-1.217-.1-.644.427-1.2.908-1.636.31-.28.627-.567 1.002-.753.376-.184.827-.26 1.215-.103.464.188 1.016.03 1.505-.08.49-.107 1.123-.06 1.325.398.078.18.07.384.12.574.156.58.803.858 1.22 1.295.36.373.553.9.527 1.416-.022.42-.185.833-.146 1.253.07.796.834 1.432.806 2.23-.02.538-.393.986-.72 1.414-.325.428-.635.954-.5 1.475.077.295.313.586.215.874-.58 1.67 1.65 3.77 1.2 9.684h-11.07zm18.558-12.327c.146.15.327.263.467.42.14.155.355.668.282.866-2.386 1.162-2.294 1.504-2.52 2.137-.984 2.78-1.537 5.955-1.63 8.903h9.58c-.685-8.94 1.286-9.42-1.515-11.405-.227-.16-.463-.5-.453-.777a.95.95 0 0 1 .38-.71c.083-.06.176-.106.25-.18a.502.502 0 0 0 .125-.502c.256-.012.49-.18.624-.398.135-.22.18-.483.175-.74-.003-.092-.01-.19.035-.27.033-.06.092-.1.14-.148.157-.162.195-.403.188-.628-.007-.224-.052-.45-.03-.672.022-.204.098-.403.084-.607a.717.717 0 0 0-.705-.646.81.81 0 0 0-.253-.644.812.812 0 0 0-.664-.197c.012-.185-.11-.357-.264-.458-.154-.1-.337-.146-.515-.194a.377.377 0 0 1-.182-.087c-.044-.043-.065-.107-.096-.162-.084-.15-.25-.245-.42-.285-.17-.04-.344-.032-.52-.026-.057 0-.116.002-.17-.02-.054-.025-.096-.07-.144-.104-.16-.117-.39-.1-.562-.004-.173.095-.337.3-.447.464-.17-.017-.435.032-.54.163-.064.076-.113.176-.206.206-.05.014-.103.005-.154 0-.49-.073-1.19.32-1.14.816.01.098.042.198.025.298-.015.102-.076.188-.123.28-.087.168-.126.36-.113.548.007.113.033.232-.005.34-.03.08-.09.14-.142.208-.254.328-.29.81-.09 1.173a.976.976 0 0 0-.068 1.2c.04.056.09.11.105.18.022.114-.057.217-.106.32-.15.32.03.747.363.864.108.038.23.047.32.12.073.056.114.145.18.21.11.113.307.204.45.147"/>
    <path stroke="#587CCB" stroke-linecap="round" stroke-width=".654" d="M92.68 230.676H63.315V201.49"/>
    <path stroke="#D8DBDC" stroke-linecap="round" stroke-width=".654" d="M367.537 262.405h-130.09a6.359 6.359 0 0 1-6.356-6.405l1.187-150.778a6.359 6.359 0 0 1 6.414-6.32l128.904 1.16a6.357 6.357 0 0 1 6.3 6.36v149.62a6.36 6.36 0 0 1-6.357 6.363zM232.642 114.742h141.256m-25.158 9.468h8.602m-21.145 0h8.666m-22.973 0h10.328m-23.994 0h8.542m-68.574 0h9.342"/>
    <path fill="#E7655B" fill-rule="nonzero" d="M243.016 106.777a2.855 2.855 0 0 1-2.853 2.857 2.855 2.855 0 0 1-2.852-2.857 2.855 2.855 0 0 1 2.853-2.856 2.855 2.855 0 0 1 2.853 2.857"/>
    <path fill="#F4BF12" fill-rule="nonzero" d="M253.902 106.777a2.856 2.856 0 0 1-2.854 2.857 2.857 2.857 0 0 1 0-5.713 2.856 2.856 0 0 1 2.854 2.857"/>
    <path fill="#00C6B6" fill-rule="nonzero" d="M264.788 106.777a2.855 2.855 0 0 1-2.853 2.857 2.855 2.855 0 0 1-2.852-2.857 2.854 2.854 0 0 1 2.852-2.856 2.855 2.855 0 0 1 2.853 2.857"/>
    <path fill="#D8DBDC" fill-rule="nonzero" d="M359.66 110.03h-82.95a2.722 2.722 0 1 1 .018-5.444l82.95.574a2.431 2.431 0 0 1 2.412 2.435 2.432 2.432 0 0 1-2.43 2.435"/>
    <path fill="#F1F1F1" fill-rule="nonzero" d="M355.538 179.686l-106.572-1.026-1.1-45.54 108.29 1.453"/>
    <path fill="#F4BF12" fill-rule="nonzero" d="M316.866 153.3a3.42 3.42 0 0 0 2.046-4.375 3.414 3.414 0 0 0-4.37-2.05 4.037 4.037 0 0 0-.19.083c-3.758-4.005-10.038-5.53-15.97-3.38-5.93 2.15-9.78 7.346-10.104 12.83-.066.02-.133.037-.198.06a3.417 3.417 0 0 0-2.047 4.375 3.41 3.41 0 0 0 4.67 1.923c3.78 3.84 9.94 5.27 15.762 3.16 5.825-2.11 9.643-7.157 10.088-12.53.106-.028.21-.06.313-.096"/>
    <path stroke="#FFF" stroke-linecap="round" stroke-width=".654" d="M293.24 153.49c2.284-4.885 7.387-6.885 13.488-5.584"/>
    <path fill="#4B4C4B" fill-rule="nonzero" d="M251.233 137.702a.892.892 0 1 1 .001-.002m100.95 1.296a.9.9 0 1 1 .9-.901c0 .498-.402.9-.9.9m-.48 38.265a.85.85 0 1 1-.001-1.699.85.85 0 0 1 .001 1.699"/>
    <path stroke="#4B4C4B" stroke-linecap="round" stroke-width=".654" d="M251.135 136.81h.983"/>
    <path fill="#4B4C4B" fill-rule="nonzero" d="M251.658 176.694a.944.944 0 1 1 0-1.891.944.944 0 0 1 0 1.893"/>
    <path stroke="#4B4C4B" stroke-linecap="round" stroke-width=".654" d="M251.854 175.558l1.794-.497m98.052 1.346l-.762-.373m1.137-37.85l-.763.907"/>
    <path fill="#E7655B" fill-rule="nonzero" d="M291.776 262.4h-41.95v-68.753h40.864"/>
    <path fill="#F1F1F1" d="M358.787 200.432h-57.925v34.996h57.925z"/>
    <path fill="#F1F1F1" fill-rule="nonzero" d="M284.637 230.68H255.27l-.106-29.545 29.823-.233"/>
    <path fill="#F8DE70" fill-rule="nonzero" d="M360.563 193.214l-61.653-.003c0 1.358.19 6.62.302 9.58a4.142 4.142 0 0 0 1.955 3.372c1.173.727 2.69 1.484 3.907 1.484a7.377 7.377 0 0 0 6.166-3.325 7.379 7.379 0 0 0 12.331.001c1.325 2.003 3.59 3.326 6.167 3.326s4.84-1.323 6.165-3.325a7.378 7.378 0 0 0 12.331.001 7.38 7.38 0 0 0 9.716 2.414c1.672-.922 2.613-2.774 2.613-4.684v-8.836"/>
    <path stroke="#F4BF12" stroke-linecap="round" stroke-width=".654" d="M323.578 204.324v-11.098m-12.338-.001v11.098m37-.001v-11.095m-11.73-.005l-.605 11.098"/>
    <path stroke="#4B4C4B" stroke-linecap="round" stroke-width=".654" d="M298.907 193.212l62.78.002"/>
    <path fill="#4B4C4B" fill-rule="nonzero" d="M286.06 235.43a1.072 1.072 0 1 1-2.14-.001 1.072 1.072 0 0 1 2.138 0"/>
    <path stroke="#4B4C4B" stroke-linecap="round" stroke-width=".654" d="M285.61 235.43H283"/>
    <path fill="#D8DBDC" fill-rule="nonzero" d="M356.553 228.12c-.04 2.438.223 4.88.002 7.307h-10.813l.02-7.98c0-.775.203-1.6.684-2.21.478-.607 1.126-1.06 1.782-1.47.13-.08.27-.17.328-.313.05-.118.033-.253.018-.38-.05-.388-.1-.778-.205-1.156-.173-.624-.49-1.2-.66-1.825a4.138 4.138 0 0 1 .623-3.452c.296-.408.674-.768 1.132-.978.457-.21 1-.26 1.468-.074.35.138.65.4 1.013.495.347.09.718.018 1.07.08.834.14 1.384.985 1.523 1.818.14.835-.026 1.685-.07 2.527-.008.148-.012.3-.067.436-.052.128-.144.236-.23.344a5.904 5.904 0 0 0-.76 1.218c-.11.24-.206.505-.146.763.07.304.343.514.597.697.705.508 1.425 1.02 1.957 1.707.533.688.748 1.58.733 2.447m-41.549-3.741c.456-1.048 1.175-1.536.778-2.53-.107-.268-.236-.53-.314-.808-.317-1.11.145-2.478-.53-3.385-2.965-4.003-2.41-2.38-3.587-2.412-.2-.005-.324-.228-.494-.342-.525-.353-.972.253-1.478.526-.462.248-.798.384-.687 1.123.048.32.22.663.367.946-.812 1.11-1.054 2.62-.777 4.003.16.798.28 2.024.584 2.867-.674.822-1.434 1.683-1.693 2.743-.257 1.055-.258 2.208-.244 3.332.035 2.937.11 2.063.298 4.987h9.2c-.016-9.035.703-9.435-1.42-11.05"/>
    <path stroke="#B93535" stroke-linecap="round" stroke-width=".654" d="M284.632 230.676h-29.365V201.49"/>
  </g>
</svg>
