<svg aria-hidden="true" xmlns="http://www.w3.org/2000/svg" xmlns:xlink="http://www.w3.org/1999/xlink" width="294" height="270" viewBox="0 0 294 270">
  <defs>
    <rect id="core-3-rect" width="200" height="168" rx="8"></rect>
    <mask id="core-3-mask" fill="#fff">
      <use xlink:href="#core-3-rect"></use>
    </mask>
    <linearGradient id="core-3-gradient" x1="96.45346%" x2="73.037245%" y1="50%" y2="50%">
      <stop offset="0%" stop-color="#E9EBEB"></stop>
      <stop offset="100%" stop-color="#E9EBEB" stop-opacity="0"></stop>
    </linearGradient>
  </defs>
  <g fill="none" fill-rule="evenodd">
    <path fill="#0051C1" fill-opacity=".08" fill-rule="nonzero" d="M263 244c14-10 27-23 30-40 7-37-18-67-28-77-24-25-60-38-80-67-5-9-9-18-15-26A77 77 0 0 0 70 11C52 22 34 36 23 55 6 84-2 123 0 137c7 47 11 81 116 124 45 19 106 10 147-17" opacity=".640342"></path>
    <g transform="translate(33 40)">
      <use fill="#E9EBEB" xlink:href="#core-3-rect"></use>
      <path fill="#FFF" d="M0 132h201v24H0z" mask="url(#core-3-mask)"></path>
      <path fill="#0051C1" d="M0 132h6v24H0z" mask="url(#core-3-mask)"></path>
      <text fill="#7D8589" font-family="-apple-system, BlinkMacSystemFont, 'Segoe UI', Helvetica, Arial, sans-serif" font-size="13" mask="url(#core-3-mask)">
        <tspan x="16" y="29">2:30:40 PM git clone git@github</tspan> <tspan x="16" y="53">2:30:40 PM Preparing Git Repository</tspan> <tspan x="16" y="77">2:30:40 PM Starting to deploy</tspan> <tspan x="16" y="101">2:30:40 PM Starting post pro</tspan> <tspan x="16" y="125">2:30:41 PM Post processing </tspan> <tspan x="16" y="149" fill="#0E1E25">2:30:41 PM Site is live</tspan>
      </text>
      <rect width="200" height="132" fill="url(#core-3-gradient)" rx="8"></rect>
    </g>
  </g>
</svg>