<?xml version="1.0" encoding="utf-8"?>
<!-- Generator: Adobe Illustrator 21.0.2, SVG Export Plug-In . SVG Version: 6.00 Build 0)  -->
<svg version="1.1" id="_x30_cdb4e4d-471b-45ef-b32c-d90d48ef90fc"
	 xmlns="http://www.w3.org/2000/svg" xmlns:xlink="http://www.w3.org/1999/xlink" x="0px" y="0px" viewBox="0 0 1135.7 856.8"
	 style="enable-background:new 0 0 1135.7 856.8;" xml:space="preserve">
<style type="text/css">
	.st0{fill:#00AD9F;}
	.st1{fill:#444053;}
	.st2{fill:none;stroke:#444053;stroke-miterlimit:10;}
	.st3{fill:none;stroke:#444053;stroke-width:0.75;stroke-miterlimit:10;}
	.st4{opacity:0.1;fill:#00AD9F;enable-background:new    ;}
	.st5{fill:#DFE3EF;}
	.st6{fill:#FFFFFF;}
	.st7{fill:url(#SVGID_1_);}
	.st8{fill:#65617D;}
	.st9{opacity:0.1;enable-background:new    ;}
	.st10{fill:#FBBEBE;}
	.st11{fill:#E7EFFD;}
	.st12{fill:#3F3D56;}
	.st13{fill:#E3A79F;}
	.st14{opacity:0.1;}
	.st15{opacity:0.2;fill:#00AD9F;enable-background:new    ;}
	.st16{opacity:0.5;fill:#00AD9F;enable-background:new    ;}
	.st17{fill:url(#SVGID_2_);}
	.st18{fill:#2D293D;}
	.st19{fill:#575988;}
	.st20{opacity:5.000000e-02;enable-background:new    ;}
	.st21{opacity:5.000000e-02;}
	.st22{fill:#FFCDD3;}
	.st23{fill:#DCE6F2;}
	.st24{fill:#656691;}
	.st25{opacity:0.1;fill:#FFFFFF;enable-background:new    ;}
	.st26{fill:#EFB7B9;}
	.st27{fill:#925978;}
	.st28{fill:#4C4981;}
</style>
<title>data trends</title>
<path class="st0" d="M1044.7,223c0,0-14.1-5.7-58.8,14.8c-44.7,20.5-50.3,17.9-61.9,14.8s-18-3.9-30.5-21c0,0-8.8-47.5-17.2-54.8
	s-44.5,4.2-44.5,4.2s-43.2,9.9-51.4-47.8c0,0,5.8-43.5-2.1-56.8c0,0,16,6.9,42.5-4.3s47.7,12,47.7,12s6.7,17.3,6,27.6
	s3.5,14.2,16.2,9.2c0,0,6.2-8.8-2.6-23.4S873,71.9,875.4,60.6s9.5-27,32.2-34.9s53.4-9.4,68.2-15.5S994.2,0,994.2,0
	s-9.1,9.1,12.3,47.7c21.4,38.6,7.8,55.4,7.8,55.4s-11.4,27.2-61.7,24.9c0,0-48.5,1.8-22,22.3c0,0,16.9-3.4,42.2-11.5
	c25.3-8.1,43.6,25.2,48.1,48.3C1025.4,210.2,1044.7,223,1044.7,223z"/>
<path class="st1" d="M979.5,29.3l0.3-0.1c1.9,7.4-19.7,37-38.2,60.5l-0.2-0.2C967.4,56.4,981,35,979.5,29.3z"/>
<path class="st1" d="M941.7,89.1l0.1,0.3c-14.8,18.8-33.4,41.3-48.3,57.9c-1.4,1.6-2.8,3.2-4.2,4.9l-0.4-0.3c1.4-1.7,2.8-3.4,4.2-5
	C908,130.3,926.9,107.9,941.7,89.1z"/>
<path class="st1" d="M889.3,151.4l0.3,0.5c-27.1,33.8-28.9,86.4-29,86.8l-5.7-6.6C855,231.7,862,185.5,889.3,151.4z"/>
<path class="st2" d="M1013.2,204.6c0,0-32-16.6-56.9-10.6c-24.9,6-81-21.1-81-21.1s-23.8-9.7-28.6-20.7c0,0-16.3-17.3-17.3-26.2
	s-16.8-31.4-27.2-32.3"/>
<path class="st2" d="M1008.6,220.6c0,0-16.1-10.8-14.2-23.5"/>
<path class="st2" d="M983.9,234.6c0,0-23-8.4-25.3-41.1"/>
<path class="st2" d="M946.8,243.1c0,0-22-18.2-14.7-50.1"/>
<path class="st2" d="M902.2,234.2c0,0-14.7-30.7-1.6-50.7"/>
<path class="st2" d="M1013.6,184.4c0,0-16.6,5.3-13.1,14"/>
<path class="st2" d="M993.5,154.1c0,0-22.3,7.1-22.8,38.6"/>
<path class="st2" d="M962.5,146.9c0,0-20.3,25-18.8,47.8"/>
<path class="st2" d="M927,156.7c0,0-20.1,19.2-17.6,29.9"/>
<path class="st2" d="M914.8,149.9c0,0-18.9,3.4-21.5-2.8"/>
<path class="st2" d="M890.3,127.1c0,0,9.5,12.6,12,9.8"/>
<path class="st2" d="M984.8,119.1c0,0-47.6,3.4-58.3-10.9"/>
<path class="st2" d="M880.3,63.4c0,0,22.3,47.9,38.5,54"/>
<path class="st2" d="M903.7,40.6c0,0,13.7,44.1,30.7,57.8"/>
<path class="st3" d="M1004.8,82.7c0,0-36.2,15.5-57.9-0.2"/>
<path class="st3" d="M936,31.2c0,0,8.3,32.4,19.4,40.2"/>
<path class="st3" d="M999.4,46.4c0,0-20.3,7.7-27.9,1.8"/>
<path class="st2" d="M872.9,137.7c0,0-0.1,28.2-7.7,30.2"/>
<path class="st2" d="M810,174.3c0,0,30.5,2.6,44.6-13.1"/>
<path class="st2" d="M865,104.3c0,0-7.4,28.7-27.8,36.4"/>
<path class="st2" d="M791.7,144.1c0,0,21.6,7.5,40.2-11.6"/>
<path class="st2" d="M841,79.7c0,0-2,24.3-15.3,35.7"/>
<path class="st2" d="M792.5,107c0,0,17.9,0.1,22.2-5.7"/>
<ellipse class="st4" cx="159.7" cy="852.5" rx="25.6" ry="4.3"/>
<path class="st5" d="M911.4,142v420.7c0,10.8-8.7,19.5-19.5,19.5l0,0H212.8c-10.8,0-19.5-8.7-19.5-19.5c0,0,0,0,0,0V142
	c0-10.8,8.7-19.5,19.5-19.5c0,0,0,0,0,0h679.2C902.7,122.4,911.5,131.2,911.4,142C911.4,142,911.4,142,911.4,142z"/>
<circle class="st5" cx="212.8" cy="132.2" r="4.9"/>
<circle class="st5" cx="227.4" cy="132.2" r="4.9"/>
<circle class="st5" cx="242" cy="132.2" r="4.9"/>
<rect x="260.9" y="196" class="st6" width="579.6" height="338.7"/>
<linearGradient id="SVGID_1_" gradientUnits="userSpaceOnUse" x1="345.5943" y1="32.0519" x2="345.5943" y2="249.6513" gradientTransform="matrix(1 0 0 -1 604.25 834.43)">
	<stop  offset="0" style="stop-color:#808080;stop-opacity:0.25"/>
	<stop  offset="0.54" style="stop-color:#808080;stop-opacity:0.12"/>
	<stop  offset="1" style="stop-color:#808080;stop-opacity:0.1"/>
</linearGradient>
<path class="st7" d="M1002.3,653.3c0.2-0.6-1.4-3.8-1.4-3.9s-1.6-1.9-1.6-2.9s-2.2-3.2-2.2-3.2s-2.9-1.2-3.2-3.8s-3.5-2.7-3.5-2.7
	l0,0c0,0,0-0.2,0-0.6c0.1-1-0.1-2.1-0.4-3.1c-0.4-0.7-1-1.3-1.8-1.5c-0.1-1-0.5-1.9-1-2.7c-0.7-0.8-1-1.8-0.7-2.8
	c0.3-1-0.4-3.5-2-3.9s-3.3-0.9-3.3-0.9l-0.4,0.1l-0.2-0.1c-0.4,0.1-0.7,0.1-1.1,0.1c-0.3,0-0.6-0.1-0.9-0.3
	c-0.5-0.6-4.8-1.7-5.6-1.7c-1.1-0.2-2.1-0.5-3.1-1l-2.3-1.7c-0.8-0.8-1.4-1.8-2-2.7l0,0l0,0c-0.2-0.4-0.4-0.9-0.5-1.4l0,0
	c0.8-0.8,1.5-1.7,2-2.7l0.2-0.3c0.1,0,0.2,0,0.3,0l0.1-0.1c0.5-0.3,0.9-0.8,1.1-1.3l0,0c0-0.1,0.1-0.2,0.1-0.3v-0.1
	c0-0.1,0-0.2,0-0.2c0,0,0-0.1,0-0.1c0-0.1,0-0.2,0-0.2c0,0,0-0.1,0-0.1v-0.3l0,0c0-0.4,0.1-0.7,0.2-1.1l0,0c0.5-1.4,1.1-2.7,1.8-3.9
	l0,0c0.1-0.2,0.2-0.4,0.2-0.6c0.1-0.2,0.2-0.4,0.2-0.6c0-0.1,0-0.1,0-0.2c0-0.2,0.1-0.3,0.1-0.5s0-0.1,0-0.2c0-0.2,0.1-0.4,0.1-0.7
	c0.1-1.3-0.1-2.5-0.5-3.7c-0.4-1-1-1.9-1.4-2.8c-0.6-1.5-0.8-3.2-1.5-4.6c-1.2-2.4-4-3.5-6.6-2.7c-1.2,0.4-2.1,1.3-3.3,1.6
	c-1.6,0.5-3.2,0.1-4.8-0.1s-3.4-0.2-4.7,0.8c-1.5,1.2-1.9,3.5-3.3,4.8c-0.6,0.6-1.3,0.9-1.9,1.4c-0.4,0.3-0.8,0.8-1,1.3v0.1
	c0,0,0,0.1,0,0.1c0,0.1,0,0.1,0,0.2c0,0,0,0.1,0,0.1c0,0.1,0,0.2,0,0.3l0,0c0,0.1,0,0.2,0,0.3c0,0,0,0,0,0.1c0,0.1,0,0.1,0.1,0.2
	l0,0l0.1,0.2l0.1,0.1c0,0,0,0.1,0,0.1c0.2,0.4,0.4,0.8,0.5,1.2c0.1,0.3,0.1,0.5,0,0.8c-0.1,0.3-0.3,0.6-0.6,0.8
	c-1,1.1-1.9,2.4-2.4,3.8c-0.1,0.2-0.1,0.3-0.2,0.5l0,0h0.1c0.1,0,0.3,0.1,0.5,0.1h0.3c0.4,0,0.7,0,1.1-0.1l0.3-0.1
	c0.4-0.1,0.7-0.2,1.1-0.4c0,0.1,0,0.2,0,0.3v0.2c0,4.7,2.7,9,6.9,11.1c0,0.1,0,0.2,0,0.3c0,0.1,0,0.2,0,0.3l-0.1-0.1
	c0,0-1-0.5-1.8,0.9c-0.7,0.9-1.6,1.6-2.6,2c0,0-9.6,1.5-10,2.8l-4.5,0.3c0,0-1.6,0.2-1.7,3.5s-1,3.6-1,3.6s-1.8,3.2-1.7,4.9
	c0,1-0.5,2-1.4,2.5l-0.2,3c-1.1-0.1-2.1,0.7-2.2,1.8c0,0,0,0,0,0c-0.2,1.1-0.7,2.1-1.3,3c0,0-2.9,2.4-3.1,4.5l-1.8,1.1
	c0,0-4.2-0.9-5.1-2.6l-0.3-0.3l0,0l0,0c-0.5-0.6-1.1-1.1-1.7-1.5c0.1,0.3,0.1,0.6,0.1,0.8l-0.3-0.3l-0.5-1c0,0-6.2-7.1-10.2-7.6l0,0
	c-0.9,0.2-1.5,0.9-1.8,1.7c-0.5,1.7-1,4.5,0.3,5.9l6.2,6.7l0.2,0.1l1.4,1.7c-0.2,0.5-0.4,1.1-0.6,1.6l0,0c0,0.1-0.1,0.2-0.1,0.3v0.1
	l-0.1,0.3c0,0.1,0,0.1,0,0.2v0.1c-0.2,0.5-0.2,0.9-0.3,1.2l-0.3-0.1l0.3,0.2l0,0c0,0,0,0.1,0,0.1l0.3,0.1c1.8,0.8,11.1,4.8,11.5,5.5
	c2,1.7,4.8,2.1,7.2,1c1.8-0.9,3.2-2.4,3.8-4.2c1.1-1.5,2.2-3.1,3.1-4.7c0.1-0.6,2.5-1.4,2.5-1.4s0.2,7-1,9.6s-3.5,13.9-3.5,13.9
	c0.1,0,0.3,0,0.5,0l-0.1,0.7c0.2,0,0.4,0,0.6,0c-0.2,1.3-1.1,7.3-1.1,7.3c-0.1,1.3-0.4,2.5-0.8,3.7c-0.5,0.9-0.6,5.9-0.6,5.9
	l-0.8,3.6c0,0,0.1,0.2,0.3,0.6l0,0c0.6,1.2,1.4,2.3,2.4,3.1c-0.1,0.6-0.2,1.1-0.4,1.6c-0.3,0.8-0.5,1.7-0.4,2.5
	c-0.4,1.7-0.7,3.4-0.8,5.2c-0.1,1.3-0.2,2.7-0.6,4l-1,9.1c0,0-0.6,7.9-0.3,10c0.2,1.7,0.1,3.4-0.2,5.1c0,0,0.6,6.2,0.5,6.9
	s-1,3.6-0.5,5.2s0.2,6.1,0.2,6.1s0.3,5.9,0.7,7.8c0.2,1.4,0.2,2.9-0.1,4.3c-0.1,1.3-0.3,2.7-0.5,4c-0.2,0-1.5,2.8,1.3,5.5
	s1.1,2.3,1.1,2.3s-2.2-1.1-2,1.2s0.6,1.6,0.6,1.5l-0.5,1.7l0.4,0c-0.1,0.1-0.2,0.2-0.3,0.4c-0.3,0.4-0.7,0.8-1.1,1.1
	c-0.4,0.4-0.7,0.9-0.7,1.5c-2.2,2.4-4.8,4.6-7.5,6.4c-1.5,0.8-3,1.8-4.3,2.9c-0.7,0.7-0.5,1.3,0.8,1.7c3.7,1.2,7.7,1.2,11.4,0.2
	c2.1-0.7,4.1-2,5.6-3.6c1.4-0.7,2.9-0.9,4.5-0.7c2.2,0.4,6.7-2.5,6.7-2.5l-0.1-0.7l-0.2-2.1c-0.3-0.4-0.4-0.8-0.4-1.3
	c0-0.6,0-1.3-0.2-1.9c0-0.2-0.1-0.4-0.1-0.6l0.4-0.1c0,0-0.5-2.7,0.4-3.2s0.7-7.4,0.7-7.4c-0.5-0.7-1.1-1.3-1.8-1.8
	c-0.6-0.3-0.1-3.5,0-3.9s1-8.5,1-8.5c-0.2-1.2-0.1-2.5,0.1-3.7c0.4-1.1-0.5-5.3-0.5-5.3c-0.2-0.4-0.1-0.9,0.3-1.2
	c0.6-0.6,0.4-6.2,0.4-6.2s0-2.8,0-3.6c0.2-1.5,0.6-2.9,1.2-4.3c0.6-0.9,0.2-3.7,0.2-3.7l0,0v-0.2c0-0.1,0-0.2,0-0.3v-0.3
	c0.2-1.5,0.6-3,1-4.5c0.7-2.2,1.5-6.1,1.5-6.1l4.9-12.8v-0.2c1.3,2.5,2.1,5.3,2.3,8.1c0.3,2,0.4,3.9,0.4,5.9c0,2.4,0.2,4.8,0.5,7.2
	c0,0,0.7,8.5,0.7,8.9s0.8,6.9,1.4,7.9s-0.5,4-0.8,4.3s0.1,8,0.1,8s-0.8,6.1-1,7.3s-0.8,6.1-0.3,8s0.3,2.1,0.3,2.1s1.9,1.9,0.8,2.1
	c-1.6,0.3-2.6,1.9-2.2,3.5c0,0.1,0.1,0.2,0.1,0.4c0.7,1.9,1.4,3.8,2.3,5.6l0.9-0.2v0.6l0.1,3.1c0.2,1.2,0.2,2.4,0.2,3.7
	c-0.2,0.5-0.4,2.8-0.5,4.1c0,0.5-0.1,0.8-0.1,0.8s0,2.8,5.9,1.9s6.9-3.1,6.9-3.1s0-0.1,0-0.3c0.1-0.5,0.3-1.7,0.4-2.3
	c0.2-0.8-1.7-4.6-1.7-4.6s-0.3-2.6-0.8-3.2c-0.2-0.3-0.4-0.7-0.4-1.1c0-0.2-0.1-0.4-0.1-0.6l0.4,0.1c0,0-0.3-1.8,0.9-2.4
	c0.8-0.4,1.2-1.5,0.7-2.3c0-1.2,0.2-2.3,0.5-3.5c-0.2-0.6,0-1.2,0.4-1.7c0.8-0.7,1.3-5.9,1.3-5.9l0.1-19.8c0.2-1.6,0.2-3.3,0-4.9
	c-0.4-1.4-0.8-4.1-0.3-4.9s0.1-4.1,0.1-4.1s0-7.2,0.8-9s0.5-13,0.5-13l0.2-7.4c0,0,1.7-1.6,1.3-10.1c1.8-0.1,3.9-0.2,4.2,0.1
	c0.6,0.5,4.3,2.9,6.5,1.4c0.9-0.6,1.8-1.3,2.6-2l-0.9-15.7c0.6,0.9,0.9,1.5,0.9,1.5c0-2.2,6.2-9.3,6.2-9.3s5.8-7.5,7.1-8.4
	s3.8-5.6,3.8-5.6c0.4-0.9,0.8-1.8,1.3-2.6C1003.9,656.3,1002,653.8,1002.3,653.3z M988.7,658.8c-1.6,0.2-4.9,3.8-5,4.6
	c-0.1,0.5-0.4,1-0.7,1.4c0-0.3,0-0.6-0.1-1c-0.4-4.6-0.8-10.3-0.6-10.8c0.2-1.7,0.3-3.5,0.2-5.2l0,0l0.1-0.1
	c1.1,3.3,4.4,7.2,4.4,7.2s0.6,1.7,1.3,1.7S988.6,658.8,988.7,658.8L988.7,658.8z"/>
<path class="st8" d="M904.1,657.6c0,0,1.9-10.1,8.1-10.1l4.5,9.3l-3,2.1C913.7,658.8,907.1,659,904.1,657.6z"/>
<path class="st9" d="M916.7,656.7l-3,2.1c-2.6,0.1-5.3-0.1-7.9-0.7c-0.6-0.1-1.2-0.3-1.7-0.6c0,0,0-0.1,0-0.2l0,0
	c0.3-1.3,0.7-2.5,1.2-3.7c0.2-0.5,0.4-0.9,0.6-1.4c0.8-1.8,2.2-3.3,3.9-4.3c0.6-0.3,1.3-0.5,2.1-0.5h0.3l0.1,0.2l1.5,3.2
	L916.7,656.7z"/>
<path class="st8" d="M968.1,698.6c0,0,6.5-0.6,7.1-0.2s4.3,2.9,6.5,1.3s0.7-6.8,0.7-7s-0.2-7.6-0.2-7.6l-3.9-5.2l-4.9-9.2l-10-1
	l0.3,14.6v7.5L968.1,698.6z"/>
<path class="st9" d="M968.1,698.6c0,0,6.5-0.6,7.1-0.2s4.3,2.9,6.5,1.3s0.7-6.8,0.7-7s-0.2-7.6-0.2-7.6l-3.9-5.2l-4.9-9.2l-10-1
	l0.3,14.6v7.5L968.1,698.6z"/>
<path class="st10" d="M910.8,647.2c0,0-0.5,6.3-4.5,6.4c0,0-1.1-0.7-2.6-1.8c-3.5-2.6-9-7.6-7.5-12.2c2.2-6.7,12.8,5.6,12.8,5.6
	l0.8,0.9L910.8,647.2z"/>
<path class="st9" d="M910.8,647.2c0,0-0.5,6.3-4.5,6.4c0,0-1.1-0.7-2.6-1.8l-0.3-0.4c0.7,0.3,1.4,0.5,2.2,0.6
	c1.2,0.1,2.4-0.6,2.8-1.8c0.4-0.8,0.8-1.7,1.1-2.5c0.2-0.5,0.3-1,0.4-1.6L910.8,647.2z"/>
<path class="st11" d="M909.2,658.7l-0.9-1.2l-3-3.8l-1.5-2c0.7,0.4,1.4,0.6,2.2,0.6c1.2,0.1,2.3-0.7,2.8-1.8
	c0.4-0.8,0.8-1.7,1.1-2.5c0.5-1.4,0.5-2.1,0.3-2.4c0.6,0.5,1.2,1,1.7,1.5l0,0l0.3,0.3l0.1,0.2l1.5,3c0,0,0,0,0,0.1
	C913.9,651.7,914.4,657.8,909.2,658.7z"/>
<path class="st8" d="M940.3,792.5c0,0-4.4,2.9-6.6,2.4c-1.5-0.2-3,0.1-4.4,0.7c-1.5,1.6-3.4,2.9-5.5,3.6c-3.5,1.2-8.5,0.7-11.3-0.2
	c-1.3-0.4-1.4-1-0.8-1.7c1.3-1.1,2.7-2.1,4.2-2.9c2.7-1.8,5.2-3.9,7.4-6.3c0-0.6,0.3-1.1,0.7-1.5c0.4-0.3,0.7-0.7,1-1.1
	c0.6-0.7,1.1-1.3,1.1-1.3l12.8,0.4c0,0,0.2,0.9,0.4,1.9c0.1,0.6,0.2,1.2,0.2,1.9c-0.1,0.5,0.1,0.9,0.4,1.3l0.2,2.1L940.3,792.5z"/>
<path class="st8" d="M967.2,796.1c-0.2,0.6-0.3,1.7-0.4,2.3c0,0.2,0,0.3,0,0.3s-1,2.3-6.8,3.1s-5.8-1.9-5.8-1.9s0-0.3,0.1-0.7
	c0.1-1.3,0.2-2.7,0.5-4c0.1-1.2,0-2.4-0.2-3.6l-0.1-3.1v-2.2l9.6-1c0.1,0.7,0.2,1.4,0.3,2.1c0.1,0.4,0.2,0.8,0.4,1.1
	c0.5,0.6,0.8,3.1,0.8,3.1S967.4,795.2,967.2,796.1z"/>
<path class="st9" d="M939.1,784.6c0,0,0.2,0.9,0.4,1.9c-1.4,0.2-7.5,1.3-9,0.6c-1.7-0.6-3.6-1.1-5.4-1.3l0.1-0.2
	c0.6-0.7,1.1-1.3,1.1-1.3L939.1,784.6z"/>
<path class="st9" d="M964.3,787.3c-2.4-0.4-7.7,0.6-9.8,1v-2.2l9.6-1C964,785.9,964.1,786.6,964.3,787.3z"/>
<path class="st12" d="M969.7,708.4l-0.2,7.3c0,0,0.3,11.2-0.5,13s-0.8,8.9-0.8,8.9s0.5,3.4-0.1,4.1s-0.2,3.4,0.3,4.8
	c0.2,1.6,0.2,3.3,0,4.9l-0.1,19.7c0,0-0.6,5.1-1.3,5.8c-0.4,0.4-0.6,1.1-0.4,1.7c-0.3,1.1-0.4,2.3-0.5,3.4c0.4,0.8,0.1,1.8-0.7,2.3
	c-1.2,0.6-0.9,2.4-0.9,2.4c-2.8-0.7-11,1.1-11,1.1c-0.9-1.8-1.6-3.7-2.3-5.6c-0.5-1.5,0.2-3.1,1.7-3.7c0.1,0,0.2-0.1,0.4-0.1
	c1.1-0.2-0.8-2.1-0.8-2.1s0.2-0.3-0.3-2.1s0.1-6.7,0.3-7.9l0.9-7.3c0,0-0.4-7.7-0.1-8s1.3-3.3,0.8-4.3s-1.3-7.5-1.3-7.9
	s-0.7-8.8-0.7-8.8s-0.6-5.9-0.5-7.1c0-2-0.1-3.9-0.4-5.9c-0.2-2.8-0.9-5.5-2.2-8l0,0.2l-4.8,12.7c0,0-0.8,3.8-1.5,6
	c-0.4,1.5-0.8,3-1,4.5v0.3c0,0.1,0,0.2,0,0.3v0.2l0,0c0,0,0.4,2.8-0.2,3.6c-0.6,1.3-1.1,2.8-1.2,4.3c0,0.7,0,3.5,0,3.5
	s0.2,5.6-0.4,6.2c-0.3,0.3-0.4,0.8-0.3,1.2c0,0,0.9,4.2,0.5,5.3c-0.2,1.2-0.3,2.4-0.1,3.6c0,0-0.8,8.1-0.9,8.5s-0.7,3.6,0,3.9
	c0.7,0.5,1.3,1.1,1.8,1.8c0,0,0.3,6.8-0.7,7.3s-0.4,3.2-0.4,3.2s-7.5,1.5-9.2,0.6c-1.7-0.6-3.6-1.1-5.4-1.3l0.5-1.7
	c0,0.1-0.4,0.6-0.6-1.5s1.9-1.2,1.9-1.2s1.7,0.4-1-2.3s-1.4-5.5-1.2-5.5c0.3-1.3,0.4-2.7,0.5-4c0.3-1.4,0.3-2.8,0.1-4.3
	c-0.4-1.9-0.7-7.7-0.7-7.7s0.3-4.4-0.2-6s0.3-4.5,0.5-5.2s-0.5-6.9-0.5-6.9c0.3-1.7,0.4-3.3,0.2-5c-0.3-2.1,0.3-10,0.3-10l0.9-9
	c0.3-1.3,0.5-2.7,0.6-4c0.1-1.7,0.4-3.5,0.8-5.1c0-0.9,0.1-1.7,0.4-2.5c0.4-1.5,0.7-3,0.7-4.5l5-11.4l2.4-10.1l33-0.3
	c0,0,0.1,0.9,0.3,2.5s0.5,3.9,0.8,6.8c0.3,2.6,0.6,5.8,0.9,9.2C971.8,706.5,969.7,708.4,969.7,708.4z"/>
<path class="st10" d="M966.6,617.4l-7.7,8.2c0,0-9.9-4-8.8-5.3c0.4-0.5,0.3-2.2,0.1-4c-0.4-2.9-1.2-6.2-1.2-6.2s17.3-2.8,15.8,0.1
	c-0.5,1.1-0.5,2.3-0.1,3.5C965.2,615,965.8,616.3,966.6,617.4z"/>
<path class="st9" d="M964.8,610.2c-0.5,1.1-0.8,1.2-0.5,2.3c-2.2,2.4-5.1,5.1-8.7,5.1c-1.9,0-3.8-0.4-5.5-1.3
	c-0.4-2.9-1.2-6.2-1.2-6.2S966.3,607.3,964.8,610.2z"/>
<path class="st10" d="M968.1,604.9c0.2,6.8-5.2,12.5-12,12.7c-6.8,0.2-12.5-5.2-12.7-12c0-0.2,0-0.5,0-0.7v-0.2
	c0.2-6.8,6-12.2,12.8-11.9C962.7,593.1,967.9,598.4,968.1,604.9z"/>
<path class="st9" d="M969.8,686.6c-1.6,0-7.1,0.1-13.2,0.2h-0.1h-2h-0.1c-7.2,0.1-14.4-1.3-17.2-1c-6.1,0.6,2.2-5.6,2.2-5.6
	c4.5,1.1,9.2,1.6,13.9,1.4l1.8-0.1c5.5-0.3,11.1-0.8,14-1.7C969.3,681.3,969.5,683.7,969.8,686.6z"/>
<path class="st13" d="M969.8,686.3c-1.6,0-7.1,0.1-13.2,0.2h-0.1h-2h-0.1c-7.2,0.1-14.4-1.3-17.2-1c-6.1,0.6,2.2-5.6,2.2-5.6
	c4.5,1.1,9.2,1.6,13.9,1.4l1.8-0.1c5.5-0.3,11.1-0.8,14-1.7C969.3,681,969.5,683.4,969.8,686.3z"/>
<path class="st9" d="M952.4,620.9l-9.5,4.5l-7.4,57.1c0,0,4.4-2,6.9-0.7s10.2,0.1,10.2,0.1s5.6-0.3,6.5,0.3s10.6-2.6,10.6-2.6
	s1.8-4,0.4-4.6s0.4-6.8,0.4-6.8l-0.8-41.2l-1.7-5.3l-4.5-2.7l-4.5,3.6l-2.2,0.3L952.4,620.9z"/>
<path class="st11" d="M952.4,620.2l-9.5,4.5l-7.4,57.1c0,0,4.4-2,6.9-0.7s10.2,0.1,10.2,0.1s5.6-0.3,6.5,0.3s10.6-2.6,10.6-2.6
	s1.8-4,0.4-4.6s0.4-6.8,0.4-6.8l-0.8-41.2l-1.7-5.3l-4.5-2.7l-4.6,3.6l-2.2,0.3L952.4,620.2z"/>
<path class="st9" d="M952.2,622.9c0,0,2.8,3.3,2.7,4s-0.2,2.3-0.2,2.3l-2.1,4.2c0,0-1.1,5.2-1.1,6.3s-1.8,10.5-1.8,10.5l-2.2,14.6
	l-2.8,19.1l2.8,4.8l3.3-2.8l4.4-34l0.9-6.7c0,0,1-12.1,1-13.3c-0.1-1.5-0.3-3-0.6-4.5c0,0,0.7-3.1,3.5-3.8s-0.2-0.2-0.2-0.2
	l-1.6-1.3l-1.4,0.6C956.9,622.7,953,621.4,952.2,622.9z"/>
<path class="st12" d="M951.9,622.6c0,0,2.8,3.3,2.7,4s-0.2,2.3-0.2,2.3l-2.1,4.2c0,0-1.2,5.3-1.2,6.3s-1.8,10.5-1.8,10.5l-2.2,14.6
	l-2.8,19.1l2.8,4.8l3.3-2.8l4.4-34l0.9-6.7c0,0,1-12.1,1-13.3c-0.1-1.5-0.3-3-0.6-4.5c0,0,0.7-3.1,3.5-3.8s-0.2-0.2-0.2-0.2
	l-1.6-1.3l-1.4,0.6C956.6,622.4,952.7,621.1,951.9,622.6z"/>
<path class="st9" d="M950.1,617.1c0,0-0.4,0.3-0.5,2.4c-0.3,2.3-0.9,4.5-1.6,6.8c0,0,5.4-3.7,8.1-3.3L950.1,617.1z"/>
<path class="st11" d="M950.1,616.5c0,0-0.4,0.3-0.5,2.4c-0.3,2.3-0.9,4.6-1.6,6.8c0,0,5.4-3.7,8.1-3.3L950.1,616.5z"/>
<path class="st9" d="M964.8,615.4l-8.5,7.5c0,0,7.2,4.3,8.1,5.3s1.9-10.2,1.9-10.2L964.8,615.4z"/>
<path class="st11" d="M965.2,614.8l-8.5,7.5c0,0,7.2,4.3,8.1,5.3s1.9-10.2,1.9-10.2L965.2,614.8z"/>
<path class="st9" d="M950.4,617.1c0,0-0.9-0.5-1.8,0.9c-0.6,0.9-1.5,1.6-2.5,2c0,0-9.5,1.5-9.8,2.8l-4.4,0.3c0,0-1.6,0.2-1.7,3.5
	s-1,3.6-1,3.6s-1.8,3.2-1.7,4.9c0,1-0.5,2-1.4,2.5l6.5,16.9c0,0,0.2,7-1,9.5s-3.4,13.8-3.4,13.8s0.9-0.2,0.9,0.4s-1.1,7.4-1.1,7.4
	c-0.1,1.2-0.4,2.5-0.8,3.6c-0.5,0.9-0.6,5.8-0.6,5.8l-0.8,3.5c0,0,2,4.4,5,3.8s8.5-12.4,8.5-12.4l3.5-12.7l2.7-12.6l0.8-8.5
	l1.2-18.9l1.8-12.5C949.1,624.7,951.1,618,950.4,617.1z"/>
<path class="st8" d="M950.1,616.5c0,0-0.9-0.5-1.8,0.9c-0.6,0.9-1.5,1.6-2.5,2c0,0-9.5,1.5-9.8,2.8l-4.4,0.3c0,0-1.6,0.2-1.7,3.5
	s-1,3.6-1,3.6s-1.8,3.2-1.7,4.9c0,1-0.5,2-1.4,2.5l6.5,16.9c0,0,0.2,7-1,9.5s-3.4,13.8-3.4,13.8s0.9-0.2,0.9,0.4s-1.2,7.4-1.2,7.4
	c-0.1,1.2-0.4,2.5-0.8,3.6c-0.5,0.9-0.6,5.8-0.6,5.8l-0.8,3.5c0,0,2,4.4,5,3.8s8.5-12.4,8.5-12.4l3.5-12.7l2.7-12.6l0.8-8.5
	l1.2-18.9l1.8-12.5C948.8,624.1,950.8,617.4,950.1,616.5z"/>
<path class="st9" d="M916.7,656.7l-3,2.1c-2.6,0.1-5.3-0.1-7.9-0.7l-1.7-0.8l-0.3-0.1l0.3,0.1c1.3,0.5,2.8,0.5,4.2,0.1
	c4.3-1.4,3.8-8.5,3.6-10.1c0-0.2,0-0.3,0-0.3l0,0l0,0c0.1,0.1,0.1,0.2,0.2,0.3l0.2,0.2l0,0l1.5,3c0,0,0,0,0,0.1L916.7,656.7z"/>
<path class="st8" d="M927.1,636.4l-1.5,0.4l-0.2,3c-1.1-0.1-2.1,0.7-2.2,1.8c-0.2,1.1-0.6,2.1-1.3,3c0,0-2.9,2.4-3,4.4l-1.8,1.1
	c0,0-4.1-0.9-5-2.6c0,0,1.9,13.4-8.1,10.1c0,0,11.2,4.9,11.7,5.6c2,1.7,4.7,2.1,7.1,1c1.8-0.9,3.1-2.4,3.8-4.2c0,0,3-4.2,3.1-4.8
	s2.4-1.3,2.4-1.3l4.5-10.8L927.1,636.4z"/>
<path class="st9" d="M963.6,621.7l1.5-6.9c0.3,1,0.7,1.9,1.3,2.8l2.2,1.7c1,0.5,2,0.8,3,1c0.8,0,5,1.1,5.5,1.7s2.6,0.2,2.6,0.2
	s1.7,0.6,3.2,0.9s2.2,2.9,1.9,3.8c-0.3,1,0,2.1,0.7,2.8c0.5,0.8,0.8,1.7,0.9,2.7c0.8,0.2,1.4,0.8,1.8,1.5c0.3,1.2,0.5,2.4,0.4,3.6
	l-7.7,10.9c0.1,1.7,0,3.4-0.2,5.1c-0.3,0.9,1.1,16.8,1.1,16.8l1.6,27.3c-0.8,0.7-1.7,1.4-2.6,2c-0.5,0.2-0.9-9.7-0.9-10
	s-12-18-12-18c-0.7-1-1.2-2.1-1.6-3.2c0-0.6-1.5-5.8-1.5-5.8l-2.3-10.1L963.6,621.7z"/>
<path class="st8" d="M989.5,637c0,0.4,0,0.6,0,0.6l-7.8,10.9l0,0c0.1,1.7,0,3.4-0.2,5.1c-0.2,0.5,0.2,6.1,0.6,10.7
	c0.3,3.3,0.5,6.1,0.5,6.1l0.7,11.6l0.9,15.8c-0.8,0.7-1.7,1.4-2.6,2c-0.5,0.2-0.9-9.7-0.9-10s-12-18-12-18c-0.7-1-1.2-2.1-1.6-3.2
	c0-0.6-1.5-5.8-1.5-5.8l-2.3-10.1l1-31l0.9-6.9c0.6,1,1.2,1.9,2,2.8l2.2,1.7c1,0.5,2,0.8,3,1c0.8,0,5,1.1,5.5,1.7s2.6,0.2,2.6,0.2
	s1.7,0.6,3.2,0.9s2.2,2.9,1.9,3.8c-0.3,1,0,2.1,0.7,2.8c0.5,0.8,0.8,1.7,0.9,2.7c0.8,0.2,1.4,0.8,1.8,1.5
	C989.4,634.8,989.5,635.9,989.5,637z"/>
<path class="st9" d="M925.9,775.5c0.3,0,11.2,0.4,11,2.2S925.9,775.5,925.9,775.5z"/>
<path class="st9" d="M928.3,778.4c0,0,7.3,1.2,5.4,2.3S928.3,778.4,928.3,778.4z"/>
<path class="st9" d="M955.6,774.3c0,0,12.2,1,10.3,2.4s-6.1,1.6-6.3,1.6C958.2,777.1,956.9,775.8,955.6,774.3z"/>
<path class="st9" d="M954.1,779.7c0,0,6.8,1.1,7,2.4S954.1,779.7,954.1,779.7z"/>
<path class="st9" d="M957.8,748.4c0,0,6.2,1.5,6.5,2.5L957.8,748.4z"/>
<path class="st9" d="M934,752.9c0,0-3.2,0.9-0.1,2.8S934,752.9,934,752.9z"/>
<path class="st9" d="M948.3,702.9c0.4,0,6-1.9,8-1c1.4,0.5,2.9,0.8,4.4,0.8L948.3,702.9z"/>
<path class="st9" d="M949,708.8l0,0.5l-4.8,12.7c0,0-0.8,3.8-1.5,6c-0.4,1.5-0.8,3-1,4.5L946,706L949,708.8z"/>
<path class="st12" d="M956.6,686.4h-2h-0.1l-1.2-5.2l1.8-0.1L956.6,686.4z"/>
<path class="st10" d="M981.1,680.1l-1.3,1.1l-4.3,3.6c0,0-11.7,6.2-14.9,0.3c-2.8-5.2,10.4-9,13.6-9.8l0.7-0.2L981.1,680.1z"/>
<path class="st9" d="M931.1,629c0,0,2.3,1,2.8,2.5S931.1,629,931.1,629z"/>
<path class="st9" d="M924.1,644.6c0,0-3.3,4-2,5.6S924.1,644.6,924.1,644.6z"/>
<path class="st9" d="M983.6,631.3c0,0-3.1,0.3-3.2,3L983.6,631.3z"/>
<path class="st9" d="M954.7,673.9c0.3-0.3,7.5-10.9,9.2-10L954.7,673.9z"/>
<path class="st9" d="M968.1,604.9c0,2-0.5,4-1.5,5.8h-0.1c-0.8-0.2-1.2-1.1-1.8-1.7c-0.8-0.7-1.9-0.9-2.8-0.4
	c-0.9,0.5-1.5,1.6-1.4,2.7c-0.4-1.7-0.3-3.4-0.7-5.1s-1.5-3.4-3.2-3.4c-0.7,0-1.5,0.3-2-0.3c-0.3-0.3-0.4-0.8-0.6-1.2
	c-1.1-1.8-4.6-0.9-6,0c-1.5,1.2-3.1,2.3-4.8,3.3c0.2-6.8,6-12.2,12.8-11.9C962.7,593,967.9,598.4,968.1,604.9L968.1,604.9z"/>
<path class="st12" d="M954.2,601.1c0.2,0.4,0.3,0.9,0.6,1.2c0.5,0.5,1.3,0.2,2,0.3c1.6,0,2.8,1.7,3.1,3.4s0.3,3.4,0.7,5.1
	c-0.1-1.1,0.4-2.1,1.4-2.7c0.9-0.5,2-0.3,2.8,0.4c0.6,0.6,1,1.5,1.8,1.7s1.5-0.6,1.8-1.4c0.2-0.9,0.3-1.7,0.5-2.6
	c0.3-1.6,1.4-3,2-4.5c0.7-1.9,0.7-3.9-0.1-5.8c-0.4-1-1-1.8-1.4-2.8c-0.6-1.5-0.8-3.2-1.5-4.6c-1.2-2.4-4-3.5-6.5-2.7
	c-1.1,0.4-2.1,1.2-3.3,1.6c-1.5,0.5-3.2,0.1-4.8-0.1s-3.3-0.2-4.6,0.8c-1.5,1.2-1.9,3.5-3.3,4.8c-0.6,0.5-1.3,0.9-1.9,1.4
	c-0.7,0.5-1.1,1.3-1.1,2.1c0.1,1.1,1.1,2.1,0.8,3c-0.1,0.3-0.3,0.5-0.6,0.8c-1.2,1.2-2,2.7-2.5,4.3c2.8,0.9,5.8-2.2,8-3.7
	C949.6,600.2,953,599.3,954.2,601.1z"/>
<path class="st9" d="M981.1,680.1l-1.3,1.1c-1.1-1.9-5.8-5.7-5.8-5.7l0.2-0.2l0.7-0.2L981.1,680.1z"/>
<path class="st11" d="M982.4,678.2c0,0-0.5,1.2-1,2.2s-1,1.9-1,1.2c-0.1-1.5-6.1-6.3-6.1-6.3l0.8-0.8l1-0.9L982.4,678.2z"/>
<path class="st9" d="M982.6,670.4l0.7,11.6c-1.6-2.5-6-9-8.9-8.7l6.9-8c0.3-0.3,0.5-0.7,0.8-1C982.3,667.7,982.6,670.4,982.6,670.4z
	"/>
<path class="st9" d="M982.4,678.2c0,0-0.5,1.2-1,2.2c-1.8-2.5-4.3-5.4-6.3-6l1-0.9L982.4,678.2z"/>
<path class="st8" d="M987.6,636.1l1.9,1.5c0,0,3.1,0,3.4,2.7s3.2,3.8,3.2,3.8s2.1,2.1,2.1,3.1s1.6,2.8,1.6,2.9s1.6,3.3,1.3,3.9
	s1.7,3.1,1.1,4c-0.5,0.8-0.9,1.7-1.2,2.6c0,0-2.4,4.7-3.7,5.6s-7,8.3-7,8.3s-6.1,7.1-6.1,9.3c0,0-6-10-9.5-9.7l6.9-8
	c0,0,1.2-1.3,1.2-2.1s3.3-4.4,4.9-4.5c0,0,0.3-2.1-0.4-2.2s-1.2-1.7-1.2-1.7s-4.6-5.4-4.6-8.8S987.6,636.1,987.6,636.1z"/>
<path class="st9" d="M990.3,641c0,0-4.4,3.2-3.4,4.3S990.3,641,990.3,641z"/>
<path class="st9" d="M990.5,654.3c0,0,8.1-2.6,9,0H990.5z"/>
<path class="st9" d="M940.3,792.5c0,0-4.4,2.9-6.6,2.4c-1.5-0.2-3,0.1-4.4,0.7c-1.5,1.6-3.4,2.9-5.5,3.6c-3.5,1.2-8.5,0.7-11.3-0.2
	c-1.3-0.4-1.4-1-0.8-1.7c3.1,0.6,9.9,1.8,11.7,0.9c2-1.1,4-2.3,5.8-3.6c0,0,4.5-0.6,5.1-0.6c2-0.6,3.9-1.4,5.8-2.2L940.3,792.5z"/>
<path class="st9" d="M966.8,798.3c0,0.2,0,0.3,0,0.3s-1,2.3-6.8,3.1s-5.8-1.9-5.8-1.9s0-0.3,0.1-0.7
	C956,799.8,960,800.5,966.8,798.3z"/>
<path class="st9" d="M933.3,640.4c0,0,0,11.8-1,13S933.3,640.4,933.3,640.4z"/>
<path class="st9" d="M980.2,644.2l1.5,4.2C981.7,648.5,982.3,644.3,980.2,644.2z"/>
<g class="st14">
	<path d="M943.4,598.8c0.4-1-0.6-1.9-0.8-3c-0.1,0.3-0.2,0.6-0.2,0.9c0.1,0.8,0.7,1.5,0.8,2.2C943.4,598.9,943.4,598.8,943.4,598.8z
		"/>
	<path d="M960.7,610c-0.4-1.6-0.3-3.4-0.6-5s-1.6-3.3-3.2-3.4c-0.7,0-1.5,0.2-2-0.3c-0.3-0.3-0.4-0.8-0.6-1.2c-1.1-1.8-4.6-0.9-6,0
		c-2.1,1.4-5,4.4-7.8,3.7c-0.1,0.3-0.3,0.7-0.3,1c2.8,0.9,5.8-2.2,8-3.7c1.4-1,4.9-1.9,6,0c0.2,0.4,0.3,0.9,0.6,1.2
		c0.5,0.5,1.3,0.2,2,0.3c1.6,0,2.8,1.7,3.1,3.4s0.3,3.4,0.7,5.1C960.5,610.8,960.6,610.4,960.7,610z"/>
	<path d="M968.5,608c-0.3,0.8-1,1.6-1.8,1.4s-1.2-1.1-1.8-1.7c-0.8-0.7-1.9-0.9-2.8-0.4c-0.9,0.5-1.4,1.5-1.4,2.5
		c0.2-0.6,0.7-1.2,1.2-1.5c0.9-0.5,2-0.3,2.8,0.4c0.6,0.6,1,1.5,1.8,1.7s1.5-0.6,1.8-1.4c0.1-0.5,0.2-1,0.3-1.5
		C968.6,607.7,968.5,607.9,968.5,608z"/>
	<path d="M970.9,600.9c-0.6,1.5-1.6,2.9-2,4.5c-0.1,0.3-0.1,0.7-0.2,1c0.4-1.6,1.4-2.9,2-4.5c0.3-0.7,0.4-1.4,0.5-2.2
		C971.2,600.2,971.1,600.6,970.9,600.9z"/>
</g>
<rect x="315.4" y="228" class="st5" width="74" height="76.7"/>
<rect x="410.4" y="228" class="st5" width="74" height="76.7"/>
<rect x="505.4" y="228" class="st15" width="74" height="76.7"/>
<rect x="600.3" y="228" class="st15" width="74" height="76.7"/>
<rect x="695.3" y="228" class="st15" width="74" height="76.7"/>
<rect x="719.9" y="214" transform="matrix(0.7975 -0.6033 0.6033 0.7975 1.017 507.7783)" class="st4" width="74" height="76.7"/>
<path class="st6" d="M352.4,236c-6.8,0-12.4,5.5-12.4,12.4s5.5,12.4,12.4,12.4c6.8,0,12.4-5.5,12.4-12.4c0,0,0,0,0,0
	C364.7,241.5,359.2,236,352.4,236C352.4,236,352.4,236,352.4,236z M360.9,251.6c-0.5-0.2-1.4-0.2-1.8-0.6c-0.2-0.2-0.1-1-0.1-1
	c0.6,0,1.3-0.1,1.8-0.4c0.2-0.1,0.1-0.2,0-0.4c-0.6-1.1-0.4-2.5-0.4-3.7c0.1-1-0.4-2-1.2-2.6c-0.6-0.3-1.2-0.4-1.9-0.4
	c-0.5,0-1,0.1-1.5,0.2c-2.5,1-1,4.4-1.9,6.3c-0.1,0.3-0.4,0.4,0,0.6c0.5,0.2,1.1,0.4,1.7,0.4c0,0,0,0.8,0,0.8
	c-0.1,0.3-0.7,0.5-0.9,0.6c-0.3,0.1-0.7,0.2-1,0.3c-0.1,0-0.2,0.2-0.1,0.3c0,0.1,0.1,0.1,0.1,0.1c0.2,0,0.5,0.1,0.7,0.2
	c1,0.3,2,0.8,2.7,1.5c0.7,0.7,1.1,1.7,1.2,2.6c0,0.3-0.1,0.5-0.3,0.7l-0.3,0.2c-0.1,0-0.2,0-0.2,0c0,0,0-0.1,0-0.1
	c0-1.7-1.1-3.3-2.7-3.9c-0.8-0.3-1.7-0.3-2.5-0.6c-0.2-0.1-0.7-0.2-0.8-0.5c-0.1-0.3-0.1-0.6-0.1-0.9c0-0.2,0-0.5,0-0.7
	s0.4-0.5,0.5-0.6c0.3-0.6,0.4-1.2,0.4-1.9c0.5,0.1,0.6-0.8,0.7-1.1s0.3-1.2-0.1-1.4c0.1-0.3,0.2-0.6,0.2-0.9
	c0.2-0.8,0.1-1.6-0.1-2.3c-0.5-1.5-1.9-2.5-3.5-2.5c-1.6-0.1-3.1,0.8-3.8,2.2c-0.2,0.8-0.3,1.6-0.2,2.4c0,0.4,0.1,0.7,0.3,1.1
	c-0.4,0.2-0.3,1-0.2,1.3s0.2,1.4,0.7,1.2c0,0.5,0.1,1,0.2,1.4c0.1,0.3,0.3,0.6,0.5,0.8c0.1,0.1,0.2,0.1,0.1,0.3c0,0.5,0,1-0.1,1.4
	c-0.1,0.5-1.1,0.6-1.5,0.7c-0.8,0.1-1.7,0.3-2.5,0.7c-3-5.1-1.3-11.7,3.8-14.7c1.6-1,3.5-1.5,5.3-1.5c2.8,0,5.6,1.1,7.6,3.1
	c2.1,2,3.2,4.8,3.2,7.6c0,1.5-0.3,2.9-0.9,4.2C361.8,252.1,361.3,251.8,360.9,251.6L360.9,251.6z"/>
<path class="st16" d="M353.5,292.6V279l6.3,6.3l1.6-1.6l-9-9l-9,9l1.6,1.6l6.3-6.2v13.7H353.5z"/>
<path class="st16" d="M448.5,292.6V279l6.3,6.3l1.6-1.6l-9-9l-9,9l1.6,1.6l6.3-6.2v13.7H448.5z"/>
<path class="st6" d="M447.7,245.9c-0.1-0.1-0.3-0.1-0.4-0.1c0,0,0,0-0.1,0.1l-5.1,6.8c-0.1,0.1-0.1,0.3,0,0.4c0,0,0.1,0.1,0.2,0.1
	l9,0.8c0.1,0,0.3-0.1,0.3-0.2c0-0.1,0-0.1,0-0.2L447.7,245.9L447.7,245.9z M453.6,249.5c-0.1-0.1-0.3-0.1-0.4-0.1c0,0,0,0-0.1,0.1
	l-1.4,1.4c-0.1,0.1-0.1,0.2,0,0.3l1.4,2.8c0,0.1,0.1,0.1,0.2,0.1l2.5,0.2c0.1,0,0.3-0.1,0.3-0.2c0-0.1,0-0.1,0-0.2L453.6,249.5
	L453.6,249.5z M454.2,247.3c0.6,0,1.2-0.5,1.3-1.1c0.1-0.7-0.3-1.4-1-1.5c-0.7-0.1-1.4,0.3-1.5,1c-0.1,0.7,0.3,1.4,1,1.5
	C454,247.3,454.1,247.3,454.2,247.3z"/>
<path class="st6" d="M458.5,242l-3.7-0.3l-0.3-3.7c-0.1-0.8-0.8-1.4-1.6-1.4l-16.6,1.5c-0.8,0.1-1.4,0.8-1.4,1.6c0,0,0,0,0,0
	l1.5,16.5c0.1,0.8,0.8,1.4,1.6,1.4c0,0,0,0,0,0l0.9-0.1l-0.1,0.9c-0.1,0.8,0.5,1.6,1.4,1.6c0,0,0,0,0,0l16.6,1.5
	c0.8,0.1,1.6-0.5,1.6-1.4l1.5-16.5C459.9,242.8,459.3,242.1,458.5,242C458.5,242,458.5,242,458.5,242L458.5,242z M437.9,251.6
	c-0.2,0-0.4-0.1-0.4-0.3l-1-11.2c0-0.2,0.1-0.4,0.3-0.4c0,0,0,0,0,0l15.6-1.4c0.2,0,0.4,0.1,0.4,0.3l0.3,3l-11.2-1
	c-0.8-0.1-1.6,0.5-1.6,1.4c0,0,0,0,0,0l-0.8,9.5L437.9,251.6L437.9,251.6z M458.2,244l-1,11.2c0,0.2-0.2,0.4-0.4,0.3l-1-0.1
	l-14.5-1.3c-0.2,0-0.4-0.2-0.4-0.4c0,0,0,0,0,0l0.2-2.5l0.8-8.7c0-0.2,0.2-0.4,0.4-0.4c0,0,0,0,0,0l11,1l1.6,0.1l2.9,0.2
	C458,243.7,458.2,243.8,458.2,244L458.2,244z"/>
<rect x="315.4" y="380.1" class="st5" width="169" height="126"/>
<path class="st0" d="M419.2,418.8c-31-10.7-64.8,5.7-75.5,36.7c-2.1,6.2-3.2,12.8-3.2,19.3c0,2.3-1.9,4.2-4.2,4.2
	c-2.3,0-4.2-1.9-4.2-4.2c0-37.4,30.4-67.8,67.8-67.8c7.4,0,14.8,1.2,21.8,3.6"/>
<path class="st6" d="M421.7,410.8c27.4,9.4,45.9,35.2,45.9,64.1c0,2.3-1.9,4.2-4.2,4.2c-2.3,0-4.2-1.9-4.2-4.2
	c0-25.3-16.1-47.8-39.9-56.1"/>
<path class="st0" d="M406.1,445L406.1,445c-2.6,0-4.9,1.3-6.2,3.4c-1.4-2.1-3.7-3.4-6.2-3.4h-0.1c-4,0-7.3,3.3-7.3,7.3
	c0.2,3.1,1.2,6.1,3.1,8.6c3.9,5.4,10.4,10,10.4,10s6.5-4.7,10.4-10c1.9-2.5,3-5.5,3.1-8.6C413.4,448.3,410.1,445,406.1,445z"/>
<rect x="531" y="327.5" class="st5" width="256.4" height="190.7"/>
<rect x="557.3" y="471" class="st6" width="10.5" height="35.2"/>
<rect x="577.3" y="427.4" class="st6" width="10.5" height="78.8"/>
<rect x="597.3" y="388.1" class="st5" width="10.5" height="118"/>
<rect x="617.3" y="360.1" class="st6" width="10.5" height="146"/>
<rect x="597.3" y="360.1" class="st0" width="10.5" height="146"/>
<rect x="637.3" y="425.9" class="st0" width="10.5" height="80.2"/>
<rect x="657.3" y="405.1" class="st6" width="10.5" height="101"/>
<rect x="677.3" y="373.6" class="st6" width="10.5" height="132.5"/>
<rect x="697.3" y="447.1" class="st15" width="10.5" height="59"/>
<rect x="717.3" y="419.9" class="st15" width="10.5" height="86.2"/>
<rect x="737.3" y="388.1" class="st15" width="10.5" height="118"/>
<rect x="757.3" y="388.1" class="st15" width="10.5" height="118"/>
<polygon class="st8" points="816,309 826.3,303.3 831.1,306.2 927.5,769.9 921.7,771 909.6,760.5 "/>
<polygon class="st9" points="826.3,303.3 921.7,771 927.5,769.9 831.1,306.2 "/>
<polygon class="st8" points="755.4,328.6 828.7,335.6 828.7,341.3 755.8,335 "/>
<polygon class="st8" points="763.2,397.7 840.9,397.7 840.9,406 762.2,406 "/>
<polygon class="st8" points="770.3,470.1 848.8,467 858.6,470.1 858.6,475.5 788.8,479.1 770.9,479.1 "/>
<polygon class="st9" points="789.8,474.5 858.6,470.1 858.6,475.5 788.8,479.1 "/>
<polygon class="st9" points="770.3,470.1 789.8,474.5 788.8,479.1 770.9,479.1 "/>
<polygon class="st8" points="777.4,548.7 864,540.7 873.6,543.2 873.6,548.7 796.2,556.9 777.4,558.5 "/>
<polygon class="st9" points="795.9,552.2 865,545.2 873.6,543.2 873.6,548.7 796.2,556.9 "/>
<polygon class="st9" points="776.2,553.2 795.9,552.2 796.2,556.9 777.4,558.5 "/>
<polygon class="st8" points="781.5,626.9 879.2,613.9 887.6,617.3 887.6,623.6 803.3,636.3 783.5,636.3 "/>
<polygon class="st9" points="803.3,632.3 887.6,617.3 887.6,623.6 803.3,636.3 "/>
<polygon class="st9" points="782.7,632.4 803.3,632.3 803.3,636.3 783.5,636.3 "/>
<polygon class="st8" points="787.3,707.4 894.5,687.4 904,693 904,697.4 809.9,720.2 790.5,721.7 "/>
<polygon class="st9" points="809.9,715.7 904,693 904,697.4 809.9,720.2 "/>
<polygon class="st9" points="789.4,716.7 809.9,715.7 809.9,720.2 790.5,721.7 "/>
<polygon class="st8" points="762.2,297.5 753.5,299.4 784.9,798.1 794,801.4 801.2,801.4 "/>
<polygon class="st9" points="758,298.4 794,801.4 801.2,801.4 762.2,297.5 "/>
<rect x="728.9" y="210.9" transform="matrix(0.7975 -0.6033 0.6033 0.7975 4.7415 512.6055)" class="st6" width="74" height="76.7"/>
<rect x="728.9" y="210.9" transform="matrix(0.7975 -0.6033 0.6033 0.7975 4.7415 512.6055)" class="st5" width="74" height="76.7"/>
<path class="st16" d="M783.3,270.4l-8.2-10.9l8.8,1.2l0.3-2.2l-12.6-1.8l-1.7,12.6l2.2,0.3l1.3-8.8l8.2,10.9L783.3,270.4z"/>
<path class="st6" d="M763.8,246.5c-5.1,3.9-12.4,2.9-16.2-2.2c-1.9-2.5-2.7-5.7-2.2-8.8c0.1-0.5,0.6-0.9,1.1-0.8c0,0,0,0,0,0
	c0.5,0.1,0.9,0.6,0.8,1.1c-0.8,5.3,2.8,10.3,8.1,11.1c2.6,0.4,5.3-0.3,7.4-1.9c4.2-3.3,4.9-9.5,1.6-13.7c-3-3.8-8.4-4.8-12.6-2.3
	l2.2,2.9c0.3,0.4,0.1,1-0.3,1.3c-0.4,0.2-0.9,0.2-1.2-0.2l-2.8-3.7c-0.3-0.4-0.2-1,0.2-1.3c5.2-3.7,12.5-2.5,16.2,2.7
	C769.6,235.8,768.6,242.8,763.8,246.5L763.8,246.5z"/>
<path class="st6" d="M749.9,235.7l7.1-0.2c1-0.1,1.8,0.6,1.9,1.6c0.1,1-0.6,1.8-1.6,1.9c-0.1,0-0.2,0-0.2,0c-0.2,0-0.4,0-0.6-0.1
	l-6.8-2.1c-0.3-0.1-0.5-0.4-0.4-0.7c0,0,0,0,0,0C749.4,235.9,749.7,235.7,749.9,235.7z"/>
<linearGradient id="SVGID_2_" gradientUnits="userSpaceOnUse" x1="-252.7964" y1="396.2724" x2="-252.7964" y2="633.8416" gradientTransform="matrix(0.9993 -3.838781e-02 -3.838781e-02 -0.9993 1052.1947 865.1703)">
	<stop  offset="0" style="stop-color:#808080;stop-opacity:0.25"/>
	<stop  offset="0.54" style="stop-color:#808080;stop-opacity:0.12"/>
	<stop  offset="1" style="stop-color:#808080;stop-opacity:0.1"/>
</linearGradient>
<path class="st17" d="M840,471.8c-0.7-2.7-1.2-5-1.2-5c0-1.8-0.5-3.6-1.4-5.1v-0.7l0,0l-0.2-5.4c0.3-1,0.8-2,1.3-2.9
	c0.9-1.8-0.3-8-0.3-8s-4-8.7-3.3-14.3s-8.4-24.6-8.4-24.6c0-1.9,0.2-3.7,0.6-5.5c0.1-0.4,0.1-0.8,0.1-1.2c0,0,0-0.1,0-0.1l0,0
	c-0.3-3.7-3.5-10.5-3.5-10.5l-0.1-13.2c0,0,1.6-7.9-1.9-18.2c-1.2-3.6-2-6.5-2.5-8.7c-0.1-0.2-0.1-0.5-0.2-0.7
	c6.2-1.2,11-2.2,11-2.2s-4.2-15.1-6.8-17.6s-4.8-10.9-4.8-10.9s-1.7-10.7,0.2-13.9s2-8.6,2-8.6s4.6-3.6,5.1-5.1
	c0.7-2.2,1.2-4.5,1.3-6.8c-0.1-1.8-0.7-3.4-0.6-4.4s-1.5-4.5-0.8-6.2c0.2-0.5,0.3-1.1,0.2-1.7c0,0,0,0,0,0l0,0
	c-0.1-1.5-0.2-3-0.6-4.4c-1.4-1.1-3-1.9-4.8-2.3l-0.1-0.4l-0.3-1.1c-0.2-0.1-0.3-0.2-0.5-0.2v-0.4l-0.1-1.5l0.6-3.5
	c1.2-6.1-6.9-6.7-6.9-6.7c-0.5-0.9-1.4-1.6-2.4-1.9c-1.6-0.5,0.1,9.1,0.9,9.7c1.3,1.5,2.4,3.1,3.4,4.9l0,0l0.1,0.2
	c-0.1,0.1-0.2,0.3-0.3,0.4l0.4,2.1l0.1,0.3c-0.5,0.7-0.9,1.4-1.2,2.2c0.9,0.9,1.3,2.1,1.3,3.4c-0.1,1.4,0.2,2.8,0.6,4.2
	c-0.1-0.1-1.2-1.2-2.2-0.9s-3.9,1.3-3.9,1.3s-2.2,0.5-1.9,0.9s-1.4,2.6-1.4,2.6l-6-5.3c-0.1-0.2-0.1-0.3-0.2-0.5
	c-0.3-0.8-0.5-1.6-0.6-2.4c0.6-0.2,1.2-0.4,1.8-0.7c0.6-0.2,1.1-0.6,1.6-1.1c0.5-0.8,0.7-1.6,0.8-2.5c0.6-1.7,1.2-3.3,2-4.9
	c1.1-2.8,1.4-5.8,0.8-8.7c-0.1-0.9-0.5-1.8-1-2.5c-1-1.3-2.7-1.7-4-2.7s-2.2-2.5-3.6-3.3c-1.4-0.6-3-0.6-4.4-0.2
	c-2.9,0.6-5.7,1.8-8.2,3.4c-0.8,0.6-1.7,1-2.7,1c-0.8-0.2-1.5-0.7-2-1.4c0,0,0-0.1,0-0.1l-0.1-0.1c-0.6,1.4-0.8,2.9-0.7,4.4
	c0,0.2,0,0.5,0.1,0.7c0,0.1,0,0.2,0,0.2c0,0.1,0,0.1,0,0.2l0,0c0,0.1,0,0.2,0,0.3c-0.1,0.3-0.3,0.6-0.5,0.8
	c-0.2,0.2-0.3,0.4-0.4,0.7c0-0.1,0-0.2,0.1-0.2c-0.4,0.6-0.5,1.2-0.5,1.9c0,0.5,0.2,0.9,0.5,1.3c0.3,0.3,0.6,0.5,1,0.7
	c-0.1,0.6-0.1,1.3-0.1,1.9c0.2,3.9,2.4,7.5,5.8,9.4c0.1,0.2,0.2,0.3,0.2,0.5c0.9,2,1.4,4.1,1.3,6.3c0,0.2,0,0.3-0.1,0.5l-0.2,0.2
	l0,0c0,0-9.6,0.5-11.9-1.5s-5.5,5.2-5.5,5.2s-3.4,0.8-4.1,0.2s-4.7,0.1-4.7,0.1c-1.7-1.4-3.9-2.1-6.1-2c-1.4-1-2.9-1.7-4.5-2.3l0,0
	h-0.1l0,0c-0.7-0.2-1.4-0.3-2.2-0.2c0,0-4.9-3.7-6.3-5.8s-8.3-9.5-8.3-9.6v-0.4l-0.1-1.1c-0.2,0-0.4,0.1-0.6,0.1l-0.1-0.4
	c-0.4-1.1-0.9-2.1-1.5-3.1c0,0,0-1.4,0.3-1.8s-0.4-5.6-0.4-5.6s-4.6-9.8-8.1-2.2c0,0-7,5.1-0.8,10.4c0,0,2.5,1.1,2.8,2
	c0.2,0.6,1.1,2.2,1.7,3.3l0.3,0.5l-0.1,0.1l0.1,0.9v0.4c-1.1,0.7-1.8,1.4-1.7,1.8c0.4,0.8,0.6,1.7,0.8,2.5c0,0,8.8,10.1,10,14.6
	c0,0,22.9,12.4,30.3,13.1l-1,6.7c0,0-0.2,4-0.1,5.4s-0.6,7.9-0.6,7.9s-0.9,9.5-1.9,10.9s-0.6,7.1-0.6,7.1c-0.2,2.7-0.5,5.5-1.2,8.1
	c-0.5,2.7-0.5,5.4,0,8.1c0,0-3.4,8.7,5.3,2.5c0,0,4.4-0.4,9.4-0.8c0,0.2,0,0.3,0,0.5c0,0.6,0,1.4,0,2.1c0.1,4.9,0.3,11.6,0.8,16.8
	c0.7,9,4.2,26.8,4.2,26.8l0.3,9c-0.1,0.9-0.2,1.7-0.2,2.6c0.1,3.2,1,6.2,2.8,8.9l0.9,6c0,0,1.8,3.9,1.9,6.2c0,0.2,0,0.4,0,0.6
	c0,0.3,0,0.6,0,0.9c0,2.7,1.9,9.2,1.9,9.2s0.3,6.5,1.3,6.9s-1,3.8-1.5,4.8c0-0.1,0-0.1,0-0.2l-0.1,0.2c-0.2,0.5-0.3,1.1-0.2,1.7
	c-0.1,0.9,0.4,1.8,1.2,2.3c1.9,1.1,3,2,1.4,2.4c-0.6,0.1-1.1,0.3-1.7,0.4c0-0.1-0.1-0.1-0.1-0.2c-0.5,0.2-0.7,0.7-0.6,1.2
	c0,0.8,0.3,1.5,0.7,2.2c0.8,1.7,1.7,3.3,2.8,4.7l0.8-0.1c-0.1,0.3-0.2,0.6-0.4,0.8c-0.3,0.4-0.6,0.8-1.1,1c-0.4,0.3-0.9,0.4-1.3,0.5
	c-1.1,0.1-2.1,0.6-2.7,1.5c-0.9,1.3-1.5,3,0.5,4.5l7.1,2.1c0,0,12.1,1,11.4-1.7s-1.2-5-1.2-5c0-1.7-0.4-3.3-1.2-4.8
	c-0.1-0.2-0.3-0.5-0.5-0.7l0.4-0.1c0,0,0.7-6,1.8-7.2c0.3-0.3,0.3-0.5,0.2-0.6c0.1-0.3-0.2-0.5-0.6-0.6c0,0.1,0,0.1-0.1,0.2
	c-0.4-0.1-0.8-0.1-1.2-0.1c0,0-0.5-3.1,0.7-4.3c0.2-0.3,0.3-0.6,0.2-0.9c0-0.4-0.1-0.9-0.2-1.3c0,0,0,0,0,0.1
	c-0.8-2.5-1.9-4.9-3.1-7.2c0,0-0.2-2.9,0.5-4s-0.7-15.5-0.7-15.5s0-7-1-10.1s0.8-7.1,0.8-7.1V407l0,0c0,0-0.1-0.4-0.2-1.1v0.1
	c-0.3-1.8-0.8-5.1-1.1-6.7c-0.5-2.2-0.4-12.6-0.4-12.6l1.6-4.5l3.4,7.6l3.7,10.1c1,1.2,1.6,2.7,1.9,4.3c0,0.1,0,0.2,0,0.3
	c0,0.2,0,0.5,0,0.7c0,1.3,0.4,2.6,1.2,3.6c0,0,1.1,4.8,2.5,6c0.9,1,1.5,2.2,1.5,3.6c0,0,1.9,7,2.8,8.2c0.7,1,0.8,3.9,0.9,4.8l0,0
	c0,0.2,0,0.3,0,0.3s0.3,2.5,0.4,4.6v0.7c0,0.5-0.1,1.1-0.2,1.6c0,0,0,0.1,0,0.1c0-0.1,0-0.2,0-0.4c-0.3,1.4-0.4,2.9-0.3,4.4
	c0,2.5,0.5,5.5,2.2,7.2c2.8,2.9,4.4,2.5,4.4,2.5s-1.1,3.9-2.7,4.7c-0.1,0-0.1,0.1-0.2,0.1c0-0.1,0-0.1,0-0.2
	c-0.3,0.4-0.5,0.9-0.4,1.4c0.1,2,0.9,4,2.2,5.6c0.4,0.3,0.9,0.6,1.4,0.7l-0.2,0.2c-0.2,0.1-0.3,0.2-0.5,0.3
	c-0.3,0.1-0.5,0.2-0.8,0.2c-1.1,0.1-2.1,0.6-2.7,1.5c-0.9,1.3-1.5,3,0.5,4.5l7.1,2.1C828.7,473.3,840.8,474.4,840,471.8z"/>
<path class="st18" d="M794.1,478l-6.9-2.2c-1.9-1.4-1.4-3.2-0.5-4.5c0.6-0.8,1.6-1.4,2.6-1.5c0.5-0.1,0.9-0.2,1.3-0.5
	c0.4-0.2,0.8-0.6,1-1c0.5-0.8,0.7-1.7,0.7-2.7c0,0,7.4-2.5,9.5-0.4c0.4,0.4,0.7,0.8,1,1.3c0.7,1.5,1.1,3.1,1.1,4.8
	c0,0,0.5,2.4,1.2,5S794.1,478,794.1,478z"/>
<path class="st18" d="M827.2,473.4l-6.9-2.2c-1.9-1.5-1.4-3.2-0.5-4.5c0.6-0.9,1.6-1.4,2.6-1.5c0.3,0,0.5-0.1,0.8-0.2
	c0.2-0.1,0.3-0.2,0.5-0.3c1.9-1.1,1.7-3.7,1.7-3.7s7.4-2.5,9.5-0.4c0.3,0.3,0.5,0.6,0.8,0.9c0.9,1.6,1.3,3.3,1.3,5.1
	c0,0,0.5,2.4,1.2,5S827.2,473.4,827.2,473.4z"/>
<path class="st9" d="M801.8,465.4c0.4,0.4,0.7,0.8,1,1.3l0,0l-11.1,1.7c0.5-0.8,0.7-1.7,0.7-2.7
	C792.4,465.7,799.7,463.2,801.8,465.4z"/>
<path class="st9" d="M835.7,461.7l0.1,2.1c-1.6,2.9-10.1,2.6-12.6,1.3c0.2-0.1,0.3-0.2,0.5-0.3c1.9-1.1,1.7-3.7,1.7-3.7
	s7.4-2.5,9.5-0.4C835.2,461,835.5,461.3,835.7,461.7z"/>
<path class="st19" d="M836.7,452.6c-0.5,0.9-0.9,1.9-1.2,2.9l0.3,7.5c-1.8,3.2-11.7,2.5-13.1,0.9s-3-6.1-1.5-6.9s2.6-4.7,2.6-4.7
	s-1.6,0.5-4.3-2.5s-2.2-9.7-1.8-11.4s-0.3-7-0.3-7s0-3.8-0.9-5s-2.7-8.2-2.7-8.2c-0.1-1.3-0.6-2.6-1.5-3.6c-1.4-1.2-2.4-6-2.4-6
	c-0.8-1.2-1.2-2.6-1.1-4c0.2-2.4-1.8-4.9-1.8-4.9l-3.6-10.1l-3.3-7.6l-1.5,4.5c0,0-0.1,10.5,0.4,12.6s1.3,8,1.3,8s-1.8,3.9-0.8,7.1
	s1,10.1,1,10.1s1.4,14.3,0.7,15.5s-0.5,4-0.5,4s4.2,8.2,3,9.4s-0.7,4.3-0.7,4.3s2.7-0.1,1.6,1.1s-1.7,7.2-1.7,7.2l-11.4,1.8
	c-1.1-1.5-2-3.1-2.8-4.7c-1.7-3.5,0.2-3.1,1.7-3.6s0.5-1.4-1.3-2.4s-0.9-3.7-0.9-3.7s2.6-4.8,1.6-5.1s-1.3-6.9-1.3-6.9
	s-2.2-7.7-1.8-9.8s-1.8-7.1-1.8-7.1l-0.9-6c-2.2-3.3-3.1-7.3-2.5-11.2l-0.3-9.2c0,0-3.3-17.8-4.1-26.8c-0.5-5.8-0.7-13.7-0.8-18.6
	c-0.1-2.8-0.1-4.6-0.1-4.6l40.9-5.9c0.1,2,0.5,4.1,1,6.1c0.5,2.2,1.3,5.1,2.4,8.7c3.3,10.3,1.8,18.2,1.8,18.2l0.1,13.2
	c0,0,4,8.7,3.3,11.8c-0.4,1.8-0.6,3.7-0.5,5.5c0,0,8.8,19,8.2,24.6s3.2,14.3,3.2,14.3S837.6,450.8,836.7,452.6z"/>
<path class="st20" d="M811.3,404l12.4-2.1C823.7,401.8,816.9,409.3,811.3,404z"/>
<path class="st9" d="M821.5,389.7c0,0,0.6,4.4-2,6.2C819.4,395.9,824.2,394.9,821.5,389.7z"/>
<path class="st9" d="M820.2,375.7c0,0-10.1,9-13.9,8.4S820.2,375.7,820.2,375.7z"/>
<path class="st9" d="M796,408.6c0,0-7.9,2.1-8,5.3S796,408.6,796,408.6z"/>
<path class="st20" d="M799.3,448.2c0,0-11.1,2.5-7.9,3.8c2.8,1,5.6,1.7,8.5,2.2C799.9,454.2,803.5,454.3,799.3,448.2z"/>
<g class="st21">
	<path d="M789.2,454.4c-0.6-0.3-1-0.9-1.1-1.6L788,453c0,0-0.9,2.6,0.9,3.7l0.6,0.4c0.3-0.1,0.7-0.1,1-0.2
		C792,456.3,791,455.4,789.2,454.4z"/>
	<path d="M803.6,453c0.3-0.3,0.3-1,0-2c-0.4,0.9-0.6,1.8-0.5,2.8C803.2,453.5,803.4,453.2,803.6,453z"/>
	<path d="M800.1,405.8c-0.4,1.1-0.6,2.3-0.6,3.5c0.2-0.8,0.4-1.7,0.8-2.4C800.2,406.9,800.1,406.5,800.1,405.8z"/>
	<path d="M825.5,399.9c0.1-0.3,0.1-0.7,0.1-1c-0.1,0.7-0.2,1.4-0.2,2C825.4,400.4,825.5,400.2,825.5,399.9z"/>
	<path d="M801.1,439.6c0.2-0.7,0.3-1.4,0.2-2.1c-0.3,0.9-0.5,1.8-0.5,2.7C800.9,440,801,439.8,801.1,439.6z"/>
	<path d="M804.1,457.4c-0.5,1.9-0.9,3.9-1.1,5.9l-11.4,1.8c-1.1-1.5-2-3.1-2.8-4.7c-0.2-0.3-0.3-0.6-0.4-0.8
		c-0.7,0.3-0.9,1.1,0.1,3.1c0.7,1.7,1.7,3.3,2.8,4.8l11.4-1.8c0,0,0.6-6,1.7-7.2C805,457.8,804.6,457.6,804.1,457.4z"/>
	<path d="M788.3,441c0,0,0.3,6.5,1.3,6.9l0,0c0.4-1.1,0.7-2.1,0.3-2.3c-1-0.4-1.3-6.9-1.3-6.9s-2.2-7.7-1.8-9.8s-1.8-7.1-1.8-7.1
		l-0.9-6c-2.2-3.3-3.1-7.3-2.5-11.2l-0.4-9.2c0,0-3.3-17.8-4.1-26.8c-0.5-5.8-0.7-13.7-0.8-18.6c0-0.9,0-1.7,0-2.3h-0.3
		c0,0,0,1.8,0.1,4.6c0.1,4.9,0.3,12.8,0.8,18.6c0.7,9,4.1,26.8,4.1,26.8l0.3,9.2c-0.5,4,0.4,8,2.6,11.3l0.9,6c0,0,2.2,5,1.8,7.1
		S788.3,441,788.3,441z"/>
	<path d="M822.9,461.3c-1-1.3-1.7-2.8-2-4.5c-1.1,1.1,0.4,5.2,1.7,6.7s11.3,2.3,13.1-0.9l-0.1-1.8
		C833.2,463.6,824.3,462.9,822.9,461.3z"/>
	<path d="M837,450c-0.5,0.9-0.9,1.9-1.2,2.9l0,1.3c0.3-0.7,0.6-1.3,0.9-1.9C837,451.6,837.1,450.8,837,450L837,450z"/>
	<path d="M823.2,452.1c0.3-0.7,0.6-1.5,0.8-2.3c0,0-1.6,0.5-4.3-2.5c-2-2.1-2.2-6.3-2-9c-0.4,1.6-0.9,8.4,1.8,11.4
		C821.2,451.5,822.5,452,823.2,452.1z"/>
	<path d="M817.4,431.2c0.2,1.9,0.4,3.7,0.4,5.6c0-0.4,0.1-0.7,0.2-0.9c0.4-1.6-0.3-7-0.3-7s-0.1-3.8-0.9-5s-2.7-8.2-2.7-8.2
		c-0.1-1.3-0.6-2.6-1.5-3.6c-1.4-1.2-2.4-6-2.4-6c-0.8-1.2-1.2-2.6-1.1-4c0.2-2.4-1.8-4.9-1.8-4.9l-3.6-10.1l-3.3-7.6l-1.5,4.5v1.5
		l1.2-3.7l3.3,7.6l3.6,10.1c0,0,2,2.5,1.8,4.9c-0.1,1.4,0.3,2.8,1.1,4c0,0,1,4.8,2.4,6c0.9,1,1.4,2.2,1.5,3.5c0,0,1.9,7,2.7,8.2
		S817.4,431.2,817.4,431.2z"/>
</g>
<path class="st22" d="M818.7,256.1l-0.6,3.5l0.1,1.5l0.1,1.1l-4,0.6l-0.5-0.8l0,0c-1-1.7-2-3.3-3.3-4.9c-0.8-0.6-2.4-10.2-0.8-9.7
	c1,0.3,1.8,1,2.3,1.9C812,249.4,819.8,250,818.7,256.1z"/>
<path class="st9" d="M818.3,262.3l-4,0.6l-0.5-0.8l0,0c1-1.3,2.9-1.7,4.3-0.9L818.3,262.3z"/>
<path class="st23" d="M819.3,264.1l-5.2,1.4l-0.1-0.8l-0.4-2.1c1.1-1.6,3.4-2,5-0.9l0.3,1.1L819.3,264.1z"/>
<path class="st22" d="M734.4,259.7l-5.5,3.2l-0.5-1c-0.6-1.1-1.4-2.7-1.7-3.3c-0.4-0.9-2.7-2-2.7-2c-6.1-5.4,0.7-10.4,0.7-10.4
	c3.4-7.5,7.9,2.2,7.9,2.2s0.8,5.2,0.4,5.6s-0.3,1.8-0.3,1.8c0.6,1,1.1,2.1,1.5,3.1C734.3,259.4,734.4,259.7,734.4,259.7z"/>
<path class="st9" d="M734.4,259.7l-5.5,3.2l-0.5-1c0.8-0.7,3.5-3.1,4.4-3c0.4,0,0.9,0,1.3,0C734.3,259.4,734.4,259.7,734.4,259.7z"
	/>
<path class="st23" d="M735,261.4l-6.1,3.3l-0.2-1.4l-0.1-0.9c0,0,3.5-3.3,4.6-3.2c0.5,0.1,1.1,0,1.6-0.1l0.1,1.1L735,261.4z"/>
<path class="st22" d="M804.3,279.7c0,0-27.2,4.1-22.2,2.3c3.5-1.3,4.8-3.6,5-6.1c0.1-2.2-0.4-4.3-1.3-6.3c-0.7-1.7-1.6-3.3-2.6-4.8
	c0,0,20.5-12.3,16.7-1.7c-0.6,1.6-0.9,3.3-1,5c-0.1,1.7,0.2,3.4,0.7,5C800.6,275.7,802.2,278,804.3,279.7z"/>
<path class="st9" d="M800,263c-0.6,1.6-0.9,3.3-1,5c-1.9,1.7-4.1,1.7-6.8,1.8c-2.1,0.1-4.5,0.7-6.2-0.3c-0.7-1.7-1.6-3.3-2.6-4.8
	C783.3,264.7,803.8,252.4,800,263z"/>
<circle class="st22" cx="791.4" cy="259.3" r="11.3"/>
<path class="st9" d="M804.3,279.7c0,0-27.2,4.1-22.2,2.3c3.5-1.3,4.8-3.6,5-6.1c1.3-1.5,4-2.7,5.7-3.3c1.6-0.6,3.3-0.7,5-0.3
	c0.6,0.2,1.3,0.4,1.8,0.8C800.6,275.6,802.2,278,804.3,279.7z"/>
<path class="st9" d="M819.3,264.1l-5.2,1.4l-0.1-0.8c1.1-1.6,3.1-2.4,5-1.9L819.3,264.1z"/>
<path class="st9" d="M735,261.4l-6.1,3.3l-0.2-1.4c2-1.2,4.1-2.2,6.2-3L735,261.4z"/>
<path class="st9" d="M817.8,348.2c-10.5,2.1-25.5,4.8-27.9,4.2c-2-0.5-8.3-0.2-13.8,0.2c-0.1-2.8-0.1-4.6-0.1-4.6l40.9-5.9
	C817,344.2,817.3,346.2,817.8,348.2z"/>
<path class="st24" d="M828.3,345.3c0,0-34.6,7.3-38.4,6.3s-23,1-23,1c-8.4,6.1-5.1-2.6-5.1-2.6c-0.5-2.7-0.5-5.4,0-8.1
	c0.6-2.7,1-5.4,1.1-8.2c0,0-0.4-5.7,0.6-7.1s1.9-10.9,1.9-10.9s0.7-6.5,0.6-7.9s0.1-5.4,0.1-5.4l1-6.7c-7.2-0.7-29.3-13.1-29.3-13.1
	c-1.2-4.4-9.7-14.6-9.7-14.6c-0.1-0.9-0.4-1.7-0.8-2.5c-0.6-1.5,7.8-4.9,7.8-4.9s6.7,7.5,8.1,9.6s6.1,5.8,6.1,5.8
	c0.7-0.1,1.4,0,2.1,0.2c0,0,0.1,0,0.1,0l0,0c1.6,0.5,3,1.3,4.3,2.3c2.1-0.1,4.2,0.6,5.9,2c0,0,3.9-0.7,4.6-0.1s4-0.1,4-0.1
	s3-7.2,5.3-5.2s11.5,1.5,11.5,1.5c1.2-1.7,4.1-3,6-3.7c1.6-0.6,3.3-0.7,5-0.3c0.7,0.2,1.4,0.5,2,0.9l5.8,5.3c0,0,1.5-2.1,1.3-2.6
	s1.9-0.9,1.9-0.9s2.7-1,3.8-1.3s2,0.8,2.1,0.9c-0.5-1.3-0.7-2.7-0.6-4.1c0-1.2-0.4-2.5-1.3-3.4c3-8.3,10.8-1.8,10.8-1.8
	s1,4.4,0.3,6.2s1,5.3,0.8,6.2s0.5,2.5,0.5,4.4c-0.1,2.3-0.5,4.6-1.3,6.8c-0.5,1.5-4.9,5.1-4.9,5.1s-0.1,5.4-2,8.6
	s-0.2,13.9-0.2,13.9s2.2,8.3,4.7,10.9S828.3,345.3,828.3,345.3z"/>
<path class="st9" d="M775,284.7c0,0-1.2-3.1-2.1-3.3c-1-0.3-1.9-0.7-2.8-1.1l0.6-1.2c0,0,3.6,0.8,4.2,1.9S775,284.7,775,284.7z"/>
<path class="st9" d="M755.7,278.5c-0.2,1-8.6,2.1-8.6,2.1l4.1-4.5l0,0h0.1l0,0C752.9,276.8,754.4,277.6,755.7,278.5z"/>
<circle class="st19" cx="730.7" cy="266.4" r="0.8"/>
<circle class="st19" cx="731.8" cy="267.9" r="0.8"/>
<circle class="st19" cx="732.8" cy="269.3" r="0.8"/>
<circle class="st19" cx="733.8" cy="270.8" r="0.8"/>
<circle class="st19" cx="823.4" cy="267.2" r="0.6"/>
<circle class="st19" cx="823.5" cy="268.6" r="0.6"/>
<circle class="st19" cx="823.7" cy="270" r="0.6"/>
<path class="st9" d="M776.1,310.5c-0.1-0.1,22.4,26.1,38.4,9.8C814.5,320.3,788.3,324.9,776.1,310.5z"/>
<path class="st9" d="M764.3,325c0,0,12.8-0.1,14.3,3.5l0.1,3.8c-0.7,0.4-1.6,0.5-2.4,0.1c-1.3-0.6-9.2-4.3-11.9-2.3L764.3,325z"/>
<path class="st24" d="M764.6,325c0,0,12.3-0.1,13.7,3.3l0.1,3.7c-0.7,0.4-1.6,0.4-2.3,0.1c-1.3-0.6-8.8-4.1-11.4-2.2L764.6,325z"/>
<path class="st9" d="M770.2,296.9c1.4,3,3.2,5.8,5.3,8.3c2.3,2.8,5,5.3,8.1,7.2C783.6,312.5,770.5,298.7,770.2,296.9z"/>
<path class="st9" d="M765.5,282.2c0,0,2.5,9.1,8.1,12.1L765.5,282.2z"/>
<path class="st9" d="M762.2,283.2c-0.1-0.2-1.6,7.4,7.5,11.2C769.8,294.4,765.9,293.3,762.2,283.2z"/>
<path class="st9" d="M818,274.9c-0.1,0,4.6,2.8,5.8,4C823.8,279,820.7,274.6,818,274.9z"/>
<path class="st18" d="M788.7,269.6c0.1,0.6,0.5,1.1,0.9,1.5c0.3,0.1,0.7,0.2,1.1,0.2c3.5,0.1,7,0.1,10.2-1.4
	c0.6-0.2,1.1-0.6,1.5-1.1c0.4-0.8,0.7-1.6,0.8-2.5c0.5-1.7,1.1-3.3,1.9-4.9c1-2.8,1.3-5.8,0.8-8.7c-0.1-0.9-0.5-1.7-1-2.5
	c-1-1.3-2.7-1.7-3.9-2.7s-2.1-2.5-3.5-3.3c-1.4-0.5-2.9-0.6-4.3-0.2c-2.8,0.6-5.5,1.7-7.8,3.3c-0.7,0.6-1.7,1-2.6,1
	c-0.8-0.2-1.5-0.7-2-1.4c-0.6,1.6-0.8,3.3-0.7,5c0,0.2,0,0.5,0,0.8c-0.1,0.3-0.3,0.6-0.5,0.8c-0.8,1-1.3,2.6-0.4,3.6
	c0.4,0.4,1,0.6,1.3,1.1c0.7,0.8,0.5,1.9,0.5,2.9c0,0.4,0.1,0.7,0.3,1c0.4,0.3,0.9,0.4,1.4,0.3c0.5-0.2,1-0.2,1.5-0.2
	c0.5,0.2,1,0.5,1.3,1C787.1,265,788.1,267.3,788.7,269.6z"/>
<g class="st14">
	<path d="M802.8,268c-0.4,0.5-0.9,0.9-1.5,1.1c-3.1,1.5-6.7,1.4-10.2,1.4c-0.4,0-0.7,0-1.1-0.2c-0.5-0.4-0.8-0.9-0.9-1.5
		c-0.6-2.4-1.6-4.6-3.1-6.6c-0.3-0.5-0.8-0.8-1.3-0.9c-0.5,0-1,0-1.5,0.2c-0.5,0.2-1,0-1.4-0.3c-0.2-0.3-0.3-0.6-0.3-1
		c0-1,0.2-2.2-0.5-2.9c-0.4-0.4-0.9-0.6-1.3-1.1c-0.5-0.6-0.6-1.5-0.3-2.3c-0.6,0.9-0.6,2.1,0,3c0.4,0.4,1,0.6,1.3,1.1
		c0.7,0.8,0.5,1.9,0.5,2.9c0,0.4,0.1,0.7,0.3,1c0.4,0.3,0.9,0.4,1.4,0.3c0.5-0.2,1-0.2,1.5-0.2c0.5,0.2,1,0.5,1.3,1
		c1.5,1.9,2.6,4.2,3.1,6.6c0.1,0.6,0.4,1.1,0.9,1.5c0.3,0.1,0.7,0.2,1.1,0.2c3.5,0.1,7,0.1,10.2-1.4c0.6-0.2,1.1-0.6,1.5-1.1
		c0.2-0.3,0.4-0.6,0.5-0.9L802.8,268z"/>
	<path d="M780.1,252.4c0.1-0.2,0.3-0.4,0.3-0.6c0-0.2,0-0.5,0-0.7c-0.1-1.4,0-2.8,0.4-4.1l-0.1-0.1c-0.6,1.6-0.8,3.3-0.7,5
		C780.1,252.1,780.2,252.2,780.1,252.4z"/>
</g>
<path class="st9" d="M787,276.6c0,0,14.2,1.3,15.4-0.9"/>
<path class="st9" d="M814.2,269.7c0,0,7.8-0.3,9.7,2.6"/>
<rect x="827.4" y="620.3" transform="matrix(1.570794e-03 -1 1 1.570794e-03 207.1341 1521.9805)" class="st6" width="76.7" height="74"/>
<rect x="827.4" y="620.3" transform="matrix(1.570794e-03 -1 1 1.570794e-03 207.1341 1521.9805)" class="st6" width="76.7" height="74"/>
<path class="st16" d="M866.8,684.6V671l6.3,6.3l1.6-1.6l-9-9l-9,9l1.6,1.6l6.3-6.2v13.7L866.8,684.6z"/>
<path class="st5" d="M853.4,638.4h12.3v-12.3c-0.3,0-0.6,0-0.9,0c-6.3,0-11.4,5.1-11.4,11.4c0,0,0,0,0,0
	C853.4,637.8,853.4,638.1,853.4,638.4z"/>
<path class="st5" d="M857.6,646.4c3.9,4.9,11.1,5.7,16.1,1.8c4.9-3.9,5.7-11.1,1.8-16.1c-2-2.5-4.9-4-8-4.2v12.2h-12.3
	C855.3,642.4,856.2,644.6,857.6,646.4z"/>
<path class="st0" d="M213.8,103.3c-6.5,13.3-17,28.5-28.9,22.7c-11.9-5.8-20.8-30.4-14.4-43.7c6.5-13.3,21.4-19.4,33.4-13.6
	S220.2,89.9,213.8,103.3z"/>
<path class="st0" d="M188.3,134.4c0,0-2.3-0.4-1.4-2.3c0.1-0.2,0.2-0.3,0.3-0.5c0.4-0.5,0.6-1.2,0.8-1.8c0.1-0.2,0.1-0.5,0.1-0.7
	c0.1-1,0.1-2.1-0.1-3.1l6.4-0.4c0,0-2.5,2.1-2.2,3.2c0,0.2,0.1,0.3,0.3,0.4c0.1,0.1,0.3,0.1,0.4,0.2c0.2,0,0.3,0.1,0.5,0.1
	c1.7,0.6,1,1.4,1,1.4C194,133.7,188.3,134.4,188.3,134.4z"/>
<path class="st1" d="M192.3,129.2l-4.5,0.6c0.1-0.2,0.1-0.5,0.1-0.7c1.1,0,2.9-0.2,4.1-0.3C192.1,129,192.2,129.1,192.3,129.2z"/>
<path class="st0" d="M188.3,134.4c0,0-2.3-0.4-1.4-2.3c0.9,0.2,1.8,0.3,2.8,0.1c1.5-0.4,2.8-1.3,3.7-2.7c1.7,0.6,1,1.4,1,1.4
	C194,133.7,188.3,134.4,188.3,134.4z"/>
<path class="st9" d="M188.3,134.4c0,0-2.3-0.4-1.4-2.3c0.9,0.2,1.8,0.3,2.8,0.1c1.5-0.4,2.8-1.3,3.7-2.7c1.7,0.6,1,1.4,1,1.4
	C194,133.7,188.3,134.4,188.3,134.4z"/>
<path class="st25" d="M191.6,70c0,0-7.1-0.8-9.1,3.9c0.9-0.1,1.7-0.1,2.5,0.2c0.5,0.2,1.1,0.3,1.7,0.3
	C187.8,72.4,189.6,70.9,191.6,70z"/>
<path class="st0" d="M177.5,166.7c-1.2,1.3-2.5,2.4-4,3.3c-0.4,0.3-0.8,0.5-1.3,0.8c-11.3,6.2-31.3,6.3-40.7-1.9
	c-8.8-7.7-11.8-19.3-8.4-28.7c0.2-0.5,0.4-0.9,0.6-1.4c0.9-2.1,2.1-4,3.6-5.7c7.1-8.1,19-9.7,29.2-4.8c0.9,0.4,1.8,0.9,2.6,1.4
	c0.4,0.2,0.8,0.5,1.2,0.8c1,0.7,2.1,1.5,3,2.3c0.5,0.5,1,0.9,1.6,1.4l0.1,0.1c3.2,2.9,6.2,6.1,8.9,9.4c0.8,1.1,1.6,2.1,2.3,3.2
	c0.5,0.7,1,1.5,1.4,2.2c1.9,3,2.9,6.5,2.9,10c0,0.3,0,0.6-0.1,1v0.1c-0.2,1.3-0.5,2.5-1.1,3.7C178.9,164.9,178.3,165.8,177.5,166.7z
	"/>
<path class="st9" d="M177.5,166.7c-1.2,1.3-2.5,2.4-4,3.3c-0.4,0.3-0.8,0.5-1.3,0.8c-11.3,6.2-31.3,6.3-40.7-1.9
	c-8.8-7.7-11.8-19.3-8.4-28.7c0.2-0.5,0.4-0.9,0.6-1.4c0.9-2.1,2.1-4,3.6-5.7c7.1-8.1,19-9.7,29.2-4.8c0.9,0.4,1.8,0.9,2.6,1.4
	c0.4,0.2,0.8,0.5,1.2,0.8c1,0.7,2.1,1.5,3,2.3c0.5,0.5,1,0.9,1.6,1.4l0.1,0.1c3.2,2.9,6.2,6.1,8.9,9.4c0.8,1.1,1.6,2.1,2.3,3.2
	c0.5,0.7,1,1.5,1.4,2.2c1.9,3,2.9,6.5,2.9,10c0,0.3,0,0.6-0.1,1v0.1c-0.2,1.3-0.5,2.5-1.1,3.7C178.9,164.9,178.3,165.8,177.5,166.7z
	"/>
<path class="st0" d="M184,166.4c-0.1-0.1-0.3-0.3-0.4-0.4c-0.4-0.5-0.9-0.9-1.5-1.2c-0.2-0.1-0.4-0.2-0.6-0.3
	c-0.6-0.3-1.3-0.5-2-0.6c-0.3-0.1-0.7-0.1-1-0.1l0.9-4.3v-0.1l0.4-1.9c0.3,0.5,0.6,1.1,0.9,1.6c0.5,0.7,1,1.4,1.6,1.4
	c0.2,0,0.3-0.1,0.4-0.2c0.1-0.1,0.2-0.2,0.3-0.4c0.1-0.2,0.2-0.3,0.3-0.4c1-1.4,1.6-0.5,1.6-0.5c1.1,0.4,1.6,1.8,1.8,3.1
	c0,0.2,0,0.4,0.1,0.6c0.1,1,0,1.9-0.1,2.9C186.6,165.7,185.6,167.8,184,166.4z"/>
<path class="st1" d="M182.1,164.8c-0.2-0.1-0.4-0.2-0.6-0.3c0.2-0.9,0.5-2.3,0.7-3.4c0-0.1,0-0.1,0.1-0.2c0-0.1,0-0.2,0.1-0.3
	c0.2,0,0.3-0.1,0.4-0.2l-0.1,0.7v0.3L182.1,164.8z"/>
<path class="st0" d="M184,166.4c0.4-0.8,0.7-1.7,0.8-2.6c0-0.6,0-1.1-0.2-1.6c-0.1-0.2-0.1-0.3-0.1-0.5c-0.2-0.8-0.7-1.5-1.3-2.1
	c1-1.4,1.6-0.5,1.6-0.5c1.1,0.4,1.6,1.8,1.8,3.1c0,0.2,0,0.4,0.1,0.6c0.1,1,0,1.9-0.1,2.9C186.6,165.7,185.6,167.8,184,166.4z"/>
<path class="st9" d="M184,166.4c0.4-0.8,0.7-1.7,0.8-2.6c0-0.6,0-1.1-0.2-1.6c-0.1-0.2-0.1-0.3-0.1-0.5c-0.2-0.8-0.7-1.5-1.3-2.1
	c1-1.4,1.6-0.5,1.6-0.5c1.1,0.4,1.6,1.8,1.8,3.1c0,0.2,0,0.4,0.1,0.6c0.1,1,0,1.9-0.1,2.9C186.6,165.7,185.6,167.8,184,166.4z"/>
<path class="st25" d="M125.5,145.1c0,0-2.7,6.6,1.3,9.8c0.1-0.9,0.4-1.7,0.8-2.4c0.4-0.4,0.6-1,0.8-1.5
	C126.7,149.5,125.7,147.4,125.5,145.1z"/>
<path class="st0" d="M227.3,125.3c-5.4,3.5-11.6,6.8-17.6,8.6c-4.5,1.4-8.9,1.8-12.6,0.7c-1.6-0.5-3-1.3-4.3-2.5
	c-0.8-0.8-1.5-1.6-2.1-2.6c-4.2-6.6-4.1-18.2-0.8-28.3c2.3-7,6.2-13.2,11.3-16.5c12.5-8,28.4-5.4,35.6,5.8S239.7,117.3,227.3,125.3z
	"/>
<path class="st9" d="M227.3,125.3c-5.4,3.5-11.6,6.8-17.6,8.6c-4.5,1.4-8.9,1.8-12.6,0.7c-1.6-0.5-3-1.3-4.3-2.5
	c-0.8-0.8-1.5-1.6-2.1-2.6c-4.2-6.6-4.1-18.2-0.8-28.3c2.3-7,6.2-13.2,11.3-16.5c12.5-8,28.4-5.4,35.6,5.8S239.7,117.3,227.3,125.3z
	"/>
<path class="st0" d="M196.1,138.7c-1.6,2.2-6.9-0.1-6.9-0.1s-1.8-1.6,0-2.7c0.2-0.1,0.3-0.2,0.5-0.3c0.6-0.3,1.1-0.7,1.6-1.1
	c0.2-0.2,0.3-0.3,0.5-0.5c0.4-0.5,0.8-1.1,1.1-1.8c0.2-0.3,0.3-0.6,0.4-0.9l5.6,3c-0.6,0.1-1.2,0.2-1.8,0.4
	c-0.8,0.3-1.6,0.6-1.8,1.2c-0.1,0.2-0.1,0.3,0,0.5c0.1,0.1,0.2,0.3,0.3,0.4c0.1,0.1,0.2,0.2,0.3,0.4
	C197.2,138.3,196.1,138.7,196.1,138.7z"/>
<path class="st1" d="M195.4,136.2l-4.1-1.8c0.2-0.2,0.3-0.3,0.5-0.5c1,0.5,2.6,1.4,3.6,1.9C195.4,135.9,195.4,136.1,195.4,136.2z"/>
<path class="st0" d="M196.1,138.7c-1.6,2.2-6.9-0.1-6.9-0.1s-1.8-1.6,0-2.7c0.7,0.7,1.4,1.2,2.3,1.5c1.5,0.5,3.1,0.3,4.5-0.4
	C197.2,138.3,196.1,138.7,196.1,138.7z"/>
<path class="st9" d="M196.1,138.7c-1.6,2.2-6.9-0.1-6.9-0.1s-1.8-1.6,0-2.7c0.7,0.7,1.4,1.2,2.3,1.5c1.5,0.5,3.1,0.3,4.5-0.4
	C197.2,138.3,196.1,138.7,196.1,138.7z"/>
<path class="st25" d="M225.7,85.4c0,0-5.6-4.4-9.8-1.5c0.8,0.3,1.5,0.8,2.1,1.5c0.3,0.5,0.8,0.9,1.3,1.1
	C221.2,85.4,223.5,85,225.7,85.4z"/>
<g class="st14">
	<path d="M114.6,120.8c-0.5,0.7-0.7,1.6-0.8,2.4c-4-3.2-1.3-9.8-1.3-9.8c0.2,2.2,1.2,4.3,2.9,5.9C115.3,119.8,115,120.4,114.6,120.8
		z"/>
	<path d="M165.5,132l1.3-6.2c0.3,0.5,0.6,1.1,0.9,1.6c0,1.7-0.5,3.3-1.2,4.8C166.1,132.1,165.8,132.1,165.5,132z"/>
	<path d="M165.1,134.2c-0.2,0.2-0.4,0.5-0.5,0.7c-1.2,1.3-2.5,2.4-4,3.3c-0.4,0.3-0.8,0.5-1.3,0.8c-9.7,5.3-25.8,6.2-36.1,1.1
		c0.9-2.6,2.4-5,4.2-7.1c7.1-8.1,19-9.7,29.2-4.8c2.5,1.2,4.8,2.7,6.8,4.5C164,133.2,164.6,133.7,165.1,134.2z"/>
	<path d="M171,134.7c-0.1-0.1-0.3-0.3-0.4-0.4c-0.4-0.5-0.9-0.9-1.5-1.2c-0.2-0.1-0.4-0.2-0.6-0.3c-0.6-0.3-1.3-0.5-2-0.6
		c-0.3-0.1-0.7-0.1-1-0.1l1.3-6.2c0.3,0.5,0.6,1.1,0.9,1.6c0.5,0.7,1.1,1.4,1.6,1.4c0.2,0,0.3-0.1,0.4-0.2c0.1-0.1,0.2-0.2,0.3-0.4
		l0.3-0.4c1-1.4,1.6-0.5,1.6-0.5c2.6,0.9,1.7,6.6,1.7,6.6S172.6,136,171,134.7z"/>
	<path d="M169.1,133.1c-0.2-0.1-0.4-0.2-0.6-0.3c0.3-1.1,0.6-2.9,0.8-4c0.2,0,0.3-0.1,0.4-0.2L169.1,133.1z"/>
	<path d="M171,134.7c0.4-0.8,0.7-1.7,0.8-2.6c0-1.6-0.5-3.1-1.6-4.3c1-1.4,1.6-0.5,1.6-0.5c2.6,0.9,1.7,6.6,1.7,6.6
		S172.6,136,171,134.7z"/>
	<path class="st9" d="M171,134.7c0.4-0.8,0.7-1.7,0.8-2.6c0-1.6-0.5-3.1-1.6-4.3c1-1.4,1.6-0.5,1.6-0.5c2.6,0.9,1.7,6.6,1.7,6.6
		S172.6,136,171,134.7z"/>
	<path class="st9" d="M113.8,123.2c-4-3.2-1.3-9.8-1.3-9.8c0.2,2.2,1.2,4.3,2.9,5.9c-0.1,0.6-0.4,1.1-0.8,1.5
		C114.2,121.5,113.9,122.3,113.8,123.2z"/>
</g>
<path class="st0" d="M165.4,133.7l-0.4,0.4c-1.1,1.1-2.3,2.1-3.6,2.9l-0.4,0.2c-0.3,0.2-0.6,0.4-0.9,0.5c-9.8,5.4-26.1,6.2-36.3,1
	c-1.6-0.8-3-1.7-4.3-2.9c-11.1-9.8-13-25.8-4.2-35.8c7.1-8.1,19-9.7,29.2-4.8c0.3,0.2,0.6,0.3,0.9,0.5c2.1,1.1,4.1,2.4,5.9,4
	c3.9,3.3,7.4,7,10.6,11c0.6,0.8,1.3,1.7,1.8,2.5c0.2,0.2,0.3,0.5,0.4,0.7c0.3,0.4,0.5,0.8,0.8,1.2s0.4,0.7,0.6,1c1.9,3,2.9,6.5,3,10
	c0,1.7-0.5,3.3-1.2,4.8C166.8,131.9,166.2,132.9,165.4,133.7z"/>
<path class="st0" d="M171.9,133.4c-0.1-0.1-0.3-0.3-0.4-0.4c-0.4-0.5-0.9-0.9-1.5-1.2c-0.2-0.1-0.4-0.2-0.6-0.3
	c-0.6-0.3-1.3-0.5-2-0.6c-0.3-0.1-0.7-0.1-1-0.1l1.3-6.2c0.3,0.5,0.6,1.1,0.9,1.6c0.5,0.7,1,1.4,1.6,1.4c0.2,0,0.3-0.1,0.4-0.2
	c0.1-0.1,0.2-0.2,0.3-0.4c0.1-0.2,0.2-0.3,0.3-0.4c1-1.4,1.6-0.5,1.6-0.5c2.6,0.9,1.7,6.6,1.7,6.6S173.5,134.8,171.9,133.4z"/>
<path class="st1" d="M169.9,131.8c-0.2-0.1-0.4-0.2-0.6-0.3c0.3-1.1,0.6-2.9,0.8-4c0.2,0,0.3-0.1,0.4-0.2L169.9,131.8z"/>
<path class="st0" d="M171.9,133.4c0.4-0.8,0.7-1.7,0.8-2.6c0-1.6-0.5-3.1-1.6-4.2c1-1.4,1.6-0.5,1.6-0.5c2.6,0.9,1.7,6.6,1.7,6.6
	S173.5,134.8,171.9,133.4z"/>
<path class="st9" d="M171.9,133.4c0.4-0.8,0.7-1.7,0.8-2.6c0-1.6-0.5-3.1-1.6-4.2c1-1.4,1.6-0.5,1.6-0.5c2.6,0.9,1.7,6.6,1.7,6.6
	S173.5,134.8,171.9,133.4z"/>
<path class="st25" d="M113.3,112.2c0,0-2.7,6.6,1.3,9.8c0.1-0.9,0.4-1.7,0.8-2.4c0.4-0.4,0.6-1,0.8-1.5
	C114.6,116.5,113.6,114.4,113.3,112.2z"/>
<g class="st14">
	<path d="M154.2,67.6c-0.5,0.2-1.1,0.3-1.7,0.2c-0.9,0-1.7,0.3-2.5,0.7c0.4-5.1,7.4-6.6,7.4-6.6C155.8,63.3,154.6,65.3,154.2,67.6z"
		/>
	<path d="M164.2,113.9c0.5,0.7,0.9,1.5,1.4,2.2c-1-0.3-1.9-0.7-2.8-1.2c-7.2-3.6-14.3-11.4-18.3-19.7c2.5,1.2,4.8,2.7,6.8,4.5
		c3.9,3.3,7.4,7,10.6,11C162.7,111.8,163.5,112.8,164.2,113.9z"/>
	<path d="M177.1,115.3c-1.4,0.9-3,1.5-4.6,1.7c-0.1-0.3-0.3-0.6-0.5-0.9l5.9-2.4C177.5,114.2,177.3,114.7,177.1,115.3z"/>
	<path d="M175,123.9c0,0-2.3,0.4-2.1-1.7c0-0.2,0.1-0.4,0.1-0.6c0.2-0.6,0.2-1.3,0.1-1.9c0-0.2-0.1-0.5-0.1-0.7
		c-0.1-0.7-0.3-1.4-0.6-2c-0.1-0.3-0.3-0.6-0.5-0.9l5.9-2.4c-0.3,0.5-0.6,1.1-0.8,1.6c-0.3,0.8-0.5,1.6-0.2,2.1
		c0.1,0.1,0.2,0.2,0.4,0.3c0.1,0,0.3,0,0.4,0h0.5c1.8,0,1.4,1,1.4,1C180.2,121.4,175,123.9,175,123.9z"/>
	<path d="M177.2,117.7l-4,2c0-0.2-0.1-0.5-0.1-0.7c1.1-0.4,2.7-1.1,3.7-1.6C176.9,117.5,177.1,117.6,177.2,117.7z"/>
	<path d="M175,123.9c0,0-2.3,0.4-2.1-1.7c0.9-0.1,1.8-0.4,2.6-0.8c1.3-0.9,2.2-2.2,2.6-3.7c1.8,0,1.4,1,1.4,1
		C180.2,121.4,175,123.9,175,123.9z"/>
	<path class="st9" d="M175,123.9c0,0-2.3,0.4-2.1-1.7c0.9-0.1,1.8-0.4,2.6-0.8c1.3-0.9,2.2-2.2,2.6-3.7c1.8,0,1.4,1,1.4,1
		C180.2,121.4,175,123.9,175,123.9z"/>
	<path class="st9" d="M154.2,67.6c-0.5,0.2-1.1,0.3-1.7,0.2c-0.9,0-1.7,0.3-2.5,0.7c0.4-5.1,7.4-6.6,7.4-6.6
		C155.8,63.3,154.6,65.3,154.2,67.6z"/>
</g>
<path class="st0" d="M177.5,114.7c-1.4,0.9-3,1.5-4.6,1.8c-1.1,0.2-2.2,0.2-3.3,0c-1.6-0.2-3.1-0.6-4.6-1.2
	c-0.6-0.2-1.2-0.5-1.8-0.8l-0.1-0.1c-6.8-3.5-13.6-10.7-17.6-18.6c-2.8-5.4-4.2-11-3.6-16c1.8-14.7,14-25.3,27.2-23.7
	s22.4,14.9,20.6,29.5c-0.6,5.1-1.6,10.1-3.1,14.9c-0.1,0.4-0.3,0.8-0.4,1.3C184.1,107.4,181.4,112.2,177.5,114.7z"/>
<path class="st9" d="M177.5,114.7c-1.4,0.9-3,1.5-4.6,1.8c-1.1,0.2-2.2,0.2-3.3,0c-1.6-0.2-3.1-0.6-4.6-1.2
	c-0.6-0.2-1.2-0.5-1.8-0.8l-0.1-0.1c-6.8-3.5-13.6-10.7-17.6-18.6c-2.8-5.4-4.2-11-3.6-16c1.8-14.7,14-25.3,27.2-23.7
	s22.4,14.9,20.6,29.5c-0.6,5.1-1.6,10.1-3.1,14.9c-0.1,0.4-0.3,0.8-0.4,1.3C184.1,107.4,181.4,112.2,177.5,114.7z"/>
<path class="st0" d="M175.5,123.3c0,0-2.3,0.4-2.1-1.7c0-0.2,0.1-0.4,0.1-0.6c0.2-0.6,0.2-1.3,0.1-1.9c0-0.2-0.1-0.5-0.1-0.7
	c-0.1-0.7-0.3-1.4-0.6-2c-0.1-0.3-0.3-0.6-0.5-0.9l5.9-2.4c-0.3,0.5-0.6,1.1-0.8,1.6c-0.3,0.8-0.5,1.6-0.2,2.1
	c0.1,0.1,0.2,0.2,0.4,0.3c0.1,0,0.3,0,0.4,0h0.5c1.8,0,1.4,1,1.4,1C180.6,120.8,175.5,123.3,175.5,123.3z"/>
<path class="st1" d="M177.6,117l-4,2c0-0.2-0.1-0.5-0.1-0.7c1.1-0.4,2.7-1.1,3.7-1.6C177.4,116.9,177.5,117,177.6,117z"/>
<path class="st0" d="M175.5,123.3c0,0-2.3,0.4-2.1-1.7c0.9-0.1,1.8-0.4,2.6-0.8c1.3-0.9,2.2-2.2,2.6-3.7c1.8,0,1.4,1,1.4,1
	C180.6,120.8,175.5,123.3,175.5,123.3z"/>
<path class="st9" d="M175.5,123.3c0,0-2.3,0.4-2.1-1.7c0.9-0.1,1.8-0.4,2.6-0.8c1.3-0.9,2.2-2.2,2.6-3.7c1.8,0,1.4,1,1.4,1
	C180.6,120.8,175.5,123.3,175.5,123.3z"/>
<path class="st25" d="M157.9,61.2c0,0-7,1.5-7.4,6.6c0.8-0.4,1.6-0.6,2.5-0.7c0.6,0.1,1.1,0,1.7-0.2C155,64.7,156.2,62.7,157.9,61.2
	z"/>
<path class="st0" d="M251.1,174.6c-8.7,10.1-24.8,10.4-36,0.7c-5.4-4.7-11.1-10.4-14.4-16.2c-1.9-3-2.9-6.5-3-10
	c0-1.7,0.4-3.3,1.1-4.8c0.5-1,1.1-1.9,1.9-2.8c2.5-2.6,5.5-4.6,8.9-5.9c11.5-4.6,28.5-4.1,37,3.3
	C257.7,148.6,259.8,164.6,251.1,174.6z"/>
<path class="st0" d="M198.5,150.7c-0.3-0.5-0.6-1.1-0.9-1.6c-0.5-0.7-1.1-1.4-1.6-1.4c-0.2,0-0.3,0.1-0.4,0.2
	c-0.1,0.1-0.2,0.2-0.3,0.4c-0.1,0.1-0.2,0.3-0.3,0.4c-1,1.5-1.6,0.6-1.6,0.6c-2.6-0.9-1.8-6.6-1.8-6.6s1-2.2,2.6-0.8
	c0.1,0.1,0.3,0.3,0.4,0.4c0.4,0.5,1,0.9,1.5,1.2c0.2,0.1,0.4,0.2,0.6,0.3c0.6,0.3,1.3,0.5,2,0.6c0.3,0.1,0.7,0.1,1,0.1L198.5,150.7z
	"/>
<path class="st1" d="M196,147.7c-0.2,0-0.3,0.1-0.5,0.2l0.6-4.5c0.2,0.1,0.4,0.2,0.6,0.3C196.5,144.8,196.2,146.6,196,147.7z"/>
<path class="st0" d="M195,148.7c-1,1.5-1.6,0.6-1.6,0.6c-2.6-0.9-1.8-6.6-1.8-6.6s1-2.2,2.6-0.8c-0.4,0.8-0.7,1.7-0.8,2.6
	C193.4,146,193.9,147.5,195,148.7z"/>
<path class="st9" d="M195,148.7c-1,1.5-1.6,0.6-1.6,0.6c-2.6-0.9-1.8-6.6-1.8-6.6s1-2.2,2.6-0.8c-0.4,0.8-0.7,1.7-0.8,2.6
	C193.4,146,193.9,147.5,195,148.7z"/>
<path class="st25" d="M252.9,162.5c0,0,2.7-6.6-1.4-9.8c-0.1,0.9-0.4,1.7-0.8,2.4c-0.4,0.4-0.6,1-0.7,1.5
	C251.6,158.2,252.6,160.3,252.9,162.5z"/>
<path class="st9" d="M200.7,159.1c-1.9-3-2.9-6.5-3-10c-0.5-0.7-1.1-1.4-1.6-1.4c-0.2,0-0.3,0.1-0.4,0.2c-0.1,0.1-0.2,0.2-0.3,0.4
	c-0.1,0.1-0.2,0.3-0.3,0.4c-1,1.5-1.6,0.6-1.6,0.6c-2.6-0.9-1.8-6.6-1.8-6.6s1-2.2,2.6-0.8c0.1,0.1,0.3,0.3,0.4,0.4
	c0.4,0.5,1,0.9,1.5,1.2c0.2,0.1,0.4,0.2,0.6,0.3c0.6,0.3,1.3,0.5,2,0.6c0.5-1,1.1-1.9,1.9-2.8c2.5-2.6,5.5-4.6,8.9-5.9
	C208.1,144.5,205.5,153.8,200.7,159.1z"/>
<path class="st9" d="M186.6,162.1c-0.7-0.1-1.4-0.3-2.1-0.5c-0.6-0.2-1.3-0.4-1.9-0.6l-0.4-0.2c-0.5-0.2-1.1-0.5-1.6-0.8
	s-0.8-0.4-1.2-0.7c-7.6-4.4-15-13.2-18.3-22.2c-0.9-2.4-1.5-5-1.8-7.6c-0.1-1.4-0.1-2.8,0.1-4.2c0.5-3.9,1.8-7.8,3.8-11.2
	c0.2-0.4,0.4-0.7,0.7-1.1c5-7.7,13.4-12.4,22.4-11.4c-1.9,5.6-4.7,10.4-8.6,12.9c-0.3,0.8-0.5,1.6-0.2,2.1c0.1,0.1,0.2,0.2,0.4,0.3
	c0.1,0,0.3,0,0.4,0h0.5c1.8,0,1.4,1,1.4,1c0.7,2.6-4.5,5.2-4.5,5.2s-2.3,0.4-2.1-1.7c0-0.2,0.1-0.4,0.1-0.6c0.2-0.6,0.2-1.3,0.1-1.9
	c0-0.2-0.1-0.5-0.1-0.7c-0.1-0.7-0.3-1.4-0.6-2c-1.1,0.2-2.2,0.2-3.3,0c-1.6-0.2-3.1-0.6-4.6-1.2c0.2,0.3,0.4,0.7,0.6,1
	c1.9,3,2.9,6.5,2.9,10c0.5,0.7,1.1,1.4,1.6,1.4c0.2,0,0.3-0.1,0.4-0.2c0.1-0.1,0.2-0.2,0.3-0.4c0.1-0.2,0.2-0.3,0.3-0.4
	c1-1.4,1.6-0.5,1.6-0.5c2.6,0.9,1.7,6.6,1.7,6.6s-1,2.1-2.6,0.8c-0.1-0.1-0.3-0.3-0.4-0.4c-0.4-0.5-0.9-0.9-1.5-1.2
	c-0.2-0.1-0.4-0.2-0.6-0.3c-0.6-0.3-1.3-0.5-2-0.6c-0.5,1-1.1,1.9-1.9,2.8l-0.4,0.4l0.1,0.1c3.2,2.9,6.2,6.1,8.9,9.4
	c0.8,1.1,1.6,2.1,2.3,3.2c0.5,0.7,1,1.5,1.4,2.2c1.9,3,2.9,6.5,2.9,10c0.5,0.7,1,1.4,1.6,1.4c0.2,0,0.3-0.1,0.4-0.2
	c0.1-0.1,0.2-0.2,0.3-0.4c0.1-0.2,0.2-0.3,0.3-0.4c1-1.4,1.6-0.5,1.6-0.5C186,159.4,186.5,160.8,186.6,162.1z"/>
<g class="st14">
	<path d="M175.2,112.1c-0.5,0.2-1.1,0.3-1.7,0.2c-0.9,0-1.7,0.3-2.5,0.7c0.4-5.1,7.4-6.6,7.4-6.6
		C176.8,107.9,175.6,109.9,175.2,112.1z"/>
	<path d="M210.1,130.8c-0.1,1-0.3,2.1-0.4,3.1c-4.5,1.4-8.9,1.8-12.6,0.7c-0.8,0.3-1.6,0.6-1.8,1.2c-0.1,0.2-0.1,0.3,0,0.5
		c0.1,0.1,0.2,0.3,0.3,0.4c0.1,0.1,0.2,0.2,0.3,0.4c1.1,1.4,0.1,1.7,0.1,1.7c-1.6,2.2-6.9-0.1-6.9-0.1s-1.8-1.5,0-2.7
		c0.2-0.1,0.3-0.2,0.5-0.3c0.6-0.3,1.1-0.7,1.6-1.1c0.2-0.2,0.3-0.3,0.5-0.5c0.4-0.5,0.8-1.1,1.1-1.8c-0.8-0.8-1.5-1.6-2.1-2.6
		c-4.2-6.6-4.1-18.2-0.8-28.3C202.9,103.1,212,116.2,210.1,130.8z"/>
	<path d="M198,159.8c-1.4,0.9-3,1.5-4.6,1.7c-0.1-0.3-0.3-0.6-0.5-0.9l5.9-2.4C198.5,158.7,198.3,159.3,198,159.8z"/>
	<path d="M196,168.4c0,0-2.3,0.4-2.1-1.7c0-0.2,0-0.4,0.1-0.6c0.2-0.6,0.2-1.3,0.1-1.9c0-0.2,0-0.5-0.1-0.7c-0.1-0.7-0.3-1.4-0.6-2
		c-0.1-0.3-0.3-0.6-0.5-0.9l5.9-2.4c-0.3,0.5-0.6,1.1-0.8,1.6c-0.3,0.8-0.5,1.7-0.2,2.1c0.1,0.1,0.2,0.2,0.4,0.3c0.2,0,0.3,0,0.5,0
		h0.5c1.8,0,1.4,1,1.4,1C201.2,165.9,196,168.4,196,168.4z"/>
	<path d="M198.2,162.2l-4,2c0-0.2,0-0.5-0.1-0.7c1-0.4,2.7-1.1,3.7-1.6C197.9,162.1,198.1,162.2,198.2,162.2z"/>
	<path d="M196,168.4c0,0-2.3,0.4-2.1-1.7c0.9-0.1,1.8-0.4,2.6-0.8c1.3-0.9,2.3-2.2,2.6-3.7c1.8,0,1.4,1,1.4,1
		C201.2,165.9,196,168.4,196,168.4z"/>
	<path class="st9" d="M196,168.4c0,0-2.3,0.4-2.1-1.7c0.9-0.1,1.8-0.4,2.6-0.8c1.3-0.9,2.3-2.2,2.6-3.7c1.8,0,1.4,1,1.4,1
		C201.2,165.9,196,168.4,196,168.4z"/>
	<path class="st9" d="M175.2,112.1c-0.5,0.2-1.1,0.3-1.7,0.2c-0.9,0-1.7,0.3-2.5,0.7c0.4-5.1,7.4-6.6,7.4-6.6
		C176.8,107.9,175.6,109.9,175.2,112.1z"/>
</g>
<path class="st0" d="M208.7,131.6c-1.8,14.7-6.9,32.4-20.1,30.8c-13.2-1.6-29.5-22-27.7-36.7s14-25.3,27.2-23.7
	S210.5,116.9,208.7,131.6z"/>
<path class="st0" d="M194.6,169.3c0,0-2.3,0.4-2.1-1.7c0-0.2,0.1-0.4,0.1-0.6c0.2-0.6,0.2-1.3,0.1-1.9c0-0.2-0.1-0.5-0.1-0.7
	c-0.2-1-0.6-2-1.1-2.9l5.9-2.4c0,0-1.7,2.8-1,3.7c0.1,0.1,0.2,0.2,0.4,0.3c0.1,0,0.3,0,0.5,0h0.5c1.8,0,1.4,1,1.4,1
	C199.8,166.8,194.6,169.3,194.6,169.3z"/>
<path class="st1" d="M196.8,163l-4,2c0-0.2-0.1-0.5-0.1-0.7c1.1-0.4,2.7-1.1,3.7-1.6C196.5,162.9,196.6,163,196.8,163z"/>
<path class="st0" d="M194.6,169.3c0,0-2.3,0.4-2.1-1.7c0.9-0.1,1.8-0.4,2.6-0.8c1.3-0.9,2.2-2.2,2.6-3.7c1.8,0,1.4,1,1.4,1
	C199.8,166.8,194.6,169.3,194.6,169.3z"/>
<path class="st9" d="M194.6,169.3c0,0-2.3,0.4-2.1-1.7c0.9-0.1,1.8-0.4,2.6-0.8c1.3-0.9,2.2-2.2,2.6-3.7c1.8,0,1.4,1,1.4,1
	C199.8,166.8,194.6,169.3,194.6,169.3z"/>
<path class="st25" d="M177,107.3c0,0-7,1.5-7.4,6.6c0.8-0.4,1.6-0.6,2.5-0.7c0.6,0.1,1.1,0,1.7-0.2
	C174.2,110.7,175.3,108.7,177,107.3z"/>
<path class="st2" d="M194.2,164.4c-2.3,0.2-4.1,2.3-3.9,4.6c0,0.2,0.1,0.4,0.1,0.6c0.9,2.9,4.5,3.9,6.9,5.9c2.4,2,3.5,5.1,3.8,8.2
	c0.5,5.9-1.6,11.7-5.8,15.9c-2.1,2.1-4.7,3.7-6.8,5.8c-2.4,2.7-4.4,5.7-5.8,8.9c-1.3,2.3-2.2,4.9-2.6,7.5c-0.4,4.2,1.8,8.2,4.3,11.6
	c2.5,3.4,5.6,6.4,7.5,10.2c2.7,5.2,3.1,11.2,1.2,16.8c-0.1,0.4-0.4,0.8-0.7,1.1c-0.4,0.3-0.8,0.2-1.1-0.2c0,0,0,0,0-0.1"/>
<path class="st2" d="M181.9,163.6c-0.6,0.7-0.7,1.8-0.1,2.6c0.6,0.7,1.5,1.1,2.4,1.1c1.1,0,2.4-0.4,3.3,0.3c0.6,0.5,1,1.3,1,2.2
	c0,0.8,0.1,1.6,0.2,2.5c0.2,0.7,0.6,1.3,1.1,1.8c0.5,0.6,1.2,1.1,2,1.5c1.7,0.6,3.6,0.1,5.3,0.6c2.3,0.7,3.5,3.1,4.1,5.4
	c0.9,2.7,1.1,5.6,0.5,8.4c-0.6,1.8-1.3,3.5-2.3,5.1c-0.9,1.6-1.4,3.5-1.5,5.4c0,1.9,1.1,3.7,2.8,4.5"/>
<path class="st26" d="M268.9,263.7l-1.9,1.1l2.5,9.2c0,0,0.8,0.5,2,1.3c2.2,1.5,5.7,4,7.6,6.7c2.9,4.1,15.6,15.8,14,10.9
	s-2.4-3.9-2.4-3.9s2.8-7.3-4.1-10.6c-5.2-2.5-12.8-9.7-16.2-13C269.5,264.3,268.9,263.7,268.9,263.7z"/>
<path class="st27" d="M306.9,288.3c1.1,1.1,2.1,2.3,2.9,3.7c0.8,1.4,0.9,3,0.4,4.5c-0.3,0.8-0.9,1.5-1.3,2.3
	c-1.7,3.9,2.7,8.1,1.9,12.2c-0.5,2.5-2.8,4.3-4.8,6s-3.9,4-3.4,6.6c0.4,1.2,0.9,2.3,1.6,3.3c0.7,1.1,0.8,2.4,0.2,3.5
	c-1.2,1.8-4.6,1.5-5,3.6c-0.4,1.9,2.1,3.8,1.1,5.4c-0.6,0.7-1.6,1-2.5,0.7c-0.9-0.3-1.8-0.6-2.7-0.7c-1.8-0.1-3.4,1.2-3.5,3.1
	c0,0.6,0.1,1.3,0.4,1.8c0.5,1,1.5,1.8,1.4,2.8c-0.1,0.7-0.6,1.3-1.2,1.6c-2.2,1.1-4.9,0.3-6.2-1.8c-0.8-1.6-0.6-3.6-0.5-5.4
	s0-3.9-1.3-5.2c-0.7-0.6-1.4-1-2.2-1.4c-2.3-1.1-4.3-2.6-6.1-4.4c-1.6-1.6-3-3.6-2.9-5.8c0.1-2.5,2.3-4.7,2.1-7.2s-2.7-4.4-4.9-5.9
	s-4.4-3.9-3.7-6.5c0.8-2.8,4.3-3.6,6.1-5.8c0.6-0.9,1.1-1.9,1.3-2.9c0.5-1.9,0.6-3.8,1-5.6c0.3-1.9,1.4-3.6,2.9-4.8
	c1.9-1.3,4.4-1.2,6.7-0.9s4.6,0.9,6.9,0.4c1.7-0.4,3.2-1.4,4.9-1.7c2.1-0.3,4.2,0.5,5.6,2c0.8,0.9,0.8,1.1,1.9,1.2
	C305.1,286.9,306.2,287.4,306.9,288.3z"/>
<g class="st14">
	<path d="M303.9,330.9c-0.8,0.6-1.7,1.1-2.7,1.4C301.9,331.7,302.9,331.2,303.9,330.9z"/>
	<path d="M295.1,339.4c-0.4,0-0.8,0-1.1,0.1c0.7-0.7,1.6-1.1,2.6-1c0.9,0.2,1.8,0.4,2.7,0.7c0.4,0.1,0.7,0.1,1.1,0.1
		c0,0,0,0.1,0,0.1c-0.6,0.7-1.6,1-2.5,0.7C296.9,339.9,296,339.6,295.1,339.4z"/>
	<path d="M276.4,289.8c-0.5,1.9-0.6,3.8-1,5.7c-0.2,1.1-0.7,2.1-1.3,2.9c-1.8,2.2-5.3,3-6.1,5.8c-0.7,2.5,1.5,4.9,3.7,6.5
		s4.7,3.3,4.9,5.9s-1.9,4.7-2.1,7.2c-0.1,2.2,1.3,4.3,2.9,5.9c1.8,1.8,3.9,3.3,6.1,4.4c0.8,0.3,1.6,0.8,2.2,1.4
		c1.3,1.3,1.4,3.3,1.3,5.2s-0.4,3.8,0.5,5.4c1.1,1.9,3.3,2.8,5.4,2.2c-0.2,0.2-0.5,0.4-0.7,0.6c-2.2,1.1-4.9,0.3-6.2-1.8
		c-0.8-1.6-0.6-3.6-0.5-5.4s0-3.9-1.3-5.2c-0.7-0.6-1.4-1-2.2-1.4c-2.3-1.1-4.3-2.6-6.1-4.4c-1.6-1.6-3-3.6-2.9-5.9
		c0.1-2.5,2.3-4.7,2.1-7.2s-2.7-4.4-4.9-5.9s-4.4-3.9-3.7-6.5c0.8-2.8,4.3-3.6,6.1-5.8c0.6-0.9,1.1-1.9,1.3-2.9
		c0.5-1.9,0.6-3.8,1-5.7c0.4-1.9,1.4-3.6,2.9-4.8c0.3-0.2,0.7-0.4,1.1-0.6C277.6,286.5,276.7,288,276.4,289.8z"/>
</g>
<path class="st28" d="M230.4,314.2l-2-2.9c0,0-3.7,5.3,1.7,8.6S230.4,314.2,230.4,314.2z"/>
<path class="st9" d="M230.4,314.2l-2-2.9c0,0-3.7,5.3,1.7,8.6S230.4,314.2,230.4,314.2z"/>
<path class="st26" d="M212.6,403.1c0,0-0.4,5.3-1.2,10.5c-0.6,3.7-1.5,7.4-2.6,8.9c-2.7,3.8-2.1,16-2.1,16l-3.4,13.9
	c0.2,2.8-1.7,6.5-2.6,8.1c-0.3,0.5-0.5,0.8-0.5,0.8l2.4,4l3.8,1c0,0,6.5-2.2,4.6-6.5c-0.3-0.9-0.5-1.8-0.4-2.7
	c0-5.6,3.7-14.9,3.7-14.9s9-17.2,8.1-20.7c-0.1-0.4-0.2-0.8-0.2-1.2c-0.3-3.9,2-10.6,2-10.6L212.6,403.1z"/>
<path class="st26" d="M153.8,377.5c-6.2,4-16.7,14.6-18.7,17.4c-2.4,3.5-8.6,7.4-8.6,7.4l-4.3,2.6c-0.6,0.4-1.1,0.9-1.5,1.4
	c-0.2,0.3-0.5,0.7-0.7,1l6.2,7.2c0,0,1.7-1.3,3.6-3c1.9-1.7,4.2-4,4.8-5.5c1.1-2.9,8.1-6.3,8.1-6.3s12.9-7.6,14.4-8.9
	c1.4-1.2,3-2.2,4.6-3.1c0.9-0.5,1.9-1,3.1-1.5c3.3-1.7,6.5-3.6,9.6-5.7l-6-9l-11,4.5C156,376.2,154.8,376.7,153.8,377.5z"/>
<path class="st9" d="M200.7,460.6c-0.3,0.5-0.5,0.8-0.5,0.8l2.4,4l3.8,1c0,0,6.5-2.2,4.6-6.5c-0.3-0.9-0.5-1.8-0.4-2.7
	c-2,0.5-2.7,3.3-2.7,3.3s-0.3,1.2-3.3,2.2C202.5,463.3,201.3,461.6,200.7,460.6z"/>
<path class="st1" d="M200.1,460.3c-0.9,0.7-1.2,4-1.4,6.2c-0.1,1.1-0.1,2-0.1,2.1c0,0.5,3.4,1.7,5.5,1.1c2.1-0.6,10.6,2,10.6,2
	c2.9,0.1,5.8-0.4,8.6-1.4c2.8-1,2.5-2.2,1.3-3.3c-0.9-0.7-2-1.3-3.1-1.6c-1.2-0.5-2.3-1.4-3.1-2.5c-1.1-1.5-2.5-2.8-4-3.8
	c-1.4-0.9-2.9-1.7-3.9-1.6c-2.2,0.4-2.9,3.3-2.9,3.3s-0.3,1.1-3.3,2.2C201.4,464.2,200.2,460.2,200.1,460.3z"/>
<path class="st9" d="M198.8,466.5c-0.1,1.1-0.1,2-0.1,2.1c0,0.5,3.4,1.7,5.5,1.1c2.1-0.6,10.6,2,10.6,2c2.9,0.1,5.8-0.4,8.6-1.4
	c2.8-1,2.5-2.2,1.3-3.3c-2.2,0.7-6.6,2-9.3,1.8C212.3,468.8,201.6,467,198.8,466.5z"/>
<path class="st9" d="M120.9,406.3h-0.2c-0.2,0.3-0.5,0.7-0.7,1l6.2,7.2c0,0,1.7-1.3,3.6-3c-0.5-3.7-8.4-5.9-8.4-5.9L120.9,406.3z"/>
<path class="st1" d="M114.4,408.4c0,0,0.6,8,2.3,11c1.3,2.3,2.5,1.9,4.7,0.7c0.7-0.4,1.5-0.8,2.5-1.3c4-1.9,4.1-3.9,4.1-3.9
	c5.8-5.7-6.9-9.3-6.9-9.3l-0.6,0.7c-1.4,0-2.9,0.3-4.1,0.9C115.7,407.6,115,408,114.4,408.4z"/>
<path class="st9" d="M114.4,408.4c0,0,0.6,8,2.3,11c1.3,2.3,2.5,1.9,4.7,0.7c-2-1-3.5-2.8-4.1-5c-0.8-2.5-1.1-5.2-1-7.9
	C115.7,407.6,115,408,114.4,408.4z"/>
<path class="st26" d="M268.9,300.1l-10.8,7.9l-2.2,1.6l1.6,5.3l1.6,5.5l4.5,4.8c0,0,6.1-0.8,9.5-3.8c1.3-1,2.1-2.5,2.3-4.1
	c0.1-0.5,0.2-1,0.4-1.5c0.2-0.5,0.5-1,0.9-1.5c0.5-0.5,1-1,1.7-1.3c3.1-1.7,7.5-1.2,7.5-1.2s-1.1-13.8-3.4-11.7
	c-1.5,1.4-5.2,1-7.6,0.5c-1.3-0.2-2.3-0.5-2.3-0.5L268.9,300.1z"/>
<circle class="st9" cx="288.6" cy="304.4" r="11.4"/>
<circle class="st26" cx="288.9" cy="304.1" r="11.4"/>
<path class="st1" d="M229.5,318.1c-2.1,1.5-4.7,5.3-4.7,5.3l2.8,16.1l15.4,5.7h0.1c0.9-0.8,12-10.3,16.4-8.8
	c4.6,1.6,13.4-3.6,13.4-3.6s3.7-7.8,4.7-9.5s-0.8-8.9-0.8-8.9c-0.3,0.5-0.6,1-0.9,1.5c-0.8,1.2-1.7,2.3-2.8,3.2
	c-1.1,1-2.4,1.5-3.9,1.5c-0.4,0-0.8,0-1.1,0.1c-5.5,1-7-4.5-7.4-6.7c-0.1-0.6-0.1-1-0.1-1L258,308l-1.5-3.1c0,0-23.9,12.1-26,12.6
	C230.2,317.6,229.8,317.8,229.5,318.1z"/>
<path class="st27" d="M275.8,315.8L275.8,315.8c-0.3,0.5-0.6,0.9-1,1.4l3,5c0-1.2,0-2.3-0.2-3.4L275.8,315.8z"/>
<path class="st6" d="M274,318c-0.3,0.4-0.7,0.7-1.1,1l-0.1,0.1l3.6,6.1c0.3-0.7,0.6-1.3,0.9-1.6L274,318z"/>
<path class="st6" d="M270.5,320.3l4.6,7.6c0.3-0.6,0.6-1.1,0.8-1.7l-4-6.6C271.5,320,271,320.2,270.5,320.3z"/>
<path class="st6" d="M267.6,320.6l6.1,10.2l0.8-1.7l-5.1-8.6H269c-0.4,0-0.8,0-1.1,0.1L267.6,320.6z"/>
<path class="st6" d="M272.7,332.7l-0.7,0.5l0,0l-7.8-13c0.7,0.4,1.4,0.6,2.2,0.6l6.8,11.2L272.7,332.7z"/>
<path class="st27" d="M255.4,305.5l5.1,8.5v-0.2c-0.1-0.6-0.1-1-0.1-1L258,308l-1.5-3.1L255.4,305.5z"/>
<path class="st6" d="M253,306.7l16.6,27.6c0.5-0.2,1-0.5,1.4-0.7L254.5,306L253,306.7z"/>
<path class="st6" d="M250.7,307.9l16.5,27.5c0.5-0.2,1-0.4,1.5-0.6l-16.5-27.6L250.7,307.9z"/>
<path class="st6" d="M248.3,309.1l16.3,27.1c0.5-0.1,1.1-0.3,1.6-0.5l-16.4-27.4L248.3,309.1z"/>
<path class="st6" d="M245.9,310.2l15.8,26.4c0.6,0,1.2-0.1,1.7-0.2l-16.1-26.9L245.9,310.2z"/>
<path class="st6" d="M243.5,311.4l14.9,24.8c0.3,0,0.7,0.1,1,0.2c0.4,0.1,0.7,0.2,1.1,0.2L245,310.7L243.5,311.4z"/>
<path class="st6" d="M241.2,312.6l14.5,24.2c0.5-0.2,1-0.4,1.6-0.5l-14.6-24.4L241.2,312.6z"/>
<path class="st27" d="M238.8,313.8l14.4,24.1c0.5-0.3,1-0.5,1.4-0.7l-14.5-24.1L238.8,313.8z"/>
<path class="st27" d="M236.4,314.9l14.6,24.3c0.5-0.3,0.9-0.6,1.4-0.8l-14.4-24.1L236.4,314.9z"/>
<path class="st27" d="M234,316.1l14.8,24.6c0.4-0.3,0.9-0.6,1.3-0.9l-14.6-24.3L234,316.1z"/>
<path class="st27" d="M231.6,317.1l15,25.1l1.3-1L233,316.5L231.6,317.1z"/>
<path class="st6" d="M229.5,318.1l-0.3,0.2l15.3,25.6c0.4-0.3,0.8-0.6,1.2-1l-15.2-25.4l0,0C230.2,317.6,229.8,317.8,229.5,318.1z"
	/>
<path class="st6" d="M228.4,319c-0.4,0.4-0.8,0.8-1.1,1.2l14.8,24.7l0.9,0.3v0l0.7-0.6L228.4,319z"/>
<path class="st6" d="M226.5,321.1c-0.4,0.5-0.8,1-1,1.3l12.6,21l2.4,0.9L226.5,321.1z"/>
<path class="st6" d="M224.8,323.3L224.8,323.3l0.7,4.2l8.7,14.5l2.4,0.9L224.8,323.3z"/>
<polygon class="st27" points="225.9,330.4 226.7,334.7 230.2,340.5 232.5,341.4 "/>
<polygon class="st27" points="227.2,337.6 227.5,339.5 228.6,339.9 "/>
<path class="st9" d="M229.5,318.1c0.8,2.4,1.6,4.6,1.6,4.6l5.7,11.8l12.5-5.4c0.7-2,1.1-4.1,1.1-6.2c-0.2-2.4,1-5.8,7-7.9
	c0.4-0.1,0.7-0.2,1.1-0.4c0.7-0.2,1.4-0.4,2-0.8c2.9-1.3,5.2-3.7,6.3-6.7l0.1-0.2l8.2-5.9c-0.1-0.1-0.1-0.3-0.2-0.4
	c-1.3-0.2-2.3-0.5-2.3-0.5l-3.8-0.1L258,308l-1.5-3.1c0,0-23.9,12.1-26,12.6C230.2,317.6,229.8,317.8,229.5,318.1z"/>
<path class="st28" d="M249.5,293.1c-0.7,2.4-2.2,4.6-4.3,6.1c-3.5,2.5-3,3.9-3,3.9l-10.3,6.3c0,0-1.8,2.4-3.6,2s2.5,11,2.5,11
	l5.7,11.8l12.5-5.4c0.7-2,1.1-4.1,1.1-6.2c-0.2-2.5,1.1-6.2,8.1-8.3c3.8-0.9,6.9-3.7,8.3-7.4c0-0.2,0.1-0.2,0.1-0.2l8.2-5.9
	c-0.6-1.2-1.8-2-3.1-2.3c-0.4-0.1-0.9-0.2-1.3-0.3c-1.2-0.4-1.8-1-1.8-2.1c0-1.5-0.1-8-2.9-8.2S249.5,293.1,249.5,293.1z"/>
<path class="st28" d="M270.4,298l-5.2,4.7l1.4,4.1c0-0.2,0.1-0.2,0.1-0.2l8.2-5.9c-0.6-1.2-1.8-2-3.1-2.3
	C271.3,298.2,270.9,298.1,270.4,298z"/>
<path class="st9" d="M270.4,298l-5.2,4.7l1.4,4.1c0-0.2,0.1-0.2,0.1-0.2l8.2-5.9c-0.6-1.2-1.8-2-3.1-2.3
	C271.3,298.2,270.9,298.1,270.4,298z"/>
<path class="st9" d="M268.9,263.7l-1.9,1.1l2.5,9.2c0,0,0.8,0.5,2,1.3c-0.2-1-1.1-5.7-1.4-8.3c-0.1-0.9-0.1-1.6,0-1.7s0.2,0,0.4,0.1
	C269.5,264.3,268.9,263.7,268.9,263.7z"/>
<path class="st28" d="M251.5,259.1c0,0-3.2,13.1-1.7,19.7c0,0,1.2,9.7-0.3,14.3l15.8-2.5l0.6-2.9c0,0-2.8-2-3.3-4.5
	s-1.2-5.2-1.2-5.2c-0.1-2.4-0.5-4.7-1-7c-0.6-1.7,1.9-2,3.7-0.8c0.2,0.1,0.5,0.3,0.7,0.5c-0.6,1-0.4,2.3,0.6,3
	c0.7,0.5,1.4,0.8,2.2,1l0,0c1.2,0.3,2.4,0.5,3.5,0.6c0,0-1.1-5.6-1.4-8.5c-0.1-0.9-0.1-1.6,0-1.7c0.5-0.3,4.4,3.5,4.4,3.5
	s0.2-4.8-1.9-5.8c0,0-0.3,1.4-1.5,0.9s-13.4-7.3-13.4-7.3S252.6,252.5,251.5,259.1z"/>
<path class="st9" d="M262.4,264.4l1.6,5.8c0.2,0.1,0.5,0.3,0.7,0.5c-0.6,1-0.4,2.3,0.6,3c0.7,0.5,1.4,0.8,2.2,1l0,0
	c1,0.2,2,0.4,3,0.5c0,0-1.1-5.6-1.5-8.5L262.4,264.4z"/>
<path class="st28" d="M263,264.5l1.7,6.1c-0.6,1-0.4,2.3,0.6,3c1.7,1.2,5.8,1.6,5.8,1.6s-1.1-5.6-1.4-8.5L263,264.5z"/>
<path class="st25" d="M263.1,264.4l1.7,6.1c-0.6,1-0.4,2.3,0.6,3.1c1.7,1.2,5.8,1.6,5.8,1.6s-1.1-5.6-1.5-8.5L263.1,264.4z"/>
<path class="st9" d="M224.1,409.6l-11.5-6.5c0,0-0.4,5.3-1.2,10.5c3.9,2.5,7.6,4.9,10.7,6.6C221.9,416.3,224.1,409.6,224.1,409.6z"
	/>
<path class="st9" d="M153.8,377.5c1.3,2.3,2.9,4.4,4.8,6.3c0,0,1.2,1.6,3.2,3.9c0.9-0.5,1.9-1,3.1-1.5c3.3-1.7,6.5-3.6,9.5-5.7l-6-9
	l-11,4.5C156,376.1,154.8,376.7,153.8,377.5z"/>
<path class="st1" d="M190.5,340.8c-2.1,3.2-12.1,14-12.1,14c-1.7,2.2-3.2,4.4-4.5,6.8c-1.8,3.3-7.2,7.4-11.3,11.1
	c-4.1,3.7-4.1,1.2-6.6,2.6s4.8,9.1,4.8,9.1s12.3,17,26.2,17.7c13.9,0.7,34.3,19.1,42.8,20.9s3.2-3,6.8-4.2s5.4-5.2,5.4-5.2
	s-1.3-9.7-0.2-11.8s2.3-10.9,2.3-10.9s0-7.7,0.6-9s0.3-10.3-0.1-12.9s1.9-6.4,1.9-6.4s-0.8-1.4,0.3-4.5s-1-12.9-1-12.9
	c-18-10.5-21-21.9-21-21.9l-2.2,0.7C208.3,320.5,192.5,337.6,190.5,340.8z"/>
<path class="st9" d="M222.5,324.1c0,0,1.4,15.2,23.3,21.2c-18-10.5-21.1-21.9-21.1-21.9L222.5,324.1z"/>
<path class="st9" d="M224.9,350.4c0,0-18.1,29.2-18.5,30.7C205.9,382.6,225.6,351.2,224.9,350.4z"/>
<path class="st9" d="M223.3,341.2c0,0-13.9,20.8-16.6,21.7C206.7,362.9,220,342.8,223.3,341.2z"/>
<path class="st9" d="M214.9,336.3c0,0-9.8,7-17.4,6.2L214.9,336.3z"/>
<path class="st9" d="M212.2,331.8c0,0-9.4,3.9-11.8,3.7L212.2,331.8z"/>
<polygon class="st9" points="233.7,358.5 234.4,377.8 231,372.1 "/>
<path class="st9" d="M291.7,294.7c-0.2,1.1-0.8,2.1-0.5,3.2c0.3,0.7,0.8,1.3,1.4,1.8c1.4,1.3,2.8,3,3,4.9c0.3,2.8-2,5.3-1.7,8.1
	c0.1,0.9,0.4,1.7,0.9,2.4c0.3,0.4,0.7,0.8,1.1,1.1c1,0.7,2.2,1,3.4,0.8c2.1-0.5,3.7-2.1,4.3-4.1c0.5-2,0.6-4.1,0.1-6.1
	c-1-5.3-3.6-10.2-6.1-15c-0.2-0.4-0.5-0.7-0.8-1c-0.9-0.5-4.3-0.6-5.1,0.1C290.5,291.7,292.7,294.1,291.7,294.7z"/>
<path class="st27" d="M292.1,294.5c-0.2,1.1-0.8,2.1-0.5,3.2c0.3,0.7,0.8,1.3,1.4,1.8c1.4,1.3,2.8,3,3,4.9c0.2,2.8-2,5.3-1.7,8.1
	c0.1,0.9,0.4,1.7,0.9,2.4c0.3,0.4,0.7,0.8,1.1,1.1c1,0.7,2.2,1,3.4,0.8c2.1-0.5,3.7-2.1,4.3-4.1c0.6-2,0.6-4.1,0.1-6.1
	c-1-5.3-3.6-10.2-6.1-15c-0.2-0.4-0.5-0.7-0.8-1c-0.9-0.5-4.3-0.6-5.1,0.1C290.9,291.4,293.1,293.9,292.1,294.5z"/>
<path class="st26" d="M312.2,361.7l-5.7,4.4l2.1,1.5l11.5,8.2c0,0,4,8.3,11,6s-4-9.4-4.8-9.7s-2.2-1.1-2.2-1.1L314,363L312.2,361.7z
	"/>
<path class="st9" d="M312.2,361.7l-5.7,4.4l2.1,1.5c2.7-1.7,5-3.6,5.4-4.5L312.2,361.7z"/>
<path class="st9" d="M246.6,324.9l-12.3,8l8.6,12.2c0.9-0.8,12-10.3,16.4-8.8c4.6,1.6,13.4-3.6,13.4-3.6s3.7-7.8,4.7-9.5
	s-0.8-8.9-0.8-8.9c0.5-0.5,1-1,1.7-1.3c-0.5,0-1.1,0-1.6,0.1c-2.4,1.1-3.7,2.8-3.8,5.9c0,0.3,0,0.6,0,0.9c0,0.5,0,1,0.1,1.5v0.2
	c0.6,4.9-1.6,6.9-1.6,6.9c-1.3,2.4-3.5,4.2-6.1,5C261.1,334.9,246.6,324.9,246.6,324.9z"/>
<path class="st28" d="M247.1,325.7l-12.3,8l9.7,13.8c0,0,4.8-2.6,6.4-4.6s9.6-5.2,9.6-5.2c9.7,3.4,13.9-2.4,13.9-2.4
	s11.3,17.5,12,17.6s6.8,4.9,6.8,4.9s4.7,6.1,6.1,6.6c0.5,0.2,1,0.4,1.5,0.7c0.1,0.1,0.3,0.2,0.4,0.3l-4.1,2.4c0,0.1,0,0.1,0.1,0.1
	l0,0.1c0.6,1,1.5,1.9,2.5,2.5c1.9,1,14.1-6.6,13.9-8.3c0-0.3-0.2-0.6-0.4-0.9c-0.9-1-2-1.9-3.2-2.5l-0.3-0.2l-0.1-0.1
	c0,0-7.1-7.1-9.4-8.1s-10-13.5-10-13.5s-4-5.3-3.5-6.5s-2-10.8-3.7-11s-2.3-2.4-2.3-2.4c1.1-2.2,0-3-1.3-3.2c-0.7-0.1-1.5-0.1-2.3,0
	c-2.6,1.2-3.9,3.1-3.8,6.8c0,0.5,0.1,1.1,0.1,1.8c0.6,4.9-1.6,6.9-1.6,6.9c-1.3,2.4-3.5,4.2-6.1,5
	C261.5,335.6,247.1,325.7,247.1,325.7z"/>
<path class="st9" d="M313.2,361.2c0.1,0.2,0.1,0.3,0.1,0.5c0.2,1.7-12,9.4-13.9,8.3c-0.9-0.5-1.7-1.3-2.3-2.1l0-0.1
	c0,0-0.1-0.1-0.1-0.1l4.1-2.4c-0.1-0.1-0.3-0.2-0.4-0.3l0.2-0.1c3.7-0.7,7-3,8.7-6.4L313.2,361.2z"/>
<path class="st28" d="M301.2,365.2l-4.1,2.4c0.6,1.2,1.5,2.1,2.6,2.7c1.9,1,14.1-6.6,13.9-8.3c-0.1-1.4-2.5-2.8-3.5-3.4
	C308.3,362.2,305,364.6,301.2,365.2z"/>
<path class="st25" d="M301.2,365.2l-4.1,2.4c0.6,1.2,1.5,2.1,2.6,2.7c1.9,1,14.1-6.6,13.9-8.3c-0.1-1.4-2.5-2.8-3.5-3.4
	C308.3,362.2,305,364.6,301.2,365.2z"/>
<path class="st28" d="M273.4,320.6l3,1.3l3-8.1c-0.7-0.1-1.5-0.1-2.3,0C274.5,315,273.3,316.9,273.4,320.6z"/>
<path class="st9" d="M273.5,320.5l3,1.3l3-8.1c-0.7-0.1-1.5-0.1-2.3,0C274.6,314.9,273.4,316.8,273.5,320.5z"/>
<path class="st9" d="M292.9,294.1c-0.2,1.1-0.8,2.1-0.5,3.2c0.3,0.7,0.8,1.3,1.4,1.8c1.4,1.3,2.8,3,3,4.9c0.2,2.8-2,5.3-1.7,8.1
	c0,0.9,0.3,1.7,0.8,2.4c0.3,0.4,0.7,0.7,1.1,1c1,0.7,2.2,1,3.4,0.8c0.4-0.1,0.8-0.2,1.2-0.4c-0.6,0.4-1.2,0.7-1.9,0.8
	c-1.7,0.3-3.5-0.4-4.5-1.8c-0.5-0.7-0.8-1.5-0.9-2.4c-0.2-2.8,2-5.3,1.7-8.1c-0.2-1.9-1.5-3.6-3-4.9c-0.6-0.5-1.1-1.1-1.4-1.8
	c-0.3-1,0.3-2.1,0.5-3.2c1-0.6-1.2-3-0.1-4c0.2-0.1,0.4-0.2,0.6-0.3C291.9,291.3,293.8,293.5,292.9,294.1z"/>
<path class="st9" d="M266.7,316c0,0-3.9,0.3-4.4,2.3c0,0,3.7-3.6,3.2-4.5"/>
<path class="st26" d="M332,376.4c0,0-10.1-4.8-8.7,1.2S332,376.4,332,376.4z"/>
<rect x="334.7" y="333.8" transform="matrix(0.9096 -0.4155 0.4155 0.9096 -132.4697 176.7668)" class="st0" width="10.5" height="118"/>
<path class="st2" d="M192.4,164.8c-1.9,4.1-6.4,7.7-5,12c0.7,2.2,2.8,3.6,4.8,4.9c4.6,2.9,9.2,5.9,12.6,10.2
	c3.3,4.3,5.1,10.1,3.2,15.2c-1.3,3.5-4.1,6.1-5.8,9.5c-1.9,4.2-2.3,8.9-1.1,13.4c1.2,4.4,3,8.6,5.5,12.5c0.9,1.5,1.9,3,3.4,3.6
	c1.2,0.3,2.4,0.4,3.6,0.3c4.2,0.2,8,3,10.3,6.5s3.2,7.9,3.6,12.1c0.2,2.1,0.4,4.4,1.6,6.1c1.7,2.5,4.9,3.3,7.8,3.8
	c7.6,1.3,15.4,1.7,23.1,1.2"/>
<path class="st1" d="M252.8,269.8h4.7c2.5,0,4.5,2,4.5,4.5v0c0,2.5-2,4.5-4.5,4.5h-4.7c-2.5,0-4.5-2-4.5-4.5v0
	C248.3,271.8,250.3,269.8,252.8,269.8z"/>
</svg>
