<?xml version="1.0" encoding="utf-8"?>
<!-- Generator: Adobe Illustrator 21.0.2, SVG Export Plug-In . SVG Version: 6.00 Build 0)  -->
<svg version="1.1" id="bf12c7ca-cc15-4ca0-987a-6b3269e72dfc"
	 xmlns="http://www.w3.org/2000/svg" xmlns:xlink="http://www.w3.org/1999/xlink" x="0px" y="0px" viewBox="0 0 1061.3 814.4"
	 style="enable-background:new 0 0 1061.3 814.4;" xml:space="preserve">
<style type="text/css">
	.st0{fill:#9880B4;}
	.st1{fill:#FF6584;}
	.st2{fill:#3F3D56;}
	.st3{fill:#2F2E41;}
	.st4{fill:#FFB9B9;}
	.st5{fill:#575A89;}
	.st6{opacity:0.1;enable-background:new    ;}
	.st7{fill:#F2F2F2;}
	.st8{fill:#00AD9F;}
	.st9{fill:#FFFFFF;}
	.st10{fill:#A0616A;}
	.st11{fill:none;stroke:#3F3D56;stroke-width:2;stroke-miterlimit:10;}
</style>
<title>intense feeling</title>
<path class="st0" d="M577.7,9c-50.9,13.2-95.9,48.6-140.5,94.9c31.1,28.3,33.3,76.5,5,107.6c-27.4,30-73.5,33.3-104.8,7.4
	c-52.5,62.7-109.7,128.9-179.6,183.7c-178,139.4,188,393.7,420,393.7s420-176.2,420-393.7S801.3-49.1,577.7,9z"/>
<circle class="st1" cx="383.9" cy="157.2" r="54.3"/>
<ellipse class="st2" cx="903.4" cy="711.7" rx="144.4" ry="18.7"/>
<ellipse class="st2" cx="392.4" cy="795.7" rx="144.4" ry="18.7"/>
<path class="st3" d="M911.4,646.4c0,0,7.8,26.7,12.9,33.6s9.5,18.1,6.9,19.8s-7.8,22.4-0.9,23.3s22.4-22.4,23.3-30.2
	s4.3-35.4,4.3-35.4s6-24.1-3.4-25.9s-24.1-2.6-24.1-2.6L911.4,646.4z"/>
<path class="st3" d="M875.1,674.9c0,0-11.2,29.3-13.8,31s-12.1,17.2,6.9,17.2s29.3-5.2,29.3-5.2l6-6.9c0,0,0-18.1-1.7-20.7
	s0-15.5,0-15.5H875.1z"/>
<path class="st3" d="M798.4,406.7c0,0-13.8,93.1-1.7,123.3c12.1,30.2,24.1,38.8,24.1,38.8l91.4,85.4c0,0,28.5-14.7,25.9-24.1
	c0,0-6-3.4-6.9-6s-12.1-3.4-12.1-3.4s-5.2-6-5.2-9.5s-44.8-64.7-59.5-69c0,0-7.8-9.5-6.9-11.2s-2.6-7.8-2.6-7.8l8.6-33.6l54.3-8.6
	c0,0,22.4-79.3,3.4-85.4S798.4,406.7,798.4,406.7z"/>
<path class="st3" d="M906.2,467.1l1.7,13.8c0,0,0,36.2-1.7,39.7s-2.6,8.6,0,12.1s6.9,12.1,5.2,15.5s3.4,100.9-3.4,107.8
	s-4.3,15.5-3.4,16.4s-0.9,4.3-0.9,4.3s-35.4,6-32.8,0s2.6-9.5,4.3-11.2s0-4.3,0-4.3s2.6-27.6,0-29.3s-10.3-84.5-10.3-85.4
	s-2.6-2.6-2.6-6s0-14.7-4.3-16.4s-3.4-44-3.4-44L906.2,467.1z"/>
<path class="st4" d="M845,159.2c0,0,3.4,25.9,13.8,31S876,198,876,198l-8.6,30.2l-3.4,25.9h-39.7l-21.6-17.2l6.9-28.5l3.4-5.2
	c0,0,4.3-19,0.9-25S845,159.2,845,159.2z"/>
<path class="st5" d="M827.7,222.2l6,11.2c0,0,4.3-15.5,10.3-18.1s20.7-6.9,20.7-10.3s-0.9-12.1,2.6-12.1s37.1,10.3,42.3,13.8
	s6,6.9,6,6.9l-9.5,99.2c0,0,13.8,46.6,9.5,64.7s-7.8,20.7-18.1,23.3s-4.3-6-34.5,2.6s-49.1,6-56,6s-11.2,3.4-12.9,4.3
	s-0.9-4.3,5.2-12.1s3.4-20.7,3.4-20.7s-6.9-22.4-2.6-31s10.3-19.8,5.2-23.3s-12.1-29.3-12.1-29.3l-19-67.3l38.8-26.7
	c0,0-1.7,12.1,4.3,14.7S827.7,222.2,827.7,222.2z"/>
<path class="st5" d="M779.4,229.1h-5.2c0,0-8.6,14.7-8.6,25s4.3,69,4.3,69l25,25.9l6-19.8l1.7-44L779.4,229.1z"/>
<path class="st5" d="M793.2,320.5c0,0-28.5-7.8-27.6,4.3s5.2,26.7,19,30.2s18.1-15.5,18.1-15.5S804.4,322.2,793.2,320.5z"/>
<path class="st4" d="M900.2,360.1c0,0-1.7,39.7-12.1,44l25,6c0,0,12.1-41.4,10.3-43.1S900.2,360.1,900.2,360.1z"/>
<path class="st3" d="M752.3,279.4l14.8-6.5c1.2-0.5,2.5,0,3,1.2l16.5,37.7c0.6,1.4,0,3-1.4,3.7l0,0l-13.9,6.1c-1.4,0.6-3,0-3.7-1.4
	c0,0,0,0,0,0l-16.5-37.7C750.6,281.2,751.1,279.9,752.3,279.4z"/>
<path class="st6" d="M752.3,279.4l14.8-6.5c1.2-0.5,2.5,0,3,1.2l16.5,37.7c0.6,1.4,0,3-1.4,3.7l0,0l-13.9,6.1c-1.4,0.6-3,0-3.7-1.4
	c0,0,0,0,0,0l-16.5-37.7C750.6,281.2,751.1,279.9,752.3,279.4z"/>
<path class="st3" d="M753.1,281.3l12.9-5.6c1.2-0.5,2.5,0,3,1.2l15.6,35.8c0.6,1.4,0,3-1.4,3.7l0,0l-12,5.2c-1.4,0.6-3,0-3.7-1.4
	c0,0,0,0,0,0l-15.6-35.8C751.4,283.2,751.9,281.8,753.1,281.3L753.1,281.3z"/>
<ellipse transform="matrix(0.9164 -0.4003 0.4003 0.9164 -53.3555 330.0356)" class="st7" cx="763.3" cy="292.7" rx="4.1" ry="4.2"/>
<path class="st6" d="M906.6,225.2l5.6-8.2c0,0,20.7,31.9,19,53.5s-3.4,22.4-3.4,25.9s-4.3,3.4,0,7.8s10.3,10.3,6.9,13.8
	s-6,3.4-5.2,7.8c0.6,3.1,0.8,6.3,0.9,9.5c0,0-7.3,14.2-9.9,14.2s-27.2,22.8-27.2,20.3s2.6-20.7,2.6-23.3s0.9-11.2,2.6-13.8
	s1.7-1.7,0-4.3s-1.7,0-1.7-2.6s0.9-6-1.7-6.9s-5.2,0-3.4-4.3s0-7.8-0.9-7.8s-5.2-0.9-2.6-3.4s-5.2-52.6-5.2-52.6
	S884.2,238.1,906.6,225.2z"/>
<path class="st5" d="M901.9,206.7l14.7,6.9c0,0,20.7,31.9,19,53.5s-3.4,22.4-3.4,25.9s-4.3,3.4,0,7.8s10.3,10.3,6.9,13.8
	s-6,3.4-5.2,7.8c0.6,3.1,0.8,6.3,0.9,9.5c0,0-7.8,41.4-10.3,41.4s-26.7-4.3-26.7-6.9s2.6-20.7,2.6-23.3s0.9-11.2,2.6-13.8
	s1.7-1.7,0-4.3s-1.7,0-1.7-2.6s0.9-6-1.7-6.9s-5.2,0-3.4-4.3s0-7.8-0.9-7.8s-5.2-0.9-2.6-3.4s-5.2-52.6-5.2-52.6
	S879.5,219.6,901.9,206.7z"/>
<path class="st4" d="M771,326.6c-1.7,0.4-3.4-0.3-4.2-1.9c-4-7.9-14.7-31.2-4.7-31.9c9.2-0.7,17.5,17.3,20.8,25.8
	c0.8,2.1-0.2,4.5-2.3,5.3c-0.2,0.1-0.3,0.1-0.5,0.2L771,326.6z"/>
<circle class="st4" cx="820.8" cy="151.5" r="31.9"/>
<path class="st3" d="M809.1,133.1c-4,1.4-8.1,2.3-12.3,2.9c-3.1,0.5-6.8,0.7-9-1.5c-2.2-2.2-1.8-6-0.3-8.7s3.8-4.9,5.6-7.5
	c2.8-4,4.4-9.4,8.9-11.4c1.9-0.7,3.8-1.1,5.8-1.1c11.6-0.7,23.7-1.4,34.4,3c4,1.5,7.6,4.1,10.4,7.4c1.8,2.4,3.2,5.2,4.1,8
	c5.8,17.3,2.3,36.4-9.4,50.4c-3.9-3.5-2.2-11.7-7.2-13.5c-1.6-0.6-3.5-0.2-5.1-0.6c-5.2-1.5-5-9.5-9.3-12.8c-1-0.5-1.8-1.2-2.5-2
	c-0.4-0.8-0.5-1.7-0.5-2.6c0-3,1.4-10.7-1.5-12.8C818.3,128.2,811.9,132.1,809.1,133.1z"/>
<polygon class="st8" points="499.8,59 762.8,59 762.8,197 743.8,197 743.8,248 692.8,197 499.8,197 "/>
<path class="st9" d="M631.3,157.5l-4.6-4.2c-16.5-15.1-27.4-25-27.4-37.2c-0.2-9.6,7.5-17.5,17.1-17.7c0.2,0,0.3,0,0.5,0
	c5.6,0,10.8,2.5,14.4,6.8c3.6-4.3,8.8-6.7,14.4-6.8c9.6-0.1,17.5,7.6,17.6,17.2c0,0.2,0,0.3,0,0.5c0,12.2-10.9,22.1-27.4,37.2
	L631.3,157.5z"/>
<polygon class="st8" points="0,397.5 253,325.7 290.7,458.4 272.4,463.6 286.4,512.7 223.4,477.5 37.7,530.3 "/>
<path class="st9" d="M153.4,456.4l-5.6-2.8c-20-10.1-33.1-16.5-36.5-28.3c-2.8-9.2,2.4-18.9,11.6-21.7c0.2,0,0.3-0.1,0.5-0.1
	c5.4-1.5,11.1-0.6,15.7,2.6c2.3-5.1,6.7-8.9,12-10.4c9.2-2.7,18.9,2.5,21.6,11.7c0,0.2,0.1,0.3,0.1,0.5c3.3,11.8-4.4,24.2-16.2,43.2
	L153.4,456.4z"/>
<path class="st10" d="M290.4,317.1c0,0-8.6,25.7-3.8,31.4s-28.5-17.1-28.5-17.1l18.1-20.9L290.4,317.1z"/>
<circle class="st3" cx="270.9" cy="274.4" r="42.7"/>
<polygon class="st10" points="436.8,606 414.9,623.1 402.6,603.1 424.4,587.9 "/>
<path class="st3" d="M405.9,734.7l5.7,27.6l16.2,21.9c0,0,43.7,13.3,14.3,20s-36.1-4.8-36.1-4.8L385,781.3V806h-13.3l-2.9-35.2
	c0,0-1.9-10.5,6.7-21.9l1.9-17.1L405.9,734.7z"/>
<path class="st10" d="M295.7,393.6l7.6,43.7c0,0,80.8-8.6,86.5,7.6s7.6,20.9,7.6,20.9l-16.2,5.7l-7.6-14.3c-4.7-1.7-9.8-1.3-14.3,1
	c-7.6,3.8-74.1,13.3-78.9,1s-18.1-58-18.1-58l20-16.2L295.7,393.6z"/>
<path class="st6" d="M295.7,393.6l7.6,43.7c0,0,80.8-8.6,86.5,7.6s7.6,20.9,7.6,20.9l-16.2,5.7l-7.6-14.3c-4.7-1.7-9.8-1.3-14.3,1
	c-7.6,3.8-74.1,13.3-78.9,1s-18.1-58-18.1-58l20-16.2L295.7,393.6z"/>
<path class="st3" d="M340.3,520l6.7,22.8l17.1,87.4c0,0,1.9,64.6,4.8,72.2s2.9,8.6,0,11.4s-8.6,12.4,0,18.1s39,12.4,39.9,5.7
	s1-17.1,0-21.9s2.9-78.9,2.9-78.9l-11.4-113.1l-39-18.1L340.3,520z"/>
<path class="st6" d="M340.3,520l6.7,22.8l17.1,87.4c0,0,1.9,64.6,4.8,72.2s2.9,8.6,0,11.4s-8.6,12.4,0,18.1s39,12.4,39.9,5.7
	s1-17.1,0-21.9s2.9-78.9,2.9-78.9l-11.4-113.1l-39-18.1L340.3,520z"/>
<path class="st3" d="M381.2,430.7l20.9,39.9c0,0,119.7,53.2,109.3,75.1c-10.5,21.9-68.4,62.7-68.4,62.7s-2.9,16.2-11.4,11.4
	s-29.5-29.5-27.6-32.3s8.6-9.5,11.4-8.6s36.1-24.7,36.1-24.7l-57-14.3c0,0-68.4-1.9-72.2-34.2s0-38,0-38l-4.8-10.5l39-23.8
	L381.2,430.7z"/>
<path class="st3" d="M410.6,588.4l-20,18.1c0,0-17.1-7.6-27.6-4.8s-28.5,4.8-28.5,4.8l2.9,16.2l24.2-4.5l-19.5,27.3
	c0,0,0,42.8,12.4,42.8s8.6-25.7,8.6-25.7l38-29.5c0,0,19-7.6,20.9-7.6S410.6,588.4,410.6,588.4z"/>
<circle class="st10" cx="286.6" cy="292.4" r="32.3"/>
<path class="st5" d="M254.8,317.6c0,0,15.2-3.8,20,0s5.7,12.4,12.4,13.3s12.4,1,13.3,1.9s22.8,27.6,22.8,27.6s13.3,7.6,16.2,18.1
	s31.4,45.6,35.2,49.4s-24.7,22.8-34.2,29.5s-37.1,9.5-45.6-5.7S239.6,337.5,254.8,317.6z"/>
<path class="st10" d="M290.9,379.3l7.6,43.7c0,0,80.8-8.6,86.5,7.6s7.6,20.9,7.6,20.9l-16.2,5.7l-7.6-14.3c-4.7-1.7-9.8-1.3-14.3,1
	c-7.6,3.8-74.1,13.3-78.9,1s-18.1-58-18.1-58l20-16.2L290.9,379.3z"/>
<path class="st5" d="M272.8,321.6c0,0,22.9,48.3,21,61.6s-8.6,3.8-8.6,3.8s-8.6-13.3-12.4-5.7s-8.6,18.1-12.4,17.1
	s-24.7-71.3-13.3-77.9S272.8,321.6,272.8,321.6z"/>
<circle class="st3" cx="224.7" cy="218.2" r="42.7"/>
<path class="st3" d="M187.9,253.6c19.1,13.8,45.8,9.5,59.6-9.6c2.8-3.9,4.9-8.2,6.3-12.8c-2.9,23.4-24.3,39.9-47.7,37
	c-23.4-2.9-39.9-24.3-37-47.7c0.3-2.3,0.8-4.6,1.4-6.8C168.6,229.1,175.3,244.4,187.9,253.6z"/>
<circle class="st3" cx="259.6" cy="281.5" r="31.3"/>
<ellipse class="st3" cx="285.9" cy="269.8" rx="27.7" ry="21.7"/>
<ellipse class="st10" cx="287.1" cy="295.7" rx="6.2" ry="10.9"/>
<path class="st3" d="M371.9,456.8c0,0,16.8-9.7,19.9-7.2s4.5,10,4.5,10l-19.4,7.6l-5.7-10.5L371.9,456.8z"/>
<line class="st11" x1="291.7" y1="786.2" x2="291.7" y2="670.1"/>
<circle class="st2" cx="291.7" cy="670.1" r="16.4"/>
<path class="st2" d="M291.7,741.6c0,0-2.3-50.4-50.4-44.6"/>
<line class="st11" x1="791.7" y1="700.2" x2="791.7" y2="584.1"/>
<circle class="st2" cx="791.7" cy="584.1" r="16.4"/>
<path class="st2" d="M791.7,655.6c0,0-2.3-50.4-50.4-44.6"/>
<line class="st11" x1="994.5" y1="702.8" x2="994.5" y2="470.6"/>
<circle class="st2" cx="994.5" cy="470.6" r="16.4"/>
<path class="st2" d="M994.5,537.5c0,0,2.3-50.4,50.4-44.6"/>
<path class="st11" d="M994.5,698.3c0,0-10.6-92.8,50.4-97.5"/>
<circle class="st2" cx="1044.9" cy="600.8" r="16.4"/>
</svg>
