<svg version="1.1" xmlns="http://www.w3.org/2000/svg" xmlns:xlink="http://www.w3.org/1999/xlink" x="0px" y="0px" viewBox="0 0 658.2 146">
      <path d="M111.72361.074352c.880142-.044611 1.755339-.044611 2.635481-.024784-2.635481 5.511939-5.172069 11.068488-7.738325 16.600254h-2.145964c-1.176818-2.780753-2.566256-5.487155-3.787576-8.267908a44.296597 44.296597 0 0 1 2.566256 0c.736748 1.715046 1.61689 3.35574 2.284413 5.070786 2.052016-4.466059 4.173256-8.91229 6.185715-13.378348z"></path>
      <path d="M45.594309 2.433779c1.686114.024784 3.396951.024784 5.083066 0-.024723 1.50686-.024723 3.033549 0 4.54041-1.686115-.024784-3.396952 0-5.102845-.024784.044502-1.506861-.004944-3.008765.019779-4.515626zM20.025697 8.917246c3.466176-1.967841 8.499796-1.298676 10.833655 2.106632 1.433938 2.012452 1.849286 4.560237 1.824563 6.969232-3.970527.024783-7.945999 0-11.916526.024783.182951 1.229282.71697 2.523001 1.849287 3.17234 1.61689.951701 4.158422.669165 4.964395-1.204498 1.641613-.044611 3.258502-.044611 4.89517 0-.509295 1.873663-1.869065 3.474702-3.579902 4.352052-1.849287 1.021097-4.064475 1.204498-6.121435.857523-2.170687-.346974-4.178201-1.576256-5.404466-3.405307-1.339991-1.943058-1.686114-4.421448-1.384493-6.716436.296677-2.523001 1.79984-4.907212 4.039752-6.15632zm2.69976 2.89476c-1.132317.530375-1.686114 1.759656-1.93829 2.93937h6.78896c-.13845-.902134-.45985-1.853836-1.157041-2.47839-.9642-.946745-2.511865-.971529-3.693628-.46098zm50.563649-3.77211c2.724484-.485764 5.750589.09418 7.852051 1.992626 3.579902 3.197123 3.743075 9.378227.415348 12.803361-2.63548 2.75597-7.046079 3.266518-10.418307 1.715046-2.610758-1.179714-4.39082-3.841504-4.687497-6.666868-.113726-1.645651-.044501-3.335913.623022-4.862601 1.018591-2.622137 3.4909-4.520583 6.215383-4.981564zm.57852 3.77211c-1.433939.510548-2.101462 2.06202-2.309136 3.474702-.163172 1.759657-.13845 3.752282.993868 5.209575 1.226265 1.596083 3.926026 1.551472 5.15229-.024784 1.018591-1.273892 1.17682-3.008765 1.063093-4.58502-.069225-1.387899-.553797-2.869976-1.710837-3.727499-.929588-.624554-2.150908-.718733-3.189278-.346974zm17.553389-2.825365c1.686114-1.318503 4.089198-1.457293 6.027487-.669165 1.384493.59977 2.422862 1.829052 2.912379 3.241734.553797 1.457293.390625 3.033549.390625 4.560237 0 2.919543-.024723 5.83413.024723 8.728889-1.686114.024784-3.372228 0-5.083066.024784V14.870339c0-.857523-.3214-1.784441-1.03837-2.314816-1.087815-.73856-2.655258-.59977-3.579901.32219-.736748.73856-1.063093 1.804268-1.03837 2.825365v9.170042c-1.661391-.024784-3.347505 0-5.013841-.024784 0-5.51194.024723-11.023878 0-16.53086 1.641613.024784 3.258502-.024784 4.89517.024784-.024723.763344-.024723 1.526688-.044501 2.290032.509295-.55516.924643-1.179713 1.547665-1.64565zM0 8.362087h5.266017c1.063092 3.544097 2.19541 7.083238 3.189277 10.65212 1.226265-3.49453 2.145964-7.108023 3.303004-10.65212 1.686114-.024784 3.396952 0 5.083066-.024784-1.943234 5.511939-3.837023 11.023878-5.755534 16.535817-1.755339 0-3.510677-.024784-5.266016.024783C3.812299 19.405792 2.032237 13.824458 0 8.362087zm33.83601-.024784h4.85067c-.024724.926918 0 1.853836-.044502 2.780753.415348-.46098.71697-1.040923 1.15704-1.482077 1.087816-1.204497 2.862933-1.690261 4.435321-1.273892-.024723 1.457293-.024723 2.919543 0 4.352053-1.246043-.13879-2.63548-.09418-3.693628.669165-1.132317.788128-1.641613 2.24542-1.61689 3.588708-.024723 2.641964 0 5.254186 0 7.89615-1.686114 0-3.396951-.024784-5.083066.024784.019779-5.531766.019779-11.043705-.004944-16.555644zm11.758299.024784c1.710837-.024784 3.396951 0 5.102844-.024784-.024723 5.511939 0 11.023878 0 16.53086-1.686114-.024784-3.396951 0-5.102844 0V8.362087zm6.467558-.024784c4.598494.024784 9.192042 0 13.765813.024784-.044502 1.273892 0 2.523-.024723 3.796893-.163173.32219-.440071.55516-.647745.83274-2.353638 2.617179-4.667718 5.303753-7.065857 7.896149 2.704705.04461 5.404466 0 8.10917.024784v3.980294a1343.926894 1343.926894 0 0 0-14.136658 0v-3.841504c2.472309-2.780754 4.919894-5.531766 7.41198-8.287736.069225-.13879.370847-.27758.207674-.46098-2.541533.069395-5.083065 0-7.624598.04461.004944-1.348243.004944-2.666747.004944-4.010034z"></path>
    </svg>