<?xml version="1.0" encoding="utf-8"?>
<!-- Generator: Adobe Illustrator 21.0.2, SVG Export Plug-In . SVG Version: 6.00 Build 0)  -->
<svg version="1.1" id="Layer_1" xmlns="http://www.w3.org/2000/svg" xmlns:xlink="http://www.w3.org/1999/xlink" x="0px" y="0px"
	 viewBox="0 0 1600 900" style="enable-background:new 0 0 1600 900;" xml:space="preserve">
<style type="text/css">
	.st0{fill:url(#SVGID_1_);}
	.st1{fill:#FFFFFF;}
	.st2{fill:#B09DC5;}
	.st3{fill:#DBE8EE;}
	.st4{fill:#9880B4;}
	.st5{fill:#B8D0DE;}
	.st6{fill:#8163A2;}
	.st7{fill:#94BACE;}
	.st8{fill:#6A4791;}
	.st9{fill:#6EA4BE;}
	.st10{fill:#532B7F;}
	.st11{fill:#438EAE;}
	.st12{fill:#3A0B6E;}
	.st13{fill:#FFFFFF;stroke:#000000;stroke-miterlimit:10;}
</style>
<linearGradient id="SVGID_1_" gradientUnits="userSpaceOnUse" x1="0" y1="450" x2="1600" y2="450">
	<stop  offset="0" style="stop-color:#438EAE"/>
	<stop  offset="0.8387" style="stop-color:#34085A"/>
</linearGradient>
<rect class="st0" width="1600" height="900"/>
<polygon class="st1" points="957,450 539,900 1396,900 "/>
<polygon class="st2" points="957,450 872.9,900 1396,900 "/>
<polygon class="st3" points="-60,900 398,662 816,900 "/>
<polygon class="st4" points="337,900 398,662 816,900 "/>
<polygon class="st5" points="1203,546 1552,900 876,900 "/>
<polygon class="st6" points="1203,546 1552,900 1162,900 "/>
<polygon class="st7" points="641,695 886,900 367,900 "/>
<polygon class="st8" points="587,900 641,695 886,900 "/>
<polygon class="st9" points="1710,900 1401,632 1096,900 "/>
<polygon class="st10" points="1710,900 1401,632 1365,900 "/>
<polygon class="st11" points="1210,900 971,687 725,900 "/>
<polygon class="st12" points="943,900 1210,900 971,687 "/>
<rect x="1613.5" y="-72.9" class="st13" width="103.9" height="23.4"/>
</svg>
